SplineFontDB: 3.2
FontName: FiraSans-SemiBold
FullName: Fira Sans SemiBold
FamilyName: Fira Sans SemiBold
Weight: Demi
Copyright: Digitized data copyright 2012-2016, The Mozilla Foundation and Telefonica S.A.
Version: 4.203
ItalicAngle: 0
UnderlinePosition: -100
UnderlineWidth: 50
Ascent: 800
Descent: 200
InvalidEm: 0
sfntRevision: 0x000433f7
LayerCount: 2
Layer: 0 1 "Back" 1
Layer: 1 1 "Fore" 0
XUID: [1021 290 -2069630831 15895419]
StyleMap: 0x0040
FSType: 0
OS2Version: 4
OS2_WeightWidthSlopeOnly: 0
OS2_UseTypoMetrics: 1
CreationTime: 1476947922
ModificationTime: 1480667555
PfmFamily: 17
TTFWeight: 600
TTFWidth: 5
LineGap: 0
VLineGap: 0
Panose: 2 11 6 3 5 0 0 2 0 4
OS2TypoAscent: 935
OS2TypoAOffset: 0
OS2TypoDescent: -265
OS2TypoDOffset: 0
OS2TypoLinegap: 0
OS2WinAscent: 935
OS2WinAOffset: 0
OS2WinDescent: 265
OS2WinDOffset: 0
HheadAscent: 935
HheadAOffset: 0
HheadDescent: -265
HheadDOffset: 0
OS2SubXSize: 650
OS2SubYSize: 600
OS2SubXOff: 0
OS2SubYOff: 75
OS2SupXSize: 650
OS2SupYSize: 600
OS2SupXOff: 0
OS2SupYOff: 350
OS2StrikeYSize: 50
OS2StrikeYPos: 318
OS2CapHeight: 692
OS2XHeight: 530
OS2Vendor: 'CTDB'
OS2CodePages: 2000019f.00000000
OS2UnicodeRanges: 600002ff.00000001.00000000.00000000
Lookup: 1 0 0 "'aalt' Access All Alternates lookup 0" { "'aalt' Access All Alternates lookup 0 subtable"  } ['aalt' ('DFLT' <'dflt' > 'cyrl' <'dflt' > 'grek' <'dflt' > 'latn' <'AFK ' 'AZE ' 'CAT ' 'CRT ' 'KAZ ' 'MOL ' 'PLK ' 'ROM ' 'TAT ' 'TRK ' 'dflt' > ) ]
Lookup: 3 0 0 "'aalt' Access All Alternates lookup 1" { "'aalt' Access All Alternates lookup 1 subtable"  } ['aalt' ('DFLT' <'dflt' > 'cyrl' <'dflt' > 'grek' <'dflt' > 'latn' <'AFK ' 'AZE ' 'CAT ' 'CRT ' 'KAZ ' 'MOL ' 'PLK ' 'ROM ' 'TAT ' 'TRK ' 'dflt' > ) ]
Lookup: 1 0 0 "'locl' Localized Forms in Latin lookup 2" { "'locl' Localized Forms in Latin lookup 2 subtable"  } ['locl' ('latn' <'TAT ' > ) ]

StartChar: .notdef
Encoding: 65536 -1 0
Width: 666
GlyphClass: 1
Flags: W
LayerCount: 2
Fore
SplineSet
543 1050 m 1,0,-1
 543 -350 l 1,1,-1
 123 -350 l 1,2,-1
 123 1050 l 1,3,-1
 543 1050 l 1,0,-1
489 998 m 1,4,-1
 178 998 l 1,5,-1
 178 -298 l 1,6,-1
 489 -298 l 1,7,-1
 489 998 l 1,4,-1
409.5 419 m 128,-1,9
 435 387 435 387 435 336 c 0,10,11
 435 283 435 283 412.5 254 c 128,-1,12
 390 225 390 225 340 218 c 1,13,-1
 340 173 l 2,14,15
 340 162 340 162 332.5 155.5 c 128,-1,16
 325 149 325 149 315 149 c 256,17,18
 305 149 305 149 297.5 155.5 c 128,-1,19
 290 162 290 162 290 173 c 2,20,-1
 290 257 l 1,21,22
 343 260 343 260 362 276.5 c 128,-1,23
 381 293 381 293 381 334 c 0,24,25
 381 367 381 367 368 385 c 128,-1,26
 355 403 355 403 320 403 c 0,27,28
 291 403 291 403 268 392 c 0,29,30
 260 389 260 389 255 389 c 0,31,32
 244 389 244 389 237.5 395.5 c 128,-1,33
 231 402 231 402 231 412 c 0,34,35
 231 431 231 431 260.5 441 c 128,-1,36
 290 451 290 451 324 451 c 0,37,8
 384 451 384 451 409.5 419 c 128,-1,9
340 110 m 128,-1,39
 350 100 350 100 350 85 c 0,40,41
 350 69 350 69 340 58.5 c 128,-1,42
 330 48 330 48 315 48 c 256,43,44
 300 48 300 48 290 58.5 c 128,-1,45
 280 69 280 69 280 85 c 0,46,47
 280 100 280 100 290 110 c 128,-1,48
 300 120 300 120 315 120 c 256,49,38
 330 120 330 120 340 110 c 128,-1,39
EndSplineSet
EndChar

StartChar: A
Encoding: 65 65 3
Width: 586
GlyphClass: 2
Flags: W
AnchorPoint: "Anchor-18" 0 0 basechar 0
AnchorPoint: "Anchor-17" 0 0 basechar 0
AnchorPoint: "Anchor-16" 294 692 basechar 0
AnchorPoint: "Anchor-15" 532 0 basechar 0
AnchorPoint: "Anchor-14" 294 0 basechar 0
LayerCount: 2
Fore
SplineSet
439 0 m 1,0,-1
 400 155 l 1,1,-1
 183 155 l 1,2,-1
 144 0 l 1,3,-1
 -9 0 l 1,4,-1
 204 692 l 1,5,-1
 383 692 l 1,6,-1
 595 0 l 1,7,-1
 439 0 l 1,0,-1
211 264 m 1,8,-1
 372 264 l 1,9,-1
 291 583 l 1,10,-1
 211 264 l 1,8,-1
EndSplineSet
Substitution2: "Single Substitution lookup 45 subtable" ordfeminine
Substitution2: "'c2sc' Capitals to Small Capitals lookup 26 subtable" a.sc
AlternateSubs2: "'aalt' Access All Alternates lookup 1 subtable" ordfeminine a.sc
Position2: "'cpsp' Capital Spacing lookup 0 subtable" dx=5 dy=0 dh=10 dv=0
EndChar

StartChar: uni2C6D
Encoding: 11373 11373 27
Width: 689
GlyphClass: 2
Flags: W
AnchorPoint: "Anchor-18" 0 0 basechar 0
AnchorPoint: "Anchor-17" 0 0 basechar 0
AnchorPoint: "Anchor-16" 345 692 basechar 0
AnchorPoint: "Anchor-15" 0 0 basechar 0
AnchorPoint: "Anchor-14" 345 0 basechar 0
LayerCount: 2
Fore
SplineSet
618.5 118.5 m 128,-1,1
 628 102 628 102 653 90 c 1,2,-1
 610 -16 l 1,3,4
 561 -7 561 -7 530 11.5 c 128,-1,5
 499 30 499 30 483 61 c 1,6,7
 416 -16 416 -16 310 -16 c 0,8,9
 231 -16 231 -16 169.5 25 c 128,-1,10
 108 66 108 66 73 144.5 c 128,-1,11
 38 223 38 223 38 333 c 0,12,13
 38 449 38 449 73.5 534 c 128,-1,14
 109 619 109 619 171.5 663.5 c 128,-1,15
 234 708 234 708 314 708 c 0,16,17
 407 708 407 708 473 639 c 1,18,-1
 483 692 l 1,19,-1
 609 692 l 1,20,-1
 609 170 l 2,21,0
 609 135 609 135 618.5 118.5 c 128,-1,1
462 149 m 1,23,-1
 462 543 l 1,24,25
 412 598 412 598 341 598 c 0,26,27
 269 598 269 598 231 535 c 128,-1,28
 193 472 193 472 193 333 c 0,29,30
 193 205 193 205 231 148.5 c 128,-1,31
 269 92 269 92 338 92 c 0,32,22
 411 92 411 92 462 149 c 1,23,-1
EndSplineSet
Substitution2: "'c2sc' Capitals to Small Capitals lookup 26 subtable" uni0251.sc
Substitution2: "'aalt' Access All Alternates lookup 0 subtable" uni0251.sc
Position2: "'cpsp' Capital Spacing lookup 0 subtable" dx=5 dy=0 dh=10 dv=0
EndChar

StartChar: Aogonek
Encoding: 260 260 29
Width: 586
GlyphClass: 2
Flags: W
AnchorPoint: "Anchor-18" 0 0 basechar 0
AnchorPoint: "Anchor-17" 0 0 basechar 0
AnchorPoint: "Anchor-16" 294 692 basechar 0
AnchorPoint: "Anchor-15" 532 0 basechar 0
AnchorPoint: "Anchor-14" 294 0 basechar 0
LayerCount: 2
Fore
SplineSet
402 -105 m 0,1,2
 402 -151 402 -151 456 -151 c 0,3,4
 485 -151 485 -151 517 -144 c 1,5,-1
 507 -235 l 1,6,7
 470 -242 470 -242 439 -242 c 0,8,9
 376 -242 376 -242 336.5 -211.5 c 128,-1,10
 297 -181 297 -181 297 -130 c 0,11,12
 297 -78 297 -78 331.5 -40 c 128,-1,13
 366 -2 366 -2 433 24 c 1,14,-1
 400 155 l 1,15,-1
 183 155 l 1,16,-1
 144 0 l 1,17,-1
 -9 0 l 1,18,-1
 204 692 l 1,19,-1
 383 692 l 1,20,-1
 595 0 l 1,21,-1
 522 0 l 1,22,0
 402 -46 402 -46 402 -105 c 0,1,2
211 264 m 1,23,-1
 372 264 l 1,24,-1
 291 583 l 1,25,-1
 211 264 l 1,23,-1
EndSplineSet
Substitution2: "'c2sc' Capitals to Small Capitals lookup 26 subtable" aogonek.sc
Substitution2: "'aalt' Access All Alternates lookup 0 subtable" aogonek.sc
Position2: "'cpsp' Capital Spacing lookup 0 subtable" dx=5 dy=0 dh=10 dv=0
EndChar

StartChar: uni023A
Encoding: 570 570 32
Width: 586
GlyphClass: 2
Flags: W
AnchorPoint: "Anchor-18" 0 0 basechar 0
AnchorPoint: "Anchor-17" 0 0 basechar 0
AnchorPoint: "Anchor-16" 293 692 basechar 0
AnchorPoint: "Anchor-15" 0 0 basechar 0
AnchorPoint: "Anchor-14" 293 0 basechar 0
LayerCount: 2
Fore
SplineSet
450 0 m 1,0,-1
 409 155 l 1,1,-1
 289 155 l 1,2,-1
 228 -73 l 1,3,-1
 173 -60 l 1,4,-1
 230 155 l 1,5,-1
 173 155 l 1,6,-1
 132 0 l 1,7,-1
 -9 0 l 1,8,-1
 204 692 l 1,9,-1
 373 692 l 1,10,-1
 389 754 l 1,11,-1
 444 741 l 1,12,-1
 409 608 l 1,13,-1
 595 0 l 1,14,-1
 450 0 l 1,0,-1
200 257 m 1,15,-1
 257 257 l 1,16,-1
 319 491 l 1,17,-1
 291 597 l 1,18,-1
 200 257 l 1,15,-1
316 257 m 1,19,-1
 382 257 l 1,20,-1
 348 381 l 1,21,-1
 316 257 l 1,19,-1
EndSplineSet
Substitution2: "'c2sc' Capitals to Small Capitals lookup 26 subtable" uni2C65.sc
Substitution2: "'aalt' Access All Alternates lookup 0 subtable" uni2C65.sc
Position2: "'cpsp' Capital Spacing lookup 0 subtable" dx=5 dy=0 dh=10 dv=0
EndChar

StartChar: AE
Encoding: 198 198 34
Width: 838
GlyphClass: 2
Flags: W
AnchorPoint: "Anchor-18" 0 0 basechar 0
AnchorPoint: "Anchor-17" 0 0 basechar 0
AnchorPoint: "Anchor-16" 481 692 basechar 0
AnchorPoint: "Anchor-15" 0 0 basechar 0
AnchorPoint: "Anchor-14" 419 0 basechar 0
LayerCount: 2
Fore
SplineSet
570 108 m 1,0,-1
 800 108 l 1,1,-1
 800 0 l 1,2,-1
 448 0 l 1,3,-1
 419 155 l 1,4,-1
 190 155 l 1,5,-1
 136 0 l 1,6,-1
 -20 0 l 1,7,-1
 252 692 l 1,8,-1
 762 692 l 1,9,-1
 746 585 l 1,10,-1
 467 585 l 1,11,-1
 506 403 l 1,12,-1
 753 403 l 1,13,-1
 753 297 l 1,14,-1
 529 297 l 1,15,-1
 570 108 l 1,0,-1
227 264 m 1,16,-1
 398 264 l 1,17,-1
 338 583 l 1,18,-1
 227 264 l 1,16,-1
EndSplineSet
Substitution2: "'c2sc' Capitals to Small Capitals lookup 26 subtable" ae.sc
Substitution2: "'aalt' Access All Alternates lookup 0 subtable" ae.sc
Position2: "'cpsp' Capital Spacing lookup 0 subtable" dx=5 dy=0 dh=10 dv=0
EndChar

StartChar: B
Encoding: 66 66 37
Width: 615
GlyphClass: 2
Flags: W
AnchorPoint: "Anchor-18" 0 0 basechar 0
AnchorPoint: "Anchor-17" 0 0 basechar 0
AnchorPoint: "Anchor-16" 296 692 basechar 0
AnchorPoint: "Anchor-15" 0 0 basechar 0
AnchorPoint: "Anchor-14" 310 0 basechar 0
LayerCount: 2
Fore
SplineSet
540.5 315.5 m 128,-1,1
 584 278 584 278 584 201 c 0,2,3
 584 92 584 92 506 46 c 128,-1,4
 428 0 428 0 289 0 c 2,5,-1
 73 0 l 1,6,-1
 73 692 l 1,7,-1
 262 692 l 2,8,9
 404 692 404 692 479 650 c 128,-1,10
 554 608 554 608 554 515 c 0,11,12
 554 454 554 454 517.5 416.5 c 128,-1,13
 481 379 481 379 427 366 c 1,14,0
 497 353 497 353 540.5 315.5 c 128,-1,1
220 586 m 1,15,-1
 220 411 l 1,16,-1
 292 411 l 2,17,18
 346 411 346 411 375 433.5 c 128,-1,19
 404 456 404 456 404 502 c 256,20,21
 404 548 404 548 373 567 c 128,-1,22
 342 586 342 586 276 586 c 2,23,-1
 220 586 l 1,15,-1
395 129.5 m 128,-1,25
 431 150 431 150 431 207 c 0,26,27
 431 311 431 311 303 311 c 2,28,-1
 220 311 l 1,29,-1
 220 109 l 1,30,-1
 290 109 l 2,31,24
 359 109 359 109 395 129.5 c 128,-1,25
EndSplineSet
Substitution2: "'c2sc' Capitals to Small Capitals lookup 26 subtable" b.sc
Substitution2: "'aalt' Access All Alternates lookup 0 subtable" b.sc
Position2: "'cpsp' Capital Spacing lookup 0 subtable" dx=5 dy=0 dh=10 dv=0
EndChar

StartChar: uniA7B4
Encoding: 42932 42932 40
Width: 615
GlyphClass: 2
Flags: W
AnchorPoint: "Anchor-18" 0 0 basechar 0
AnchorPoint: "Anchor-17" 0 0 basechar 0
AnchorPoint: "Anchor-16" 307 692 basechar 0
AnchorPoint: "Anchor-15" 0 0 basechar 0
AnchorPoint: "Anchor-14" 307 -208 basechar 0
LayerCount: 2
Fore
SplineSet
540.5 316 m 128,-1,1
 584 279 584 279 584 205 c 0,2,3
 584 99 584 99 512 49.5 c 128,-1,4
 440 0 440 0 328 0 c 0,5,6
 273 0 273 0 220 11 c 1,7,-1
 220 -208 l 1,8,-1
 73 -208 l 1,9,-1
 73 692 l 1,10,-1
 262 692 l 2,11,12
 404 692 404 692 479 650 c 128,-1,13
 554 608 554 608 554 515 c 0,14,15
 554 454 554 454 517.5 416.5 c 128,-1,16
 481 379 481 379 427 366 c 1,17,0
 497 353 497 353 540.5 316 c 128,-1,1
398.5 133.5 m 128,-1,19
 431 158 431 158 431 212 c 0,20,21
 431 263 431 263 398.5 287 c 128,-1,22
 366 311 366 311 312 311 c 2,23,-1
 275 311 l 1,24,-1
 285 411 l 1,25,-1
 302 411 l 2,26,27
 348 411 348 411 376 434 c 128,-1,28
 404 457 404 457 404 500 c 0,29,30
 404 548 404 548 373 567 c 128,-1,31
 342 586 342 586 276 586 c 2,32,-1
 220 586 l 1,33,-1
 220 116 l 1,34,35
 271 109 271 109 312 109 c 0,36,18
 366 109 366 109 398.5 133.5 c 128,-1,19
EndSplineSet
Substitution2: "'c2sc' Capitals to Small Capitals lookup 26 subtable" uniA7B5.sc
Substitution2: "'aalt' Access All Alternates lookup 0 subtable" uniA7B5.sc
Position2: "'cpsp' Capital Spacing lookup 0 subtable" dx=5 dy=0 dh=10 dv=0
EndChar

StartChar: uni0181
Encoding: 385 385 41
Width: 742
GlyphClass: 2
Flags: W
AnchorPoint: "Anchor-18" 0 0 basechar 0
AnchorPoint: "Anchor-17" 0 0 basechar 0
AnchorPoint: "Anchor-16" 423 692 basechar 0
AnchorPoint: "Anchor-15" 0 0 basechar 0
AnchorPoint: "Anchor-14" 437 0 basechar 0
LayerCount: 2
Fore
SplineSet
667.5 315.5 m 128,-1,1
 711 278 711 278 711 201 c 0,2,3
 711 92 711 92 633 46 c 128,-1,4
 555 0 555 0 416 0 c 2,5,-1
 200 0 l 1,6,-1
 200 585 l 1,7,-1
 172 585 l 2,8,9
 124 585 124 585 124 541 c 0,10,11
 124 525 124 525 128 510.5 c 128,-1,12
 132 496 132 496 140 474 c 1,13,-1
 49 433 l 1,14,15
 29 463 29 463 17 490.5 c 128,-1,16
 5 518 5 518 5 550 c 0,17,18
 5 616 5 616 52 654 c 128,-1,19
 99 692 99 692 180 692 c 2,20,-1
 389 692 l 2,21,22
 531 692 531 692 606 650 c 128,-1,23
 681 608 681 608 681 515 c 0,24,25
 681 454 681 454 644.5 416.5 c 128,-1,26
 608 379 608 379 554 366 c 1,27,0
 624 353 624 353 667.5 315.5 c 128,-1,1
347 586 m 1,28,-1
 347 411 l 1,29,-1
 419 411 l 2,30,31
 473 411 473 411 502 433.5 c 128,-1,32
 531 456 531 456 531 502 c 256,33,34
 531 548 531 548 500 567 c 128,-1,35
 469 586 469 586 403 586 c 2,36,-1
 347 586 l 1,28,-1
522 129.5 m 128,-1,38
 558 150 558 150 558 207 c 0,39,40
 558 311 558 311 430 311 c 2,41,-1
 347 311 l 1,42,-1
 347 109 l 1,43,-1
 417 109 l 2,44,37
 486 109 486 109 522 129.5 c 128,-1,38
EndSplineSet
Substitution2: "'ss02' Style Set 2 lookup 34 subtable" uni0181.ss02
Substitution2: "'salt' Stylistic Alternatives lookup 32 subtable" uni0181.ss02
Substitution2: "'c2sc' Capitals to Small Capitals lookup 26 subtable" uni0253.sc
AlternateSubs2: "'aalt' Access All Alternates lookup 1 subtable" uni0253.sc uni0181.ss02
Position2: "'cpsp' Capital Spacing lookup 0 subtable" dx=5 dy=0 dh=10 dv=0
EndChar

StartChar: uni0243
Encoding: 579 579 43
Width: 628
GlyphClass: 2
Flags: W
AnchorPoint: "Anchor-18" 0 0 basechar 0
AnchorPoint: "Anchor-17" 0 0 basechar 0
AnchorPoint: "Anchor-16" 310 692 basechar 0
AnchorPoint: "Anchor-15" 0 0 basechar 0
AnchorPoint: "Anchor-14" 324 0 basechar 0
LayerCount: 2
Fore
SplineSet
554.5 315.5 m 128,-1,1
 598 278 598 278 598 201 c 0,2,3
 598 92 598 92 520 46 c 128,-1,4
 442 0 442 0 303 0 c 2,5,-1
 87 0 l 1,6,-1
 87 174 l 1,7,-1
 15 174 l 1,8,-1
 15 251 l 1,9,-1
 87 251 l 1,10,-1
 87 692 l 1,11,-1
 276 692 l 2,12,13
 418 692 418 692 493 650 c 128,-1,14
 568 608 568 608 568 515 c 0,15,16
 568 454 568 454 531.5 416.5 c 128,-1,17
 495 379 495 379 441 366 c 1,18,0
 511 353 511 353 554.5 315.5 c 128,-1,1
234 586 m 1,19,-1
 234 411 l 1,20,-1
 306 411 l 2,21,22
 360 411 360 411 389 433.5 c 128,-1,23
 418 456 418 456 418 502 c 256,24,25
 418 548 418 548 387 567 c 128,-1,26
 356 586 356 586 290 586 c 2,27,-1
 234 586 l 1,19,-1
409 129.5 m 128,-1,29
 445 150 445 150 445 207 c 0,30,31
 445 311 445 311 317 311 c 2,32,-1
 234 311 l 1,33,-1
 234 251 l 1,34,-1
 360 251 l 1,35,-1
 360 174 l 1,36,-1
 234 174 l 1,37,-1
 234 109 l 1,38,-1
 304 109 l 2,39,28
 373 109 373 109 409 129.5 c 128,-1,29
EndSplineSet
Substitution2: "'c2sc' Capitals to Small Capitals lookup 26 subtable" uni0180.sc
Substitution2: "'aalt' Access All Alternates lookup 0 subtable" uni0180.sc
Position2: "'cpsp' Capital Spacing lookup 0 subtable" dx=5 dy=0 dh=10 dv=0
EndChar

StartChar: C
Encoding: 67 67 45
Width: 571
GlyphClass: 2
Flags: W
AnchorPoint: "Anchor-18" 357 350 basechar 0
AnchorPoint: "Anchor-17" 0 0 basechar 0
AnchorPoint: "Anchor-16" 352 692 basechar 0
AnchorPoint: "Anchor-15" 0 0 basechar 0
AnchorPoint: "Anchor-14" 343 0 basechar 0
LayerCount: 2
Fore
SplineSet
459 689.5 m 128,-1,1
 507 671 507 671 553 633 c 1,2,-1
 480 548 l 1,3,4
 420 597 420 597 354 597 c 0,5,6
 280 597 280 597 236.5 536.5 c 128,-1,7
 193 476 193 476 193 347 c 0,8,9
 193 221 193 221 236.5 160.5 c 128,-1,10
 280 100 280 100 355 100 c 0,11,12
 394 100 394 100 426 114.5 c 128,-1,13
 458 129 458 129 493 156 c 1,14,-1
 561 71 l 1,15,16
 524 33 524 33 469.5 8.5 c 128,-1,17
 415 -16 415 -16 349 -16 c 0,18,19
 256 -16 256 -16 186 26 c 128,-1,20
 116 68 116 68 77 149.5 c 128,-1,21
 38 231 38 231 38 347 c 0,22,23
 38 460 38 460 78 541.5 c 128,-1,24
 118 623 118 623 188 665.5 c 128,-1,25
 258 708 258 708 346 708 c 0,26,0
 411 708 411 708 459 689.5 c 128,-1,1
EndSplineSet
Substitution2: "'c2sc' Capitals to Small Capitals lookup 26 subtable" c.sc
Substitution2: "'aalt' Access All Alternates lookup 0 subtable" c.sc
Position2: "'cpsp' Capital Spacing lookup 0 subtable" dx=5 dy=0 dh=10 dv=0
EndChar

StartChar: Ccedilla
Encoding: 199 199 49
Width: 571
GlyphClass: 2
Flags: W
AnchorPoint: "Anchor-18" 357 350 basechar 0
AnchorPoint: "Anchor-17" 0 0 basechar 0
AnchorPoint: "Anchor-16" 352 692 basechar 0
AnchorPoint: "Anchor-15" 0 0 basechar 0
AnchorPoint: "Anchor-14" 360 -257 basechar 0
LayerCount: 2
Fore
SplineSet
483.5 15 m 128,-1,1
 438 -8 438 -8 382 -14 c 1,2,-1
 382 -50 l 1,3,4
 433 -55 433 -55 458 -80.5 c 128,-1,5
 483 -106 483 -106 483 -146 c 0,6,7
 483 -196 483 -196 443.5 -226.5 c 128,-1,8
 404 -257 404 -257 340 -257 c 0,9,10
 307 -257 307 -257 279.5 -249 c 128,-1,11
 252 -241 252 -241 233 -228 c 1,12,-1
 266 -160 l 1,13,14
 297 -177 297 -177 330 -177 c 0,15,16
 378 -177 378 -177 378 -145 c 0,17,18
 378 -126 378 -126 356.5 -117.5 c 128,-1,19
 335 -109 335 -109 286 -109 c 1,20,-1
 298 -13 l 1,21,22
 177 4 177 4 107.5 97 c 128,-1,23
 38 190 38 190 38 347 c 0,24,25
 38 460 38 460 78 541.5 c 128,-1,26
 118 623 118 623 188 665.5 c 128,-1,27
 258 708 258 708 346 708 c 0,28,29
 411 708 411 708 459 689.5 c 128,-1,30
 507 671 507 671 553 633 c 1,31,-1
 480 548 l 1,32,33
 420 597 420 597 354 597 c 0,34,35
 280 597 280 597 236.5 536.5 c 128,-1,36
 193 476 193 476 193 347 c 0,37,38
 193 221 193 221 236.5 160.5 c 128,-1,39
 280 100 280 100 355 100 c 0,40,41
 394 100 394 100 426 114.5 c 128,-1,42
 458 129 458 129 493 156 c 1,43,-1
 561 71 l 1,44,0
 529 38 529 38 483.5 15 c 128,-1,1
EndSplineSet
Substitution2: "'c2sc' Capitals to Small Capitals lookup 26 subtable" ccedilla.sc
Substitution2: "'aalt' Access All Alternates lookup 0 subtable" ccedilla.sc
Position2: "'cpsp' Capital Spacing lookup 0 subtable" dx=5 dy=0 dh=10 dv=0
EndChar

StartChar: uniA7B3
Encoding: 42931 42931 52
Width: 562
GlyphClass: 2
Flags: W
AnchorPoint: "Anchor-18" 0 0 basechar 0
AnchorPoint: "Anchor-17" 0 0 basechar 0
AnchorPoint: "Anchor-16" 281 692 basechar 0
AnchorPoint: "Anchor-15" 0 0 basechar 0
AnchorPoint: "Anchor-14" 281 -208 basechar 0
LayerCount: 2
Fore
SplineSet
366 299 m 1,0,-1
 564 -154 l 1,1,-1
 402 -154 l 1,2,-1
 278 200 l 1,3,-1
 155 -154 l 1,4,-1
 -2 -154 l 1,5,-1
 191 294 l 1,6,-1
 14 692 l 1,7,-1
 175 692 l 1,8,-1
 280 387 l 1,9,-1
 389 692 l 1,10,-1
 546 692 l 1,11,-1
 366 299 l 1,0,-1
EndSplineSet
Substitution2: "'c2sc' Capitals to Small Capitals lookup 26 subtable" uniAB53.sc
Substitution2: "'aalt' Access All Alternates lookup 0 subtable" uniAB53.sc
Position2: "'cpsp' Capital Spacing lookup 0 subtable" dx=5 dy=0 dh=10 dv=0
EndChar

StartChar: uni0187
Encoding: 391 391 53
Width: 571
GlyphClass: 2
Flags: W
AnchorPoint: "Anchor-18" 0 0 basechar 0
AnchorPoint: "Anchor-17" 0 0 basechar 0
AnchorPoint: "Anchor-16" 272 715 basechar 0
AnchorPoint: "Anchor-15" 0 0 basechar 0
AnchorPoint: "Anchor-14" 286 0 basechar 0
LayerCount: 2
Fore
SplineSet
720 809 m 1,1,-1
 677 720 l 1,2,3
 658 731 658 731 642.5 736 c 128,-1,4
 627 741 627 741 607 741 c 0,5,6
 553 741 553 741 553 676 c 2,7,-1
 553 633 l 1,8,-1
 488 558 l 1,9,10
 421 597 421 597 353 597 c 0,11,12
 279 597 279 597 236 536.5 c 128,-1,13
 193 476 193 476 193 347 c 0,14,15
 193 222 193 222 236.5 161 c 128,-1,16
 280 100 280 100 355 100 c 0,17,18
 394 100 394 100 425 115 c 128,-1,19
 456 130 456 130 493 158 c 1,20,-1
 561 71 l 1,21,22
 524 33 524 33 469.5 8.5 c 128,-1,23
 415 -16 415 -16 348 -16 c 0,24,25
 255 -16 255 -16 185 26 c 128,-1,26
 115 68 115 68 76.5 149.5 c 128,-1,27
 38 231 38 231 38 347 c 0,28,29
 38 460 38 460 77.5 541.5 c 128,-1,30
 117 623 117 623 184.5 665.5 c 128,-1,31
 252 708 252 708 332 708 c 0,32,33
 386 708 386 708 425 691 c 1,34,35
 428 766 428 766 470 806.5 c 128,-1,36
 512 847 512 847 590 847 c 0,37,0
 663 847 663 847 720 809 c 1,1,-1
EndSplineSet
Substitution2: "'c2sc' Capitals to Small Capitals lookup 26 subtable" uni0188.sc
Substitution2: "'aalt' Access All Alternates lookup 0 subtable" uni0188.sc
Position2: "'cpsp' Capital Spacing lookup 0 subtable" dx=5 dy=0 dh=10 dv=0
EndChar

StartChar: uni023B
Encoding: 571 571 54
Width: 571
GlyphClass: 2
Flags: W
AnchorPoint: "Anchor-18" 357 350 basechar 0
AnchorPoint: "Anchor-17" 0 0 basechar 0
AnchorPoint: "Anchor-16" 286 692 basechar 0
AnchorPoint: "Anchor-15" 0 0 basechar 0
AnchorPoint: "Anchor-14" 286 0 basechar 0
LayerCount: 2
Fore
SplineSet
561 71 m 1,0,1
 524 33 524 33 469.5 8.5 c 128,-1,2
 415 -16 415 -16 349 -16 c 0,3,4
 311 -16 311 -16 273 -8 c 1,5,-1
 256 -73 l 1,6,-1
 201 -60 l 1,7,-1
 219 9 l 1,8,9
 134 45 134 45 86 131.5 c 128,-1,10
 38 218 38 218 38 347 c 0,11,12
 38 460 38 460 78 541.5 c 128,-1,13
 118 623 118 623 188 665.5 c 128,-1,14
 258 708 258 708 346 708 c 0,15,16
 380 708 380 708 404 704 c 1,17,-1
 417 754 l 1,18,-1
 472 741 l 1,19,-1
 458 690 l 1,20,21
 506 672 506 672 553 633 c 1,22,-1
 480 548 l 1,23,24
 455 568 455 568 429 580 c 1,25,-1
 304 108 l 1,26,27
 330 100 330 100 355 100 c 0,28,29
 394 100 394 100 426 114.5 c 128,-1,30
 458 129 458 129 493 156 c 1,31,-1
 561 71 l 1,0,1
254 139 m 1,33,-1
 375 596 l 1,34,35
 368 597 368 597 354 597 c 0,36,37
 280 597 280 597 236.5 536.5 c 128,-1,38
 193 476 193 476 193 347 c 0,39,32
 193 202 193 202 254 139 c 1,33,-1
EndSplineSet
Substitution2: "'c2sc' Capitals to Small Capitals lookup 26 subtable" uni023C.sc
Substitution2: "'aalt' Access All Alternates lookup 0 subtable" uni023C.sc
Position2: "'cpsp' Capital Spacing lookup 0 subtable" dx=5 dy=0 dh=10 dv=0
EndChar

StartChar: D
Encoding: 68 68 55
Width: 650
GlyphClass: 2
Flags: W
AnchorPoint: "Anchor-18" 325 346 basechar 0
AnchorPoint: "Anchor-17" 0 0 basechar 0
AnchorPoint: "Anchor-16" 297 692 basechar 0
AnchorPoint: "Anchor-15" 0 0 basechar 0
AnchorPoint: "Anchor-14" 305 0 basechar 0
LayerCount: 2
Fore
SplineSet
513.5 618.5 m 128,-1,1
 611 545 611 545 611 349 c 0,2,3
 611 157 611 157 515.5 78.5 c 128,-1,4
 420 0 420 0 271 0 c 2,5,-1
 73 0 l 1,6,-1
 73 692 l 1,7,-1
 254 692 l 2,8,0
 416 692 416 692 513.5 618.5 c 128,-1,1
220 584 m 1,9,-1
 220 108 l 1,10,-1
 280 108 l 2,11,12
 365 108 365 108 411.5 160.5 c 128,-1,13
 458 213 458 213 458 349 c 0,14,15
 458 443 458 443 434.5 495 c 128,-1,16
 411 547 411 547 372 565.5 c 128,-1,17
 333 584 333 584 277 584 c 2,18,-1
 220 584 l 1,9,-1
EndSplineSet
Substitution2: "'c2sc' Capitals to Small Capitals lookup 26 subtable" d.sc
Substitution2: "'aalt' Access All Alternates lookup 0 subtable" d.sc
Position2: "'cpsp' Capital Spacing lookup 0 subtable" dx=5 dy=0 dh=10 dv=0
EndChar

StartChar: Eth
Encoding: 208 208 59
Width: 663
GlyphClass: 2
Flags: W
AnchorPoint: "Anchor-18" 338 346 basechar 0
AnchorPoint: "Anchor-17" 0 0 basechar 0
AnchorPoint: "Anchor-16" 310 692 basechar 0
AnchorPoint: "Anchor-15" 0 0 basechar 0
AnchorPoint: "Anchor-14" 318 0 basechar 0
LayerCount: 2
Fore
SplineSet
526.5 618.5 m 128,-1,1
 624 545 624 545 624 349 c 0,2,3
 624 157 624 157 528.5 78.5 c 128,-1,4
 433 0 433 0 284 0 c 2,5,-1
 86 0 l 1,6,-1
 86 307 l 1,7,-1
 15 307 l 1,8,-1
 15 399 l 1,9,-1
 86 399 l 1,10,-1
 86 692 l 1,11,-1
 267 692 l 2,12,0
 429 692 429 692 526.5 618.5 c 128,-1,1
424.5 160.5 m 128,-1,14
 471 213 471 213 471 349 c 0,15,16
 471 443 471 443 447.5 495 c 128,-1,17
 424 547 424 547 385 565.5 c 128,-1,18
 346 584 346 584 290 584 c 2,19,-1
 233 584 l 1,20,-1
 233 399 l 1,21,-1
 374 399 l 1,22,-1
 374 307 l 1,23,-1
 233 307 l 1,24,-1
 233 108 l 1,25,-1
 293 108 l 2,26,13
 378 108 378 108 424.5 160.5 c 128,-1,14
EndSplineSet
Substitution2: "'c2sc' Capitals to Small Capitals lookup 26 subtable" eth.sc
Substitution2: "'aalt' Access All Alternates lookup 0 subtable" eth.sc
Position2: "'cpsp' Capital Spacing lookup 0 subtable" dx=5 dy=0 dh=10 dv=0
EndChar

StartChar: uni018A
Encoding: 394 394 65
Width: 777
GlyphClass: 2
Flags: W
AnchorPoint: "Anchor-18" 452 346 basechar 0
AnchorPoint: "Anchor-17" 0 0 basechar 0
AnchorPoint: "Anchor-16" 424 692 basechar 0
AnchorPoint: "Anchor-15" 0 0 basechar 0
AnchorPoint: "Anchor-14" 432 0 basechar 0
LayerCount: 2
Fore
SplineSet
640.5 618.5 m 128,-1,1
 738 545 738 545 738 349 c 0,2,3
 738 157 738 157 642.5 78.5 c 128,-1,4
 547 0 547 0 398 0 c 2,5,-1
 200 0 l 1,6,-1
 200 585 l 1,7,-1
 172 585 l 2,8,9
 124 585 124 585 124 541 c 0,10,11
 124 525 124 525 128 510.5 c 128,-1,12
 132 496 132 496 140 474 c 1,13,-1
 49 433 l 1,14,15
 29 463 29 463 17 490.5 c 128,-1,16
 5 518 5 518 5 550 c 0,17,18
 5 616 5 616 52 654 c 128,-1,19
 99 692 99 692 180 692 c 2,20,-1
 381 692 l 2,21,0
 543 692 543 692 640.5 618.5 c 128,-1,1
538.5 160.5 m 128,-1,23
 585 213 585 213 585 349 c 0,24,25
 585 443 585 443 561.5 495 c 128,-1,26
 538 547 538 547 499 565.5 c 128,-1,27
 460 584 460 584 404 584 c 2,28,-1
 347 584 l 1,29,-1
 347 108 l 1,30,-1
 407 108 l 2,31,22
 492 108 492 108 538.5 160.5 c 128,-1,23
EndSplineSet
Substitution2: "'c2sc' Capitals to Small Capitals lookup 26 subtable" uni0257.sc
Substitution2: "'aalt' Access All Alternates lookup 0 subtable" uni0257.sc
Position2: "'cpsp' Capital Spacing lookup 0 subtable" dx=5 dy=0 dh=10 dv=0
EndChar

StartChar: uni018B
Encoding: 395 395 67
Width: 592
GlyphClass: 2
Flags: W
AnchorPoint: "Anchor-18" 0 0 basechar 0
AnchorPoint: "Anchor-17" 0 0 basechar 0
AnchorPoint: "Anchor-16" 296 692 basechar 0
AnchorPoint: "Anchor-15" 0 0 basechar 0
AnchorPoint: "Anchor-14" 296 0 basechar 0
LayerCount: 2
Fore
SplineSet
519 0 m 1,0,-1
 285 0 l 2,1,2
 164 0 164 0 92.5 54.5 c 128,-1,3
 21 109 21 109 21 220 c 0,4,5
 21 326 21 326 93 384 c 128,-1,6
 165 442 165 442 293 442 c 2,7,-1
 372 442 l 1,8,-1
 372 579 l 1,9,-1
 106 579 l 1,10,-1
 106 692 l 1,11,-1
 519 692 l 1,12,-1
 519 0 l 1,0,-1
372 109 m 1,13,-1
 372 338 l 1,14,-1
 304 338 l 2,15,16
 175 338 175 338 175 220 c 0,17,18
 175 160 175 160 207 134.5 c 128,-1,19
 239 109 239 109 300 109 c 2,20,-1
 372 109 l 1,13,-1
EndSplineSet
Substitution2: "'c2sc' Capitals to Small Capitals lookup 26 subtable" uni018C.sc
Substitution2: "'aalt' Access All Alternates lookup 0 subtable" uni018C.sc
Position2: "'cpsp' Capital Spacing lookup 0 subtable" dx=5 dy=0 dh=10 dv=0
EndChar

StartChar: E
Encoding: 69 69 70
Width: 528
GlyphClass: 2
Flags: W
AnchorPoint: "Anchor-18" 0 0 basechar 0
AnchorPoint: "Anchor-17" 0 0 basechar 0
AnchorPoint: "Anchor-16" 282 692 basechar 0
AnchorPoint: "Anchor-15" 458 0 basechar 0
AnchorPoint: "Anchor-14" 281 0 basechar 0
LayerCount: 2
Fore
SplineSet
486 692 m 1,0,-1
 470 585 l 1,1,-1
 220 585 l 1,2,-1
 220 405 l 1,3,-1
 438 405 l 1,4,-1
 438 299 l 1,5,-1
 220 299 l 1,6,-1
 220 108 l 1,7,-1
 488 108 l 1,8,-1
 488 0 l 1,9,-1
 73 0 l 1,10,-1
 73 692 l 1,11,-1
 486 692 l 1,0,-1
EndSplineSet
Substitution2: "'c2sc' Capitals to Small Capitals lookup 26 subtable" e.sc
Substitution2: "'aalt' Access All Alternates lookup 0 subtable" e.sc
Position2: "'cpsp' Capital Spacing lookup 0 subtable" dx=5 dy=0 dh=10 dv=0
EndChar

StartChar: uni0228
Encoding: 552 552 74
Width: 528
GlyphClass: 2
Flags: W
AnchorPoint: "Anchor-18" 0 0 basechar 0
AnchorPoint: "Anchor-17" 0 0 basechar 0
AnchorPoint: "Anchor-16" 282 692 basechar 0
AnchorPoint: "Anchor-15" 458 0 basechar 0
AnchorPoint: "Anchor-14" 281 0 basechar 0
LayerCount: 2
Fore
SplineSet
320 0 m 1,0,-1
 320 -50 l 1,1,2
 371 -55 371 -55 396 -80.5 c 128,-1,3
 421 -106 421 -106 421 -146 c 0,4,5
 421 -196 421 -196 381.5 -226.5 c 128,-1,6
 342 -257 342 -257 278 -257 c 0,7,8
 245 -257 245 -257 217.5 -249 c 128,-1,9
 190 -241 190 -241 171 -228 c 1,10,-1
 204 -160 l 1,11,12
 235 -177 235 -177 268 -177 c 0,13,14
 316 -177 316 -177 316 -145 c 0,15,16
 316 -126 316 -126 294.5 -117.5 c 128,-1,17
 273 -109 273 -109 224 -109 c 1,18,-1
 238 0 l 1,19,-1
 73 0 l 1,20,-1
 73 692 l 1,21,-1
 486 692 l 1,22,-1
 470 585 l 1,23,-1
 220 585 l 1,24,-1
 220 405 l 1,25,-1
 438 405 l 1,26,-1
 438 299 l 1,27,-1
 220 299 l 1,28,-1
 220 108 l 1,29,-1
 488 108 l 1,30,-1
 488 0 l 1,31,-1
 320 0 l 1,0,-1
EndSplineSet
Substitution2: "'c2sc' Capitals to Small Capitals lookup 26 subtable" uni0229.sc
Substitution2: "'aalt' Access All Alternates lookup 0 subtable" uni0229.sc
Position2: "'cpsp' Capital Spacing lookup 0 subtable" dx=5 dy=0 dh=10 dv=0
EndChar

StartChar: Eogonek
Encoding: 280 280 89
Width: 528
GlyphClass: 2
Flags: W
AnchorPoint: "Anchor-18" 0 0 basechar 0
AnchorPoint: "Anchor-17" 0 0 basechar 0
AnchorPoint: "Anchor-16" 282 692 basechar 0
AnchorPoint: "Anchor-15" 458 0 basechar 0
AnchorPoint: "Anchor-14" 281 0 basechar 0
LayerCount: 2
Fore
SplineSet
488 108 m 1,0,-1
 488 0 l 1,1,-1
 448 0 l 1,2,3
 328 -46 328 -46 328 -105 c 0,4,5
 328 -151 328 -151 382 -151 c 0,6,7
 411 -151 411 -151 443 -144 c 1,8,-1
 433 -235 l 1,9,10
 396 -242 396 -242 365 -242 c 0,11,12
 302 -242 302 -242 262.5 -211.5 c 128,-1,13
 223 -181 223 -181 223 -130 c 0,14,15
 223 -50 223 -50 309 0 c 1,16,-1
 73 0 l 1,17,-1
 73 692 l 1,18,-1
 486 692 l 1,19,-1
 470 585 l 1,20,-1
 220 585 l 1,21,-1
 220 405 l 1,22,-1
 438 405 l 1,23,-1
 438 299 l 1,24,-1
 220 299 l 1,25,-1
 220 108 l 1,26,-1
 488 108 l 1,0,-1
EndSplineSet
Substitution2: "'c2sc' Capitals to Small Capitals lookup 26 subtable" eogonek.sc
Substitution2: "'aalt' Access All Alternates lookup 0 subtable" eogonek.sc
Position2: "'cpsp' Capital Spacing lookup 0 subtable" dx=5 dy=0 dh=10 dv=0
EndChar

StartChar: uni0190
Encoding: 400 400 90
Width: 536
GlyphClass: 2
Flags: W
AnchorPoint: "Anchor-18" 0 0 basechar 0
AnchorPoint: "Anchor-17" 0 0 basechar 0
AnchorPoint: "Anchor-16" 269 692 basechar 0
AnchorPoint: "Anchor-15" 0 0 basechar 0
AnchorPoint: "Anchor-14" 269 0 basechar 0
LayerCount: 2
Fore
SplineSet
516 618 m 1,1,-1
 443 541 l 1,2,3
 379 599 379 599 304 599 c 0,4,5
 252 599 252 599 228 575 c 128,-1,6
 204 551 204 551 204 512 c 0,7,8
 204 468 204 468 233 443.5 c 128,-1,9
 262 419 262 419 314 419 c 2,10,-1
 387 419 l 1,11,-1
 369 311 l 1,12,-1
 316 311 l 2,13,14
 252 311 252 311 219 283 c 128,-1,15
 186 255 186 255 186 204 c 0,16,17
 186 152 186 152 218.5 123.5 c 128,-1,18
 251 95 251 95 310 95 c 0,19,20
 353 95 353 95 388 111 c 128,-1,21
 423 127 423 127 455 158 c 1,22,-1
 536 81 l 1,23,24
 447 -16 447 -16 297 -16 c 0,25,26
 220 -16 220 -16 159.5 10 c 128,-1,27
 99 36 99 36 65 84.5 c 128,-1,28
 31 133 31 133 31 196 c 0,29,30
 31 272 31 272 77 315.5 c 128,-1,31
 123 359 123 359 202 368 c 1,32,33
 129 384 129 384 90.5 425 c 128,-1,34
 52 466 52 466 52 527 c 0,35,36
 52 579 52 579 81 620 c 128,-1,37
 110 661 110 661 163.5 684.5 c 128,-1,38
 217 708 217 708 288 708 c 0,39,0
 420 708 420 708 516 618 c 1,1,-1
EndSplineSet
Substitution2: "'c2sc' Capitals to Small Capitals lookup 26 subtable" uni025B.sc
Substitution2: "'aalt' Access All Alternates lookup 0 subtable" uni025B.sc
Position2: "'cpsp' Capital Spacing lookup 0 subtable" dx=5 dy=0 dh=10 dv=0
EndChar

StartChar: uni018E
Encoding: 398 398 91
Width: 528
GlyphClass: 2
Flags: W
AnchorPoint: "Anchor-18" 0 0 basechar 0
AnchorPoint: "Anchor-17" 0 0 basechar 0
AnchorPoint: "Anchor-16" 237 692 basechar 0
AnchorPoint: "Anchor-15" 0 0 basechar 0
AnchorPoint: "Anchor-14" 235 0 basechar 0
LayerCount: 2
Fore
SplineSet
46 692 m 1,0,-1
 455 692 l 1,1,-1
 455 0 l 1,2,-1
 40 0 l 1,3,-1
 40 108 l 1,4,-1
 307 108 l 1,5,-1
 307 299 l 1,6,-1
 90 299 l 1,7,-1
 90 405 l 1,8,-1
 307 405 l 1,9,-1
 307 585 l 1,10,-1
 46 585 l 1,11,-1
 46 692 l 1,0,-1
EndSplineSet
Substitution2: "'c2sc' Capitals to Small Capitals lookup 26 subtable" uni0258.sc
Substitution2: "'aalt' Access All Alternates lookup 0 subtable" uni0258.sc
Position2: "'cpsp' Capital Spacing lookup 0 subtable" dx=5 dy=0 dh=10 dv=0
EndChar

StartChar: uni0246
Encoding: 582 582 93
Width: 528
GlyphClass: 2
Flags: W
AnchorPoint: "Anchor-18" 0 0 basechar 0
AnchorPoint: "Anchor-17" 0 0 basechar 0
AnchorPoint: "Anchor-16" 264 692 basechar 0
AnchorPoint: "Anchor-15" 458 0 basechar 0
AnchorPoint: "Anchor-14" 264 0 basechar 0
LayerCount: 2
Fore
SplineSet
488 108 m 1,0,-1
 488 0 l 1,1,-1
 252 0 l 1,2,-1
 233 -73 l 1,3,-1
 178 -60 l 1,4,-1
 194 0 l 1,5,-1
 73 0 l 1,6,-1
 73 692 l 1,7,-1
 378 692 l 1,8,-1
 394 754 l 1,9,-1
 448 741 l 1,10,-1
 435 692 l 1,11,-1
 486 692 l 1,12,-1
 470 585 l 1,13,-1
 407 585 l 1,14,-1
 359 405 l 1,15,-1
 438 405 l 1,16,-1
 438 299 l 1,17,-1
 331 299 l 1,18,-1
 281 108 l 1,19,-1
 488 108 l 1,0,-1
220 585 m 1,20,-1
 220 405 l 1,21,-1
 301 405 l 1,22,-1
 349 585 l 1,23,-1
 220 585 l 1,20,-1
220 108 m 1,24,-1
 223 108 l 1,25,-1
 273 299 l 1,26,-1
 220 299 l 1,27,-1
 220 108 l 1,24,-1
EndSplineSet
Substitution2: "'c2sc' Capitals to Small Capitals lookup 26 subtable" uni0247.sc
Substitution2: "'aalt' Access All Alternates lookup 0 subtable" uni0247.sc
Position2: "'cpsp' Capital Spacing lookup 0 subtable" dx=5 dy=0 dh=10 dv=0
EndChar

StartChar: uni01B7
Encoding: 439 439 95
Width: 539
GlyphClass: 2
Flags: W
AnchorPoint: "Anchor-18" 0 0 basechar 0
AnchorPoint: "Anchor-17" 0 0 basechar 0
AnchorPoint: "Anchor-16" 260 692 basechar 0
AnchorPoint: "Anchor-15" 0 0 basechar 0
AnchorPoint: "Anchor-14" 270 0 basechar 0
LayerCount: 2
Fore
SplineSet
451.5 347 m 128,-1,1
 508 295 508 295 508 204 c 0,2,3
 508 141 508 141 476 91 c 128,-1,4
 444 41 444 41 383 12.5 c 128,-1,5
 322 -16 322 -16 239 -16 c 0,6,7
 160 -16 160 -16 103.5 9 c 128,-1,8
 47 34 47 34 5 84 c 1,9,-1
 82 159 l 1,10,11
 117 125 117 125 151.5 110 c 128,-1,12
 186 95 186 95 232 95 c 0,13,14
 291 95 291 95 323.5 125 c 128,-1,15
 356 155 356 155 356 209 c 0,16,17
 356 264 356 264 322.5 288.5 c 128,-1,18
 289 313 289 313 223 313 c 2,19,-1
 127 313 l 1,20,-1
 127 399 l 1,21,-1
 311 583 l 1,22,-1
 43 583 l 1,23,-1
 43 692 l 1,24,-1
 476 692 l 1,25,-1
 476 586 l 1,26,-1
 289 402 l 1,27,0
 395 399 395 399 451.5 347 c 128,-1,1
EndSplineSet
Substitution2: "'c2sc' Capitals to Small Capitals lookup 26 subtable" uni0292.sc
Substitution2: "'aalt' Access All Alternates lookup 0 subtable" uni0292.sc
Position2: "'cpsp' Capital Spacing lookup 0 subtable" dx=5 dy=0 dh=10 dv=0
EndChar

StartChar: uni01B8
Encoding: 440 440 97
Width: 539
GlyphClass: 2
Flags: W
AnchorPoint: "Anchor-18" 0 0 basechar 0
AnchorPoint: "Anchor-17" 0 0 basechar 0
AnchorPoint: "Anchor-16" 270 692 basechar 0
AnchorPoint: "Anchor-15" 0 0 basechar 0
AnchorPoint: "Anchor-14" 270 0 basechar 0
LayerCount: 2
Fore
SplineSet
534 84 m 1,0,1
 491 34 491 34 433.5 9 c 128,-1,2
 376 -16 376 -16 293 -16 c 0,3,4
 214 -16 214 -16 154.5 11.5 c 128,-1,5
 95 39 95 39 63 88.5 c 128,-1,6
 31 138 31 138 31 200 c 0,7,8
 31 289 31 289 89.5 343.5 c 128,-1,9
 148 398 148 398 250 402 c 1,10,-1
 63 586 l 1,11,-1
 63 692 l 1,12,-1
 496 692 l 1,13,-1
 496 583 l 1,14,-1
 229 583 l 1,15,-1
 412 397 l 1,16,-1
 412 313 l 1,17,-1
 316 313 l 2,18,19
 250 313 250 313 216.5 284.5 c 128,-1,20
 183 256 183 256 183 202 c 0,21,22
 183 153 183 153 214.5 124 c 128,-1,23
 246 95 246 95 301 95 c 0,24,25
 350 95 350 95 386.5 110 c 128,-1,26
 423 125 423 125 457 159 c 1,27,-1
 534 84 l 1,0,1
EndSplineSet
Substitution2: "'c2sc' Capitals to Small Capitals lookup 26 subtable" uni01B9.sc
Substitution2: "'aalt' Access All Alternates lookup 0 subtable" uni01B9.sc
Position2: "'cpsp' Capital Spacing lookup 0 subtable" dx=5 dy=0 dh=10 dv=0
EndChar

StartChar: F
Encoding: 70 70 98
Width: 488
GlyphClass: 2
Flags: W
AnchorPoint: "Anchor-18" 0 0 basechar 0
AnchorPoint: "Anchor-17" 0 0 basechar 0
AnchorPoint: "Anchor-16" 284 692 basechar 0
AnchorPoint: "Anchor-15" 0 0 basechar 0
AnchorPoint: "Anchor-14" 147 0 basechar 0
LayerCount: 2
Fore
SplineSet
73 0 m 1,0,-1
 73 692 l 1,1,-1
 475 692 l 1,2,-1
 459 585 l 1,3,-1
 220 585 l 1,4,-1
 220 389 l 1,5,-1
 428 389 l 1,6,-1
 428 282 l 1,7,-1
 220 282 l 1,8,-1
 220 0 l 1,9,-1
 73 0 l 1,0,-1
EndSplineSet
Substitution2: "'c2sc' Capitals to Small Capitals lookup 26 subtable" f.sc
Substitution2: "'aalt' Access All Alternates lookup 0 subtable" f.sc
Position2: "'cpsp' Capital Spacing lookup 0 subtable" dx=5 dy=0 dh=10 dv=0
EndChar

StartChar: uni0191
Encoding: 401 401 100
Width: 488
GlyphClass: 2
Flags: W
AnchorPoint: "Anchor-18" 0 0 basechar 0
AnchorPoint: "Anchor-17" 0 0 basechar 0
AnchorPoint: "Anchor-16" 284 692 basechar 0
AnchorPoint: "Anchor-15" 0 0 basechar 0
AnchorPoint: "Anchor-14" 147 0 basechar 0
LayerCount: 2
Fore
SplineSet
220 585 m 1,0,-1
 220 389 l 1,1,-1
 428 389 l 1,2,-1
 428 282 l 1,3,-1
 220 282 l 1,4,-1
 220 1 l 1,5,-1
 221 1 l 1,6,-1
 221 -38 l 2,7,8
 221 -127 221 -127 170.5 -173.5 c 128,-1,9
 120 -220 120 -220 32 -220 c 0,10,11
 -48 -220 -48 -220 -103 -178 c 1,12,-1
 -53 -90 l 1,13,14
 -33 -101 -33 -101 -18.5 -106 c 128,-1,15
 -4 -111 -4 -111 17 -111 c 0,16,17
 73 -111 73 -111 73 -47 c 2,18,-1
 73 692 l 1,19,-1
 475 692 l 1,20,-1
 459 585 l 1,21,-1
 220 585 l 1,0,-1
EndSplineSet
Substitution2: "'c2sc' Capitals to Small Capitals lookup 26 subtable" uni0191.sc
Substitution2: "'aalt' Access All Alternates lookup 0 subtable" uni0191.sc
Position2: "'cpsp' Capital Spacing lookup 0 subtable" dx=5 dy=0 dh=10 dv=0
EndChar

StartChar: G
Encoding: 71 71 101
Width: 641
GlyphClass: 2
Flags: W
AnchorPoint: "Anchor-18" 0 0 basechar 0
AnchorPoint: "Anchor-17" 0 0 basechar 0
AnchorPoint: "Anchor-16" 353 692 basechar 0
AnchorPoint: "Anchor-15" 0 0 basechar 0
AnchorPoint: "Anchor-14" 346 0 basechar 0
LayerCount: 2
Fore
SplineSet
486.5 686.5 m 128,-1,1
 541 665 541 665 588 625 c 1,2,-1
 511 545 l 1,3,4
 474 573 474 573 441.5 586 c 128,-1,5
 409 599 409 599 368 599 c 0,6,7
 289 599 289 599 240.5 536.5 c 128,-1,8
 192 474 192 474 192 346 c 0,9,10
 192 211 192 211 229.5 152.5 c 128,-1,11
 267 94 267 94 346 94 c 0,12,13
 403 94 403 94 449 119 c 1,14,-1
 449 288 l 1,15,-1
 352 288 l 1,16,-1
 337 395 l 1,17,-1
 592 395 l 1,18,-1
 592 54 l 1,19,20
 538 21 538 21 475.5 2.5 c 128,-1,21
 413 -16 413 -16 349 -16 c 0,22,23
 196 -16 196 -16 117 76 c 128,-1,24
 38 168 38 168 38 347 c 0,25,26
 38 460 38 460 81 542 c 128,-1,27
 124 624 124 624 197.5 666 c 128,-1,28
 271 708 271 708 362 708 c 0,29,0
 432 708 432 708 486.5 686.5 c 128,-1,1
EndSplineSet
Substitution2: "'c2sc' Capitals to Small Capitals lookup 26 subtable" g.sc
Substitution2: "'aalt' Access All Alternates lookup 0 subtable" g.sc
Position2: "'cpsp' Capital Spacing lookup 0 subtable" dx=5 dy=0 dh=10 dv=0
EndChar

StartChar: uni0194
Encoding: 404 404 103
Width: 566
GlyphClass: 2
Flags: W
AnchorPoint: "Anchor-18" 0 0 basechar 0
AnchorPoint: "Anchor-17" 0 0 basechar 0
AnchorPoint: "Anchor-16" 283 692 basechar 0
AnchorPoint: "Anchor-15" 0 0 basechar 0
AnchorPoint: "Anchor-14" 283 -208 basechar 0
LayerCount: 2
Fore
SplineSet
363 86 m 1,0,1
 398 27 398 27 413.5 -15 c 128,-1,2
 429 -57 429 -57 429 -101 c 0,3,4
 429 -157 429 -157 393.5 -188.5 c 128,-1,5
 358 -220 358 -220 285 -220 c 0,6,7
 213 -220 213 -220 177 -188.5 c 128,-1,8
 141 -157 141 -157 141 -101 c 0,9,10
 141 -62 141 -62 156.5 -21 c 128,-1,11
 172 20 172 20 208 86 c 1,12,-1
 -9 692 l 1,13,-1
 148 692 l 1,14,-1
 286 183 l 1,15,-1
 424 692 l 1,16,-1
 574 692 l 1,17,-1
 363 86 l 1,0,1
307.5 -49.5 m 128,-1,19
 300 -27 300 -27 285 7 c 1,20,21
 270 -26 270 -26 262.5 -49.5 c 128,-1,22
 255 -73 255 -73 255 -91 c 0,23,24
 255 -107 255 -107 263 -115.5 c 128,-1,25
 271 -124 271 -124 285 -124 c 0,26,27
 315 -124 315 -124 315 -91 c 0,28,18
 315 -72 315 -72 307.5 -49.5 c 128,-1,19
EndSplineSet
Substitution2: "'c2sc' Capitals to Small Capitals lookup 26 subtable" uni0194.sc
Substitution2: "'aalt' Access All Alternates lookup 0 subtable" uni0194.sc
Position2: "'cpsp' Capital Spacing lookup 0 subtable" dx=5 dy=0 dh=10 dv=0
EndChar

StartChar: uni0193
Encoding: 403 403 109
Width: 606
GlyphClass: 2
Flags: W
AnchorPoint: "Anchor-18" 0 0 basechar 0
AnchorPoint: "Anchor-17" 0 0 basechar 0
AnchorPoint: "Anchor-16" 294 715 basechar 0
AnchorPoint: "Anchor-15" 0 0 basechar 0
AnchorPoint: "Anchor-14" 303 0 basechar 0
LayerCount: 2
Fore
SplineSet
755 809 m 1,1,-1
 712 720 l 1,2,3
 693 731 693 731 677.5 736 c 128,-1,4
 662 741 662 741 642 741 c 0,5,6
 588 741 588 741 588 676 c 2,7,-1
 588 625 l 1,8,-1
 518 552 l 1,9,10
 479 575 479 575 443.5 587 c 128,-1,11
 408 599 408 599 368 599 c 0,12,13
 289 599 289 599 240.5 536.5 c 128,-1,14
 192 474 192 474 192 346 c 0,15,16
 192 211 192 211 229.5 152.5 c 128,-1,17
 267 94 267 94 346 94 c 0,18,19
 403 94 403 94 449 119 c 1,20,-1
 449 288 l 1,21,-1
 352 288 l 1,22,-1
 337 395 l 1,23,-1
 592 395 l 1,24,-1
 592 54 l 1,25,26
 539 21 539 21 476 2.5 c 128,-1,27
 413 -16 413 -16 345 -16 c 0,28,29
 195 -16 195 -16 116.5 76.5 c 128,-1,30
 38 169 38 169 38 347 c 0,31,32
 38 459 38 459 80.5 541 c 128,-1,33
 123 623 123 623 193.5 665.5 c 128,-1,34
 264 708 264 708 345 708 c 0,35,36
 409 708 409 708 460 685 c 1,37,38
 462 762 462 762 503.5 804.5 c 128,-1,39
 545 847 545 847 625 847 c 0,40,0
 700 847 700 847 755 809 c 1,1,-1
EndSplineSet
Substitution2: "'c2sc' Capitals to Small Capitals lookup 26 subtable" uni0260.sc
Substitution2: "'aalt' Access All Alternates lookup 0 subtable" uni0260.sc
Position2: "'cpsp' Capital Spacing lookup 0 subtable" dx=5 dy=0 dh=10 dv=0
EndChar

StartChar: uni0241
Encoding: 577 577 110
Width: 499
GlyphClass: 2
Flags: W
AnchorPoint: "Anchor-18" 0 0 basechar 0
AnchorPoint: "Anchor-17" 0 0 basechar 0
AnchorPoint: "Anchor-16" 249 692 basechar 0
AnchorPoint: "Anchor-15" 0 0 basechar 0
AnchorPoint: "Anchor-14" 222 0 basechar 0
LayerCount: 2
Fore
SplineSet
148 327 m 1,0,-1
 207 344 l 2,1,2
 269 361 269 361 297.5 393 c 128,-1,3
 326 425 326 425 326 485 c 0,4,5
 326 538 326 538 298 568.5 c 128,-1,6
 270 599 270 599 220 599 c 0,7,8
 182 599 182 599 148 585 c 128,-1,9
 114 571 114 571 78 541 c 1,10,-1
 5 618 l 1,11,12
 55 663 55 663 111.5 685.5 c 128,-1,13
 168 708 168 708 237 708 c 0,14,15
 310 708 310 708 365 681 c 128,-1,16
 420 654 420 654 449.5 605 c 128,-1,17
 479 556 479 556 479 492 c 0,18,19
 479 407 479 407 437.5 360.5 c 128,-1,20
 396 314 396 314 319 286 c 2,21,-1
 295 277 l 1,22,-1
 295 0 l 1,23,-1
 148 0 l 1,24,-1
 148 327 l 1,0,-1
EndSplineSet
Substitution2: "'c2sc' Capitals to Small Capitals lookup 26 subtable" uni0294.sc
Substitution2: "'aalt' Access All Alternates lookup 0 subtable" uni0294.sc
Position2: "'cpsp' Capital Spacing lookup 0 subtable" dx=5 dy=0 dh=10 dv=0
EndChar

StartChar: uni01E4
Encoding: 484 484 111
Width: 659
GlyphClass: 2
Flags: W
AnchorPoint: "Anchor-18" 0 0 basechar 0
AnchorPoint: "Anchor-17" 0 0 basechar 0
AnchorPoint: "Anchor-16" 335 692 basechar 0
AnchorPoint: "Anchor-15" 0 0 basechar 0
AnchorPoint: "Anchor-14" 335 0 basechar 0
LayerCount: 2
Fore
SplineSet
657 174 m 1,0,-1
 592 174 l 1,1,-1
 592 54 l 1,2,3
 539 21 539 21 476.5 2.5 c 128,-1,4
 414 -16 414 -16 348 -16 c 0,5,6
 196 -16 196 -16 117 76.5 c 128,-1,7
 38 169 38 169 38 347 c 0,8,9
 38 460 38 460 81 542 c 128,-1,10
 124 624 124 624 197.5 666 c 128,-1,11
 271 708 271 708 361 708 c 0,12,13
 432 708 432 708 486 686.5 c 128,-1,14
 540 665 540 665 588 625 c 1,15,-1
 512 545 l 1,16,17
 474 573 474 573 441.5 586 c 128,-1,18
 409 599 409 599 368 599 c 0,19,20
 289 599 289 599 240.5 536.5 c 128,-1,21
 192 474 192 474 192 346 c 0,22,23
 192 211 192 211 229.5 152.5 c 128,-1,24
 267 94 267 94 346 94 c 0,25,26
 403 94 403 94 458 118 c 1,27,-1
 458 174 l 1,28,-1
 347 174 l 1,29,-1
 347 265 l 1,30,-1
 458 265 l 1,31,-1
 458 312 l 1,32,-1
 350 312 l 1,33,-1
 337 407 l 1,34,-1
 592 407 l 1,35,-1
 592 265 l 1,36,-1
 657 265 l 1,37,-1
 657 174 l 1,0,-1
EndSplineSet
Substitution2: "'c2sc' Capitals to Small Capitals lookup 26 subtable" uni01E5.sc
Substitution2: "'aalt' Access All Alternates lookup 0 subtable" uni01E5.sc
Position2: "'cpsp' Capital Spacing lookup 0 subtable" dx=5 dy=0 dh=10 dv=0
EndChar

StartChar: uni021C
Encoding: 540 540 112
Width: 516
GlyphClass: 2
Flags: W
AnchorPoint: "Anchor-18" 0 0 basechar 0
AnchorPoint: "Anchor-17" 0 0 basechar 0
AnchorPoint: "Anchor-16" 258 692 basechar 0
AnchorPoint: "Anchor-15" 0 0 basechar 0
AnchorPoint: "Anchor-14" 258 -208 basechar 0
LayerCount: 2
Fore
SplineSet
357 684 m 128,-1,1
 409 660 409 660 436.5 618 c 128,-1,2
 464 576 464 576 464 522 c 0,3,4
 464 457 464 457 426 415.5 c 128,-1,5
 388 374 388 374 314 358 c 1,6,7
 395 349 395 349 440 309.5 c 128,-1,8
 485 270 485 270 485 195 c 0,9,10
 485 89 485 89 384 9 c 128,-1,11
 283 -71 283 -71 68 -110 c 1,12,-1
 56 1 l 1,13,14
 164 27 164 27 224 57.5 c 128,-1,15
 284 88 284 88 307.5 122.5 c 128,-1,16
 331 157 331 157 331 201 c 0,17,18
 331 301 331 301 200 301 c 2,19,-1
 129 301 l 1,20,-1
 146 409 l 1,21,-1
 202 409 l 2,22,23
 254 409 254 409 283 434.5 c 128,-1,24
 312 460 312 460 312 507 c 0,25,26
 312 549 312 549 288.5 574 c 128,-1,27
 265 599 265 599 215 599 c 0,28,29
 143 599 143 599 70 541 c 1,30,-1
 1 618 l 1,31,32
 99 708 99 708 234 708 c 0,33,0
 305 708 305 708 357 684 c 128,-1,1
EndSplineSet
Substitution2: "'c2sc' Capitals to Small Capitals lookup 26 subtable" uni021D.sc
Substitution2: "'aalt' Access All Alternates lookup 0 subtable" uni021D.sc
Position2: "'cpsp' Capital Spacing lookup 0 subtable" dx=5 dy=0 dh=10 dv=0
EndChar

StartChar: H
Encoding: 72 72 113
Width: 669
GlyphClass: 2
Flags: W
AnchorPoint: "Anchor-18" 335 346 basechar 0
AnchorPoint: "Anchor-17" 0 0 basechar 0
AnchorPoint: "Anchor-16" 335 692 basechar 0
AnchorPoint: "Anchor-15" 0 0 basechar 0
AnchorPoint: "Anchor-14" 335 0 basechar 0
LayerCount: 2
Fore
SplineSet
449 0 m 1,0,-1
 449 303 l 1,1,-1
 220 303 l 1,2,-1
 220 0 l 1,3,-1
 73 0 l 1,4,-1
 73 692 l 1,5,-1
 220 692 l 1,6,-1
 220 419 l 1,7,-1
 449 419 l 1,8,-1
 449 692 l 1,9,-1
 596 692 l 1,10,-1
 596 0 l 1,11,-1
 449 0 l 1,0,-1
EndSplineSet
Substitution2: "'c2sc' Capitals to Small Capitals lookup 26 subtable" h.sc
Substitution2: "'aalt' Access All Alternates lookup 0 subtable" h.sc
Position2: "'cpsp' Capital Spacing lookup 0 subtable" dx=5 dy=0 dh=10 dv=0
EndChar

StartChar: Hbar
Encoding: 294 294 114
Width: 680
GlyphClass: 2
Flags: W
AnchorPoint: "Anchor-18" 340 346 basechar 0
AnchorPoint: "Anchor-17" 0 0 basechar 0
AnchorPoint: "Anchor-16" 340 692 basechar 0
AnchorPoint: "Anchor-15" 0 0 basechar 0
AnchorPoint: "Anchor-14" 340 0 basechar 0
LayerCount: 2
Fore
SplineSet
661 588 m 1,0,-1
 661 502 l 1,1,-1
 601 502 l 1,2,-1
 601 0 l 1,3,-1
 454 0 l 1,4,-1
 454 303 l 1,5,-1
 225 303 l 1,6,-1
 225 0 l 1,7,-1
 78 0 l 1,8,-1
 78 502 l 1,9,-1
 18 502 l 1,10,-1
 18 588 l 1,11,-1
 78 588 l 1,12,-1
 78 692 l 1,13,-1
 225 692 l 1,14,-1
 225 588 l 1,15,-1
 454 588 l 1,16,-1
 454 692 l 1,17,-1
 601 692 l 1,18,-1
 601 588 l 1,19,-1
 661 588 l 1,0,-1
454 419 m 1,20,-1
 454 502 l 1,21,-1
 225 502 l 1,22,-1
 225 419 l 1,23,-1
 454 419 l 1,20,-1
EndSplineSet
Substitution2: "'c2sc' Capitals to Small Capitals lookup 26 subtable" hbar.sc
Substitution2: "'aalt' Access All Alternates lookup 0 subtable" hbar.sc
Position2: "'cpsp' Capital Spacing lookup 0 subtable" dx=5 dy=0 dh=10 dv=0
EndChar

StartChar: uniA7AA
Encoding: 42922 42922 118
Width: 796
GlyphClass: 2
Flags: W
AnchorPoint: "Anchor-18" 462 346 basechar 0
AnchorPoint: "Anchor-17" 0 0 basechar 0
AnchorPoint: "Anchor-16" 462 692 basechar 0
AnchorPoint: "Anchor-15" 0 0 basechar 0
AnchorPoint: "Anchor-14" 462 0 basechar 0
LayerCount: 2
Fore
SplineSet
723 692 m 1,0,-1
 723 0 l 1,1,-1
 576 0 l 1,2,-1
 576 303 l 1,3,-1
 347 303 l 1,4,-1
 347 0 l 1,5,-1
 200 0 l 1,6,-1
 200 585 l 1,7,-1
 172 585 l 2,8,9
 124 585 124 585 124 541 c 0,10,11
 124 525 124 525 128 510.5 c 128,-1,12
 132 496 132 496 140 474 c 1,13,-1
 49 433 l 1,14,15
 29 463 29 463 17 490.5 c 128,-1,16
 5 518 5 518 5 550 c 0,17,18
 5 616 5 616 52 654 c 128,-1,19
 99 692 99 692 180 692 c 2,20,-1
 347 692 l 1,21,-1
 347 419 l 1,22,-1
 576 419 l 1,23,-1
 576 692 l 1,24,-1
 723 692 l 1,0,-1
EndSplineSet
Substitution2: "'c2sc' Capitals to Small Capitals lookup 26 subtable" uniA7AA.sc
Substitution2: "'aalt' Access All Alternates lookup 0 subtable" uniA7AA.sc
Position2: "'cpsp' Capital Spacing lookup 0 subtable" dx=5 dy=0 dh=10 dv=0
EndChar

StartChar: uniA78D.ss02
Encoding: 65539 -1 120
Width: 599
GlyphClass: 2
Flags: W
AnchorPoint: "Anchor-18" 0 0 basechar 0
AnchorPoint: "Anchor-17" 0 0 basechar 0
AnchorPoint: "Anchor-16" 299 692 basechar 0
AnchorPoint: "Anchor-15" 0 0 basechar 0
AnchorPoint: "Anchor-14" 299 0 basechar 0
LayerCount: 2
Fore
SplineSet
378 0 m 1,0,-1
 378 251 l 1,1,-1
 31 250 l 1,2,-1
 31 692 l 1,3,-1
 178 692 l 1,4,-1
 178 366 l 1,5,-1
 378 366 l 1,6,-1
 378 692 l 1,7,-1
 526 692 l 1,8,-1
 526 0 l 1,9,-1
 378 0 l 1,0,-1
EndSplineSet
Position2: "'cpsp' Capital Spacing lookup 0 subtable" dx=5 dy=0 dh=10 dv=0
EndChar

StartChar: uni01F6
Encoding: 502 502 121
Width: 955
GlyphClass: 2
Flags: W
AnchorPoint: "Anchor-18" 0 0 basechar 0
AnchorPoint: "Anchor-17" 0 0 basechar 0
AnchorPoint: "Anchor-16" 478 692 basechar 0
AnchorPoint: "Anchor-15" 0 0 basechar 0
AnchorPoint: "Anchor-14" 478 0 basechar 0
LayerCount: 2
Fore
SplineSet
907 250 m 0,1,2
 907 160 907 160 871 100 c 128,-1,3
 835 40 835 40 777.5 12 c 128,-1,4
 720 -16 720 -16 654 -16 c 0,5,6
 565 -16 565 -16 507 33 c 128,-1,7
 449 82 449 82 449 176 c 2,8,-1
 449 303 l 1,9,-1
 220 303 l 1,10,-1
 220 0 l 1,11,-1
 73 0 l 1,12,-1
 73 692 l 1,13,-1
 220 692 l 1,14,-1
 220 419 l 1,15,-1
 449 419 l 1,16,-1
 449 692 l 1,17,-1
 596 692 l 1,18,-1
 596 180 l 2,19,20
 596 90 596 90 663 90 c 0,21,22
 705 90 705 90 734.5 130.5 c 128,-1,23
 764 171 764 171 764 261 c 0,24,25
 764 386 764 386 738 530 c 1,26,-1
 878 530 l 1,27,0
 907 381 907 381 907 250 c 0,1,2
EndSplineSet
Substitution2: "'c2sc' Capitals to Small Capitals lookup 26 subtable" uni01F6.sc
Substitution2: "'aalt' Access All Alternates lookup 0 subtable" uni01F6.sc
Position2: "'cpsp' Capital Spacing lookup 0 subtable" dx=5 dy=0 dh=10 dv=0
EndChar

StartChar: I
Encoding: 73 73 122
Width: 294
GlyphClass: 2
Flags: W
AnchorPoint: "Anchor-18" 0 0 basechar 0
AnchorPoint: "Anchor-17" 0 0 basechar 0
AnchorPoint: "Anchor-16" 147 692 basechar 0
AnchorPoint: "Anchor-15" 209 0 basechar 0
AnchorPoint: "Anchor-14" 147 0 basechar 0
LayerCount: 2
Fore
SplineSet
220 692 m 1,0,-1
 220 0 l 1,1,-1
 73 0 l 1,2,-1
 73 692 l 1,3,-1
 220 692 l 1,0,-1
EndSplineSet
Substitution2: "'c2sc' Capitals to Small Capitals lookup 26 subtable" i.sc
Substitution2: "'aalt' Access All Alternates lookup 0 subtable" i.sc
Position2: "'cpsp' Capital Spacing lookup 0 subtable" dx=5 dy=0 dh=10 dv=0
EndChar

StartChar: Iogonek
Encoding: 302 302 137
Width: 294
GlyphClass: 2
Flags: W
AnchorPoint: "Anchor-18" 0 0 basechar 0
AnchorPoint: "Anchor-17" 0 0 basechar 0
AnchorPoint: "Anchor-16" 147 692 basechar 0
AnchorPoint: "Anchor-15" 209 0 basechar 0
AnchorPoint: "Anchor-14" 147 0 basechar 0
LayerCount: 2
Fore
SplineSet
220 692 m 1,0,-1
 220 0 l 1,1,-1
 199 0 l 1,2,3
 79 -46 79 -46 79 -105 c 0,4,5
 79 -151 79 -151 133 -151 c 0,6,7
 162 -151 162 -151 194 -144 c 1,8,-1
 184 -235 l 1,9,10
 147 -242 147 -242 116 -242 c 0,11,12
 53 -242 53 -242 13.5 -211.5 c 128,-1,13
 -26 -181 -26 -181 -26 -130 c 0,14,15
 -26 -86 -26 -86 -1 -52.5 c 128,-1,16
 24 -19 24 -19 73 7 c 1,17,-1
 73 692 l 1,18,-1
 220 692 l 1,0,-1
EndSplineSet
Substitution2: "'c2sc' Capitals to Small Capitals lookup 26 subtable" iogonek.sc
Substitution2: "'aalt' Access All Alternates lookup 0 subtable" iogonek.sc
Position2: "'cpsp' Capital Spacing lookup 0 subtable" dx=5 dy=0 dh=10 dv=0
EndChar

StartChar: uni0196
Encoding: 406 406 138
Width: 385
GlyphClass: 2
Flags: W
AnchorPoint: "Anchor-18" 0 0 basechar 0
AnchorPoint: "Anchor-17" 0 0 basechar 0
AnchorPoint: "Anchor-16" 137 692 basechar 0
AnchorPoint: "Anchor-15" 0 0 basechar 0
AnchorPoint: "Anchor-14" 208 0 basechar 0
LayerCount: 2
Fore
SplineSet
387 26 m 1,0,1
 332 -16 332 -16 252 -16 c 0,2,3
 164 -16 164 -16 113.5 30.5 c 128,-1,4
 63 77 63 77 63 166 c 2,5,-1
 63 692 l 1,6,-1
 210 692 l 1,7,-1
 210 205 l 1,8,-1
 211 205 l 1,9,-1
 211 157 l 2,10,11
 211 93 211 93 267 93 c 0,12,13
 288 93 288 93 302.5 98 c 128,-1,14
 317 103 317 103 337 114 c 1,15,-1
 387 26 l 1,0,1
EndSplineSet
Substitution2: "'c2sc' Capitals to Small Capitals lookup 26 subtable" uni0196.sc
Substitution2: "'aalt' Access All Alternates lookup 0 subtable" uni0196.sc
Position2: "'cpsp' Capital Spacing lookup 0 subtable" dx=5 dy=0 dh=10 dv=0
EndChar

StartChar: uni0197
Encoding: 407 407 139
Width: 326
GlyphClass: 2
Flags: W
AnchorPoint: "Anchor-18" 0 0 basechar 0
AnchorPoint: "Anchor-17" 0 0 basechar 0
AnchorPoint: "Anchor-16" 163 692 basechar 0
AnchorPoint: "Anchor-15" 225 0 basechar 0
AnchorPoint: "Anchor-14" 163 0 basechar 0
LayerCount: 2
Fore
SplineSet
318 414 m 1,0,-1
 318 305 l 1,1,-1
 236 305 l 1,2,-1
 236 0 l 1,3,-1
 89 0 l 1,4,-1
 89 305 l 1,5,-1
 8 305 l 1,6,-1
 8 414 l 1,7,-1
 89 414 l 1,8,-1
 89 692 l 1,9,-1
 236 692 l 1,10,-1
 236 414 l 1,11,-1
 318 414 l 1,0,-1
EndSplineSet
Substitution2: "'c2sc' Capitals to Small Capitals lookup 26 subtable" uni0268.sc
Substitution2: "'aalt' Access All Alternates lookup 0 subtable" uni0268.sc
Position2: "'cpsp' Capital Spacing lookup 0 subtable" dx=5 dy=0 dh=10 dv=0
EndChar

StartChar: J
Encoding: 74 74 141
Width: 314
GlyphClass: 2
Flags: W
AnchorPoint: "Anchor-18" 0 0 basechar 0
AnchorPoint: "Anchor-17" 0 0 basechar 0
AnchorPoint: "Anchor-16" 171 692 basechar 0
AnchorPoint: "Anchor-15" 0 0 basechar 0
AnchorPoint: "Anchor-14" 157 -208 basechar 0
LayerCount: 2
Fore
SplineSet
245 103 m 2,0,1
 245 23 245 23 217.5 -29 c 128,-1,2
 190 -81 190 -81 144 -110.5 c 128,-1,3
 98 -140 98 -140 32 -162 c 1,4,-1
 -7 -57 l 1,5,6
 37 -40 37 -40 59.5 -18 c 128,-1,7
 82 4 82 4 90 33 c 128,-1,8
 98 62 98 62 98 108 c 2,9,-1
 98 692 l 1,10,-1
 245 692 l 1,11,-1
 245 103 l 2,0,1
EndSplineSet
Substitution2: "'c2sc' Capitals to Small Capitals lookup 26 subtable" j.sc
Substitution2: "'aalt' Access All Alternates lookup 0 subtable" j.sc
Position2: "'cpsp' Capital Spacing lookup 0 subtable" dx=5 dy=0 dh=10 dv=0
EndChar

StartChar: uniA7B2
Encoding: 42930 42930 143
Width: 348
GlyphClass: 2
Flags: W
AnchorPoint: "Anchor-18" 0 0 basechar 0
AnchorPoint: "Anchor-17" 0 0 basechar 0
AnchorPoint: "Anchor-16" 201 692 basechar 0
AnchorPoint: "Anchor-15" 0 0 basechar 0
AnchorPoint: "Anchor-14" 174 -208 basechar 0
LayerCount: 2
Fore
SplineSet
357 -107 m 1,0,1
 314 -88 314 -88 265 -74 c 1,2,3
 227 -220 227 -220 62 -220 c 0,4,5
 -9 -220 -9 -220 -48 -188.5 c 128,-1,6
 -87 -157 -87 -157 -87 -104 c 0,7,8
 -87 -43 -87 -43 -43.5 -10.5 c 128,-1,9
 0 22 0 22 82 22 c 0,10,11
 103 22 103 22 127 20 c 1,12,-1
 127 692 l 1,13,-1
 275 692 l 1,14,-1
 275 21 l 2,15,16
 275 5 275 5 274 -3 c 1,17,18
 330 -18 330 -18 384 -45 c 1,19,-1
 357 -107 l 1,0,1
108.5 -120.5 m 128,-1,21
 124 -100 124 -100 126 -53 c 1,22,23
 110 -50 110 -50 82 -50 c 0,24,25
 42 -50 42 -50 23.5 -62 c 128,-1,26
 5 -74 5 -74 5 -100 c 0,27,28
 5 -141 5 -141 57 -141 c 0,29,20
 93 -141 93 -141 108.5 -120.5 c 128,-1,21
EndSplineSet
Substitution2: "'c2sc' Capitals to Small Capitals lookup 26 subtable" uniA7B2.sc
Substitution2: "'aalt' Access All Alternates lookup 0 subtable" uniA7B2.sc
Position2: "'cpsp' Capital Spacing lookup 0 subtable" dx=5 dy=0 dh=10 dv=0
EndChar

StartChar: uni0248
Encoding: 584 584 144
Width: 331
GlyphClass: 2
Flags: W
AnchorPoint: "Anchor-18" 0 0 basechar 0
AnchorPoint: "Anchor-17" 0 0 basechar 0
AnchorPoint: "Anchor-16" 171 692 basechar 0
AnchorPoint: "Anchor-15" 0 0 basechar 0
AnchorPoint: "Anchor-14" 157 -208 basechar 0
LayerCount: 2
Fore
SplineSet
326 287 m 1,0,-1
 245 287 l 1,1,-1
 245 103 l 2,2,3
 245 23 245 23 217.5 -29 c 128,-1,4
 190 -81 190 -81 144 -110.5 c 128,-1,5
 98 -140 98 -140 32 -162 c 1,6,-1
 -7 -57 l 1,7,8
 37 -40 37 -40 59.5 -18 c 128,-1,9
 82 4 82 4 90 33 c 128,-1,10
 98 62 98 62 98 108 c 2,11,-1
 98 287 l 1,12,-1
 16 287 l 1,13,-1
 16 399 l 1,14,-1
 98 399 l 1,15,-1
 98 692 l 1,16,-1
 245 692 l 1,17,-1
 245 399 l 1,18,-1
 326 399 l 1,19,-1
 326 287 l 1,0,-1
EndSplineSet
Substitution2: "'c2sc' Capitals to Small Capitals lookup 26 subtable" uni0249.sc
Substitution2: "'aalt' Access All Alternates lookup 0 subtable" uni0249.sc
Position2: "'cpsp' Capital Spacing lookup 0 subtable" dx=5 dy=0 dh=10 dv=0
EndChar

StartChar: K
Encoding: 75 75 145
Width: 622
GlyphClass: 2
Flags: W
AnchorPoint: "Anchor-18" 0 0 basechar 0
AnchorPoint: "Anchor-17" 0 0 basechar 0
AnchorPoint: "Anchor-16" 329 692 basechar 0
AnchorPoint: "Anchor-15" 0 0 basechar 0
AnchorPoint: "Anchor-14" 322 0 basechar 0
LayerCount: 2
Fore
SplineSet
220 692 m 1,0,-1
 220 0 l 1,1,-1
 73 0 l 1,2,-1
 73 692 l 1,3,-1
 220 692 l 1,0,-1
613 692 m 1,4,-1
 382 380 l 1,5,-1
 631 0 l 1,6,-1
 459 0 l 1,7,-1
 226 369 l 1,8,-1
 456 692 l 1,9,-1
 613 692 l 1,4,-1
EndSplineSet
Substitution2: "'c2sc' Capitals to Small Capitals lookup 26 subtable" k.sc
Substitution2: "'aalt' Access All Alternates lookup 0 subtable" k.sc
Position2: "'cpsp' Capital Spacing lookup 0 subtable" dx=5 dy=0 dh=10 dv=0
EndChar

StartChar: uni0198
Encoding: 408 408 148
Width: 644
GlyphClass: 2
Flags: W
AnchorPoint: "Anchor-18" 0 0 basechar 0
AnchorPoint: "Anchor-17" 0 0 basechar 0
AnchorPoint: "Anchor-16" 322 692 basechar 0
AnchorPoint: "Anchor-15" 0 0 basechar 0
AnchorPoint: "Anchor-14" 322 0 basechar 0
LayerCount: 2
Fore
SplineSet
226 369 m 1,0,-1
 372 596 l 2,1,2
 411 658 411 658 448 683 c 128,-1,3
 485 708 485 708 544 708 c 0,4,5
 608 708 608 708 654 671 c 1,6,-1
 613 586 l 1,7,8
 589 600 589 600 563 600 c 0,9,10
 541 600 541 600 526 589.5 c 128,-1,11
 511 579 511 579 489 547 c 2,12,-1
 382 380 l 1,13,-1
 631 0 l 1,14,-1
 459 0 l 1,15,-1
 226 369 l 1,0,-1
220 692 m 1,16,-1
 220 0 l 1,17,-1
 73 0 l 1,18,-1
 73 692 l 1,19,-1
 220 692 l 1,16,-1
EndSplineSet
Substitution2: "'c2sc' Capitals to Small Capitals lookup 26 subtable" uni0199.sc
Substitution2: "'aalt' Access All Alternates lookup 0 subtable" uni0199.sc
Position2: "'cpsp' Capital Spacing lookup 0 subtable" dx=5 dy=0 dh=10 dv=0
EndChar

StartChar: L
Encoding: 76 76 149
Width: 509
GlyphClass: 2
Flags: W
AnchorPoint: "Anchor-18" 396 397 basechar 0
AnchorPoint: "Anchor-17" 236 692 basechar 0
AnchorPoint: "Anchor-16" 147 692 basechar 0
AnchorPoint: "Anchor-15" 0 0 basechar 0
AnchorPoint: "Anchor-14" 276 0 basechar 0
LayerCount: 2
Fore
SplineSet
220 692 m 1,0,-1
 220 118 l 1,1,-1
 494 118 l 1,2,-1
 478 0 l 1,3,-1
 73 0 l 1,4,-1
 73 692 l 1,5,-1
 220 692 l 1,0,-1
EndSplineSet
Substitution2: "'c2sc' Capitals to Small Capitals lookup 26 subtable" l.sc
Substitution2: "'aalt' Access All Alternates lookup 0 subtable" l.sc
Position2: "'cpsp' Capital Spacing lookup 0 subtable" dx=5 dy=0 dh=10 dv=0
EndChar

StartChar: uni023D
Encoding: 573 573 152
Width: 524
GlyphClass: 2
Flags: W
AnchorPoint: "Anchor-18" 410 397 basechar 0
AnchorPoint: "Anchor-17" 250 692 basechar 0
AnchorPoint: "Anchor-16" 161 692 basechar 0
AnchorPoint: "Anchor-15" 0 0 basechar 0
AnchorPoint: "Anchor-14" 290 0 basechar 0
LayerCount: 2
Fore
SplineSet
234 118 m 1,0,-1
 508 118 l 1,1,-1
 492 0 l 1,2,-1
 87 0 l 1,3,-1
 87 307 l 1,4,-1
 8 307 l 1,5,-1
 8 419 l 1,6,-1
 87 419 l 1,7,-1
 87 692 l 1,8,-1
 234 692 l 1,9,-1
 234 419 l 1,10,-1
 318 419 l 1,11,-1
 318 307 l 1,12,-1
 234 307 l 1,13,-1
 234 118 l 1,0,-1
EndSplineSet
Substitution2: "'c2sc' Capitals to Small Capitals lookup 26 subtable" uni019A.sc
Substitution2: "'aalt' Access All Alternates lookup 0 subtable" uni019A.sc
Position2: "'cpsp' Capital Spacing lookup 0 subtable" dx=5 dy=0 dh=10 dv=0
EndChar

StartChar: uniA7AD
Encoding: 42925 42925 153
Width: 598
GlyphClass: 2
Flags: W
AnchorPoint: "Anchor-18" 484 397 basechar 0
AnchorPoint: "Anchor-17" 324 692 basechar 0
AnchorPoint: "Anchor-16" 235 692 basechar 0
AnchorPoint: "Anchor-15" 0 0 basechar 0
AnchorPoint: "Anchor-14" 364 0 basechar 0
LayerCount: 2
Fore
SplineSet
582 118 m 1,0,-1
 566 0 l 1,1,-1
 161 0 l 1,2,-1
 161 254 l 1,3,4
 82 256 82 256 42.5 289.5 c 128,-1,5
 3 323 3 323 3 381 c 0,6,7
 3 435 3 435 37.5 465 c 128,-1,8
 72 495 72 495 126 495 c 0,9,10
 149 495 149 495 161 491 c 1,11,-1
 161 692 l 1,12,-1
 308 692 l 1,13,-1
 308 341 l 1,14,15
 363 342 363 342 430 355 c 1,16,-1
 442 275 l 1,17,18
 377 260 377 260 308 257 c 1,19,-1
 308 118 l 1,20,-1
 582 118 l 1,0,-1
161 339 m 1,22,-1
 161 415 l 1,23,24
 145 417 145 417 136 417 c 0,25,26
 120 417 120 417 110.5 408 c 128,-1,27
 101 399 101 399 101 382 c 0,28,21
 101 339 101 339 161 339 c 1,22,-1
EndSplineSet
Substitution2: "'c2sc' Capitals to Small Capitals lookup 26 subtable" uniA7AD.sc
Substitution2: "'aalt' Access All Alternates lookup 0 subtable" uniA7AD.sc
Position2: "'cpsp' Capital Spacing lookup 0 subtable" dx=5 dy=0 dh=10 dv=0
EndChar

StartChar: Lslash
Encoding: 321 321 160
Width: 543
GlyphClass: 2
Flags: W
AnchorPoint: "Anchor-18" 430 397 basechar 0
AnchorPoint: "Anchor-17" 270 692 basechar 0
AnchorPoint: "Anchor-16" 181 692 basechar 0
AnchorPoint: "Anchor-15" 0 0 basechar 0
AnchorPoint: "Anchor-14" 310 0 basechar 0
LayerCount: 2
Fore
SplineSet
254 118 m 1,0,-1
 528 118 l 1,1,-1
 512 0 l 1,2,-1
 107 0 l 1,3,-1
 107 232 l 1,4,-1
 61 204 l 1,5,-1
 12 284 l 1,6,-1
 107 343 l 1,7,-1
 107 692 l 1,8,-1
 254 692 l 1,9,-1
 254 434 l 1,10,-1
 390 518 l 1,11,-1
 440 438 l 1,12,-1
 254 323 l 1,13,-1
 254 118 l 1,0,-1
EndSplineSet
Substitution2: "'c2sc' Capitals to Small Capitals lookup 26 subtable" lslash.sc
Substitution2: "'aalt' Access All Alternates lookup 0 subtable" lslash.sc
Position2: "'cpsp' Capital Spacing lookup 0 subtable" dx=5 dy=0 dh=10 dv=0
EndChar

StartChar: M
Encoding: 77 77 161
Width: 784
GlyphClass: 2
Flags: W
AnchorPoint: "Anchor-18" 0 0 basechar 0
AnchorPoint: "Anchor-17" 0 0 basechar 0
AnchorPoint: "Anchor-16" 392 692 basechar 0
AnchorPoint: "Anchor-15" 0 0 basechar 0
AnchorPoint: "Anchor-14" 397 0 basechar 0
LayerCount: 2
Fore
SplineSet
744 0 m 1,0,-1
 600 0 l 1,1,-1
 585 281 l 2,2,3
 578 407 578 407 578 495 c 0,4,5
 578 542 578 542 579 563 c 1,6,-1
 462 74 l 1,7,-1
 323 74 l 1,8,-1
 198 564 l 1,9,10
 202 503 202 503 202 427 c 0,11,12
 202 346 202 346 198 278 c 2,13,-1
 183 0 l 1,14,-1
 40 0 l 1,15,-1
 94 692 l 1,16,-1
 281 692 l 1,17,-1
 395 215 l 1,18,-1
 502 692 l 1,19,-1
 691 692 l 1,20,-1
 744 0 l 1,0,-1
EndSplineSet
Substitution2: "'c2sc' Capitals to Small Capitals lookup 26 subtable" m.sc
Substitution2: "'aalt' Access All Alternates lookup 0 subtable" m.sc
Position2: "'cpsp' Capital Spacing lookup 0 subtable" dx=5 dy=0 dh=10 dv=0
EndChar

StartChar: uni019C
Encoding: 412 412 164
Width: 919
GlyphClass: 2
Flags: W
AnchorPoint: "Anchor-18" 0 0 basechar 0
AnchorPoint: "Anchor-17" 0 0 basechar 0
AnchorPoint: "Anchor-16" 460 692 basechar 0
AnchorPoint: "Anchor-15" 0 0 basechar 0
AnchorPoint: "Anchor-14" 460 0 basechar 0
LayerCount: 2
Fore
SplineSet
846 692 m 1,0,-1
 846 0 l 1,1,-1
 718 0 l 1,2,-1
 707 67 l 1,3,4
 672 24 672 24 634 4 c 128,-1,5
 596 -16 596 -16 549 -16 c 0,6,7
 497 -16 497 -16 459 9 c 128,-1,8
 421 34 421 34 401 78 c 1,9,10
 361 29 361 29 321 6.5 c 128,-1,11
 281 -16 281 -16 231 -16 c 0,12,13
 152 -16 152 -16 107.5 38 c 128,-1,14
 63 92 63 92 63 180 c 2,15,-1
 63 692 l 1,16,-1
 210 692 l 1,17,-1
 210 186 l 2,18,19
 210 143 210 143 227.5 119.5 c 128,-1,20
 245 96 245 96 276 96 c 0,21,22
 305 96 305 96 328.5 113.5 c 128,-1,23
 352 131 352 131 381 169 c 1,24,-1
 381 180 l 1,25,-1
 381 692 l 1,26,-1
 528 692 l 1,27,-1
 528 186 l 2,28,29
 528 143 528 143 545.5 119.5 c 128,-1,30
 563 96 563 96 594 96 c 256,31,32
 625 96 625 96 648.5 113 c 128,-1,33
 672 130 672 130 699 170 c 1,34,-1
 699 692 l 1,35,-1
 846 692 l 1,0,-1
EndSplineSet
Substitution2: "'c2sc' Capitals to Small Capitals lookup 26 subtable" uni026F.sc
Substitution2: "'aalt' Access All Alternates lookup 0 subtable" uni026F.sc
Position2: "'cpsp' Capital Spacing lookup 0 subtable" dx=5 dy=0 dh=10 dv=0
EndChar

StartChar: N
Encoding: 78 78 165
Width: 668
GlyphClass: 2
Flags: W
AnchorPoint: "Anchor-18" 0 0 basechar 0
AnchorPoint: "Anchor-17" 0 0 basechar 0
AnchorPoint: "Anchor-16" 340 692 basechar 0
AnchorPoint: "Anchor-15" 0 0 basechar 0
AnchorPoint: "Anchor-14" 335 0 basechar 0
LayerCount: 2
Fore
SplineSet
595 0 m 1,0,-1
 406 0 l 1,1,-1
 186 549 l 1,2,3
 195 478 195 478 200.5 415.5 c 128,-1,4
 206 353 206 353 206 269 c 2,5,-1
 206 0 l 1,6,-1
 73 0 l 1,7,-1
 73 692 l 1,8,-1
 258 692 l 1,9,-1
 482 142 l 1,10,11
 462 276 462 276 462 388 c 2,12,-1
 462 692 l 1,13,-1
 595 692 l 1,14,-1
 595 0 l 1,0,-1
EndSplineSet
Substitution2: "'c2sc' Capitals to Small Capitals lookup 26 subtable" n.sc
Substitution2: "'aalt' Access All Alternates lookup 0 subtable" n.sc
Position2: "'cpsp' Capital Spacing lookup 0 subtable" dx=5 dy=0 dh=10 dv=0
EndChar

StartChar: Eng
Encoding: 330 330 175
Width: 668
GlyphClass: 2
Flags: W
AnchorPoint: "Anchor-18" 0 0 basechar 0
AnchorPoint: "Anchor-17" 0 0 basechar 0
AnchorPoint: "Anchor-16" 340 692 basechar 0
AnchorPoint: "Anchor-15" 0 0 basechar 0
AnchorPoint: "Anchor-14" 335 0 basechar 0
LayerCount: 2
Fore
SplineSet
595 692 m 1,0,-1
 595 -38 l 2,1,2
 595 -127 595 -127 544.5 -173.5 c 128,-1,3
 494 -220 494 -220 406 -220 c 0,4,5
 326 -220 326 -220 271 -178 c 1,6,-1
 321 -90 l 1,7,8
 341 -101 341 -101 355.5 -106 c 128,-1,9
 370 -111 370 -111 391 -111 c 0,10,11
 447 -111 447 -111 447 -47 c 2,12,-1
 447 0 l 1,13,-1
 406 0 l 1,14,-1
 186 549 l 1,15,16
 195 478 195 478 200.5 415.5 c 128,-1,17
 206 353 206 353 206 269 c 2,18,-1
 206 0 l 1,19,-1
 73 0 l 1,20,-1
 73 692 l 1,21,-1
 258 692 l 1,22,-1
 482 142 l 1,23,24
 462 276 462 276 462 388 c 2,25,-1
 462 692 l 1,26,-1
 595 692 l 1,0,-1
EndSplineSet
Substitution2: "'ss01' Style Set 1 lookup 33 subtable" Eng.ss01
Substitution2: "'salt' Stylistic Alternatives lookup 32 subtable" Eng.ss01
Substitution2: "'c2sc' Capitals to Small Capitals lookup 26 subtable" eng.sc
AlternateSubs2: "'aalt' Access All Alternates lookup 1 subtable" eng.sc Eng.ss01
Position2: "'cpsp' Capital Spacing lookup 0 subtable" dx=5 dy=0 dh=10 dv=0
EndChar

StartChar: Eng.ss01
Encoding: 65541 -1 176
Width: 658
GlyphClass: 2
Flags: W
AnchorPoint: "Anchor-18" 0 0 basechar 0
AnchorPoint: "Anchor-17" 0 0 basechar 0
AnchorPoint: "Anchor-16" 329 692 basechar 0
AnchorPoint: "Anchor-15" 0 0 basechar 0
AnchorPoint: "Anchor-14" 329 -208 basechar 0
LayerCount: 2
Fore
SplineSet
592 1 m 1,0,-1
 592 -38 l 2,1,2
 592 -127 592 -127 541.5 -173.5 c 128,-1,3
 491 -220 491 -220 403 -220 c 0,4,5
 323 -220 323 -220 268 -178 c 1,6,-1
 318 -90 l 1,7,8
 338 -101 338 -101 352.5 -106 c 128,-1,9
 367 -111 367 -111 388 -111 c 0,10,11
 444 -111 444 -111 444 -47 c 2,12,-1
 444 496 l 2,13,14
 444 547 444 547 424.5 572 c 128,-1,15
 405 597 405 597 362 597 c 0,16,17
 320 597 320 597 288.5 579 c 128,-1,18
 257 561 257 561 220 522 c 1,19,-1
 220 0 l 1,20,-1
 73 0 l 1,21,-1
 73 692 l 1,22,-1
 202 692 l 1,23,-1
 213 621 l 1,24,25
 256 665 256 665 302.5 686.5 c 128,-1,26
 349 708 349 708 410 708 c 0,27,28
 499 708 499 708 545 656.5 c 128,-1,29
 591 605 591 605 591 521 c 2,30,-1
 591 1 l 1,31,-1
 592 1 l 1,0,-1
EndSplineSet
Position2: "'cpsp' Capital Spacing lookup 0 subtable" dx=5 dy=0 dh=10 dv=0
EndChar

StartChar: uni019D
Encoding: 413 413 177
Width: 668
GlyphClass: 2
Flags: W
AnchorPoint: "Anchor-18" 0 0 basechar 0
AnchorPoint: "Anchor-17" 0 0 basechar 0
AnchorPoint: "Anchor-16" 340 692 basechar 0
AnchorPoint: "Anchor-15" 0 0 basechar 0
AnchorPoint: "Anchor-14" 335 0 basechar 0
LayerCount: 2
Fore
SplineSet
595 692 m 1,0,-1
 595 0 l 1,1,-1
 406 0 l 1,2,-1
 186 549 l 1,3,4
 195 478 195 478 200.5 415.5 c 128,-1,5
 206 353 206 353 206 269 c 2,6,-1
 206 -39 l 2,7,8
 206 -127 206 -127 158.5 -173.5 c 128,-1,9
 111 -220 111 -220 29 -220 c 0,10,11
 -49 -220 -49 -220 -106 -178 c 1,12,-1
 -56 -93 l 1,13,14
 -36 -104 -36 -104 -21 -109 c 128,-1,15
 -6 -114 -6 -114 15 -114 c 0,16,17
 73 -114 73 -114 73 -50 c 2,18,-1
 73 692 l 1,19,-1
 258 692 l 1,20,-1
 482 142 l 1,21,22
 462 276 462 276 462 388 c 2,23,-1
 462 692 l 1,24,-1
 595 692 l 1,0,-1
EndSplineSet
Substitution2: "'ss01' Style Set 1 lookup 33 subtable" uni019D.ss01
Substitution2: "'salt' Stylistic Alternatives lookup 32 subtable" uni019D.ss01
Substitution2: "'c2sc' Capitals to Small Capitals lookup 26 subtable" uni0272.sc
AlternateSubs2: "'aalt' Access All Alternates lookup 1 subtable" uni0272.sc uni019D.ss01
Position2: "'cpsp' Capital Spacing lookup 0 subtable" dx=5 dy=0 dh=10 dv=0
EndChar

StartChar: uni019D.ss01
Encoding: 65542 -1 178
Width: 658
GlyphClass: 2
Flags: W
AnchorPoint: "Anchor-18" 0 0 basechar 0
AnchorPoint: "Anchor-17" 0 0 basechar 0
AnchorPoint: "Anchor-16" 329 692 basechar 0
AnchorPoint: "Anchor-15" 0 0 basechar 0
AnchorPoint: "Anchor-14" 329 -208 basechar 0
LayerCount: 2
Fore
SplineSet
545 656.5 m 128,-1,1
 591 605 591 605 591 521 c 2,2,-1
 591 0 l 1,3,-1
 444 0 l 1,4,-1
 444 496 l 2,5,6
 444 547 444 547 424.5 572 c 128,-1,7
 405 597 405 597 362 597 c 0,8,9
 320 597 320 597 288.5 579 c 128,-1,10
 257 561 257 561 220 522 c 1,11,-1
 220 1 l 1,12,-1
 221 1 l 1,13,-1
 221 -38 l 2,14,15
 221 -127 221 -127 170.5 -173.5 c 128,-1,16
 120 -220 120 -220 32 -220 c 0,17,18
 -48 -220 -48 -220 -103 -178 c 1,19,-1
 -53 -90 l 1,20,21
 -33 -101 -33 -101 -18.5 -106 c 128,-1,22
 -4 -111 -4 -111 17 -111 c 0,23,24
 73 -111 73 -111 73 -47 c 2,25,-1
 73 692 l 1,26,-1
 202 692 l 1,27,-1
 213 621 l 1,28,29
 256 665 256 665 302.5 686.5 c 128,-1,30
 349 708 349 708 410 708 c 0,31,0
 499 708 499 708 545 656.5 c 128,-1,1
EndSplineSet
Position2: "'cpsp' Capital Spacing lookup 0 subtable" dx=5 dy=0 dh=10 dv=0
EndChar

StartChar: uni0220
Encoding: 544 544 180
Width: 658
GlyphClass: 2
Flags: W
AnchorPoint: "Anchor-18" 0 0 basechar 0
AnchorPoint: "Anchor-17" 0 0 basechar 0
AnchorPoint: "Anchor-16" 329 692 basechar 0
AnchorPoint: "Anchor-15" 0 0 basechar 0
AnchorPoint: "Anchor-14" 329 -208 basechar 0
LayerCount: 2
Fore
SplineSet
545 656.5 m 128,-1,1
 591 605 591 605 591 521 c 2,2,-1
 591 -208 l 1,3,-1
 444 -208 l 1,4,-1
 444 496 l 2,5,6
 444 547 444 547 424.5 572 c 128,-1,7
 405 597 405 597 362 597 c 0,8,9
 320 597 320 597 288.5 579 c 128,-1,10
 257 561 257 561 220 522 c 1,11,-1
 220 0 l 1,12,-1
 73 0 l 1,13,-1
 73 692 l 1,14,-1
 202 692 l 1,15,-1
 213 621 l 1,16,17
 256 665 256 665 302.5 686.5 c 128,-1,18
 349 708 349 708 410 708 c 0,19,0
 499 708 499 708 545 656.5 c 128,-1,1
EndSplineSet
Substitution2: "'c2sc' Capitals to Small Capitals lookup 26 subtable" uni0220.sc
Substitution2: "'aalt' Access All Alternates lookup 0 subtable" uni0220.sc
Position2: "'cpsp' Capital Spacing lookup 0 subtable" dx=5 dy=0 dh=10 dv=0
EndChar

StartChar: O
Encoding: 79 79 182
Width: 691
GlyphClass: 2
Flags: W
AnchorPoint: "Anchor-18" 0 0 basechar 0
AnchorPoint: "Anchor-17" 568 692 basechar 0
AnchorPoint: "Anchor-16" 346 692 basechar 0
AnchorPoint: "Anchor-15" 461 0 basechar 0
AnchorPoint: "Anchor-14" 346 0 basechar 0
LayerCount: 2
Fore
SplineSet
510 665.5 m 128,-1,1
 579 623 579 623 616 542 c 128,-1,2
 653 461 653 461 653 346 c 0,3,4
 653 233 653 233 616 151.5 c 128,-1,5
 579 70 579 70 510 27 c 128,-1,6
 441 -16 441 -16 346 -16 c 256,7,8
 251 -16 251 -16 181.5 26.5 c 128,-1,9
 112 69 112 69 75 150.5 c 128,-1,10
 38 232 38 232 38 346 c 0,11,12
 38 458 38 458 75.5 539.5 c 128,-1,13
 113 621 113 621 182.5 664.5 c 128,-1,14
 252 708 252 708 346 708 c 0,15,0
 441 708 441 708 510 665.5 c 128,-1,1
231.5 538 m 128,-1,17
 193 478 193 478 193 346 c 256,18,19
 193 214 193 214 232 154 c 128,-1,20
 271 94 271 94 346 94 c 0,21,22
 422 94 422 94 460 153.5 c 128,-1,23
 498 213 498 213 498 346 c 256,24,25
 498 479 498 479 460 538.5 c 128,-1,26
 422 598 422 598 346 598 c 256,27,16
 270 598 270 598 231.5 538 c 128,-1,17
EndSplineSet
Substitution2: "Single Substitution lookup 45 subtable" ordmasculine
Substitution2: "'c2sc' Capitals to Small Capitals lookup 26 subtable" o.sc
AlternateSubs2: "'aalt' Access All Alternates lookup 1 subtable" ordmasculine o.sc
Position2: "'cpsp' Capital Spacing lookup 0 subtable" dx=5 dy=0 dh=10 dv=0
EndChar

StartChar: uni0222
Encoding: 546 546 183
Width: 651
GlyphClass: 2
Flags: W
AnchorPoint: "Anchor-18" 0 0 basechar 0
AnchorPoint: "Anchor-17" 0 0 basechar 0
AnchorPoint: "Anchor-16" 326 692 basechar 0
AnchorPoint: "Anchor-15" 0 0 basechar 0
AnchorPoint: "Anchor-14" 326 0 basechar 0
LayerCount: 2
Fore
SplineSet
579 327.5 m 128,-1,1
 613 281 613 281 613 216 c 0,2,3
 613 154 613 154 578 101 c 128,-1,4
 543 48 543 48 478 16 c 128,-1,5
 413 -16 413 -16 326 -16 c 256,6,7
 239 -16 239 -16 173.5 15 c 128,-1,8
 108 46 108 46 73 98.5 c 128,-1,9
 38 151 38 151 38 215 c 0,10,11
 38 278 38 278 72 324 c 128,-1,12
 106 370 106 370 169 396 c 1,13,14
 80 444 80 444 80 550 c 2,15,-1
 80 692 l 1,16,-1
 228 692 l 1,17,-1
 228 546 l 2,18,19
 228 495 228 495 250.5 468.5 c 128,-1,20
 273 442 273 442 326 442 c 0,21,22
 425 442 425 442 425 546 c 2,23,-1
 425 692 l 1,24,-1
 572 692 l 1,25,-1
 572 550 l 2,26,27
 572 500 572 500 548.5 461.5 c 128,-1,28
 525 423 525 423 481 398 c 1,29,0
 545 374 545 374 579 327.5 c 128,-1,1
425 126 m 128,-1,31
 458 158 458 158 458 217 c 0,32,33
 458 273 458 273 424.5 304.5 c 128,-1,34
 391 336 391 336 326 336 c 256,35,36
 261 336 261 336 227 304.5 c 128,-1,37
 193 273 193 273 193 216 c 0,38,39
 193 158 193 158 227 126 c 128,-1,40
 261 94 261 94 326 94 c 0,41,30
 392 94 392 94 425 126 c 128,-1,31
EndSplineSet
Substitution2: "'c2sc' Capitals to Small Capitals lookup 26 subtable" uni0223.sc
Substitution2: "'aalt' Access All Alternates lookup 0 subtable" uni0223.sc
Position2: "'cpsp' Capital Spacing lookup 0 subtable" dx=5 dy=0 dh=10 dv=0
EndChar

StartChar: Ohorn
Encoding: 416 416 203
Width: 712
GlyphClass: 2
Flags: W
AnchorPoint: "Anchor-18" 0 0 basechar 0
AnchorPoint: "Anchor-17" 620 692 basechar 0
AnchorPoint: "Anchor-16" 346 692 basechar 0
AnchorPoint: "Anchor-15" 461 0 basechar 0
AnchorPoint: "Anchor-14" 346 0 basechar 0
LayerCount: 2
Fore
SplineSet
602 569 m 1,1,2
 653 479 653 479 653 346 c 0,3,4
 653 233 653 233 616 151.5 c 128,-1,5
 579 70 579 70 510 27 c 128,-1,6
 441 -16 441 -16 346 -16 c 256,7,8
 251 -16 251 -16 181.5 26.5 c 128,-1,9
 112 69 112 69 75 150.5 c 128,-1,10
 38 232 38 232 38 346 c 0,11,12
 38 458 38 458 75.5 539.5 c 128,-1,13
 113 621 113 621 182.5 664.5 c 128,-1,14
 252 708 252 708 346 708 c 0,15,16
 474 708 474 708 551 634 c 1,17,18
 577 638 577 638 588.5 651.5 c 128,-1,19
 600 665 600 665 600 689 c 0,20,21
 600 726 600 726 587 758 c 1,22,-1
 682 773 l 1,23,24
 701 737 701 737 701 686 c 0,25,0
 701 589 701 589 602 569 c 1,1,2
460 153.5 m 128,-1,27
 498 213 498 213 498 346 c 256,28,29
 498 479 498 479 460 538.5 c 128,-1,30
 422 598 422 598 346 598 c 256,31,32
 270 598 270 598 231.5 538 c 128,-1,33
 193 478 193 478 193 346 c 256,34,35
 193 214 193 214 232 154 c 128,-1,36
 271 94 271 94 346 94 c 0,37,26
 422 94 422 94 460 153.5 c 128,-1,27
EndSplineSet
Substitution2: "'c2sc' Capitals to Small Capitals lookup 26 subtable" ohorn.sc
Substitution2: "'aalt' Access All Alternates lookup 0 subtable" ohorn.sc
Position2: "'cpsp' Capital Spacing lookup 0 subtable" dx=5 dy=0 dh=10 dv=0
EndChar

StartChar: uni1EDA
Encoding: 7898 7898 204
Width: 712
GlyphClass: 2
Flags: W
AnchorPoint: "Anchor-18" 0 0 basechar 0
AnchorPoint: "Anchor-17" 620 692 basechar 0
AnchorPoint: "Anchor-16" 348 945 basechar 0
AnchorPoint: "Anchor-15" 461 0 basechar 0
AnchorPoint: "Anchor-14" 346 0 basechar 0
LayerCount: 2
Fore
SplineSet
481 837 m 1,0,-1
 247 752 l 1,1,-1
 211 825 l 1,2,-1
 427 945 l 1,3,-1
 481 837 l 1,0,-1
602 569 m 1,5,6
 653 479 653 479 653 346 c 0,7,8
 653 233 653 233 616 151.5 c 128,-1,9
 579 70 579 70 510 27 c 128,-1,10
 441 -16 441 -16 346 -16 c 256,11,12
 251 -16 251 -16 181.5 26.5 c 128,-1,13
 112 69 112 69 75 150.5 c 128,-1,14
 38 232 38 232 38 346 c 0,15,16
 38 458 38 458 75.5 539.5 c 128,-1,17
 113 621 113 621 182.5 664.5 c 128,-1,18
 252 708 252 708 346 708 c 0,19,20
 474 708 474 708 551 634 c 1,21,22
 577 638 577 638 588.5 651.5 c 128,-1,23
 600 665 600 665 600 689 c 0,24,25
 600 726 600 726 587 758 c 1,26,-1
 682 773 l 1,27,28
 701 737 701 737 701 686 c 0,29,4
 701 589 701 589 602 569 c 1,5,6
460 153.5 m 128,-1,31
 498 213 498 213 498 346 c 256,32,33
 498 479 498 479 460 538.5 c 128,-1,34
 422 598 422 598 346 598 c 256,35,36
 270 598 270 598 231.5 538 c 128,-1,37
 193 478 193 478 193 346 c 256,38,39
 193 214 193 214 232 154 c 128,-1,40
 271 94 271 94 346 94 c 0,41,30
 422 94 422 94 460 153.5 c 128,-1,31
EndSplineSet
Substitution2: "'c2sc' Capitals to Small Capitals lookup 26 subtable" uni1EDB.sc
Substitution2: "'aalt' Access All Alternates lookup 0 subtable" uni1EDB.sc
Position2: "'cpsp' Capital Spacing lookup 0 subtable" dx=5 dy=0 dh=10 dv=0
EndChar

StartChar: uni1EE2
Encoding: 7906 7906 205
Width: 712
GlyphClass: 2
Flags: W
AnchorPoint: "Anchor-18" 0 0 basechar 0
AnchorPoint: "Anchor-17" 620 692 basechar 0
AnchorPoint: "Anchor-16" 346 692 basechar 0
AnchorPoint: "Anchor-15" 461 0 basechar 0
AnchorPoint: "Anchor-14" 348 -208 basechar 0
LayerCount: 2
Fore
SplineSet
602 569 m 1,1,2
 653 479 653 479 653 346 c 0,3,4
 653 233 653 233 616 151.5 c 128,-1,5
 579 70 579 70 510 27 c 128,-1,6
 441 -16 441 -16 346 -16 c 256,7,8
 251 -16 251 -16 181.5 26.5 c 128,-1,9
 112 69 112 69 75 150.5 c 128,-1,10
 38 232 38 232 38 346 c 0,11,12
 38 458 38 458 75.5 539.5 c 128,-1,13
 113 621 113 621 182.5 664.5 c 128,-1,14
 252 708 252 708 346 708 c 0,15,16
 474 708 474 708 551 634 c 1,17,18
 577 638 577 638 588.5 651.5 c 128,-1,19
 600 665 600 665 600 689 c 0,20,21
 600 726 600 726 587 758 c 1,22,-1
 682 773 l 1,23,24
 701 737 701 737 701 686 c 0,25,0
 701 589 701 589 602 569 c 1,1,2
460 153.5 m 128,-1,27
 498 213 498 213 498 346 c 256,28,29
 498 479 498 479 460 538.5 c 128,-1,30
 422 598 422 598 346 598 c 256,31,32
 270 598 270 598 231.5 538 c 128,-1,33
 193 478 193 478 193 346 c 256,34,35
 193 214 193 214 232 154 c 128,-1,36
 271 94 271 94 346 94 c 0,37,26
 422 94 422 94 460 153.5 c 128,-1,27
408 -87.5 m 128,-1,39
 432 -111 432 -111 432 -147 c 256,40,41
 432 -183 432 -183 408 -206.5 c 128,-1,42
 384 -230 384 -230 346 -230 c 256,43,44
 308 -230 308 -230 283.5 -206.5 c 128,-1,45
 259 -183 259 -183 259 -147 c 256,46,47
 259 -111 259 -111 283.5 -87.5 c 128,-1,48
 308 -64 308 -64 346 -64 c 256,49,38
 384 -64 384 -64 408 -87.5 c 128,-1,39
EndSplineSet
Substitution2: "'c2sc' Capitals to Small Capitals lookup 26 subtable" uni1EE3.sc
Substitution2: "'aalt' Access All Alternates lookup 0 subtable" uni1EE3.sc
Position2: "'cpsp' Capital Spacing lookup 0 subtable" dx=5 dy=0 dh=10 dv=0
EndChar

StartChar: uni1EDC
Encoding: 7900 7900 206
Width: 712
GlyphClass: 2
Flags: W
AnchorPoint: "Anchor-18" 0 0 basechar 0
AnchorPoint: "Anchor-17" 620 692 basechar 0
AnchorPoint: "Anchor-16" 347 945 basechar 0
AnchorPoint: "Anchor-15" 461 0 basechar 0
AnchorPoint: "Anchor-14" 346 0 basechar 0
LayerCount: 2
Fore
SplineSet
476 825 m 1,0,-1
 440 752 l 1,1,-1
 206 837 l 1,2,-1
 260 945 l 1,3,-1
 476 825 l 1,0,-1
602 569 m 1,5,6
 653 479 653 479 653 346 c 0,7,8
 653 233 653 233 616 151.5 c 128,-1,9
 579 70 579 70 510 27 c 128,-1,10
 441 -16 441 -16 346 -16 c 256,11,12
 251 -16 251 -16 181.5 26.5 c 128,-1,13
 112 69 112 69 75 150.5 c 128,-1,14
 38 232 38 232 38 346 c 0,15,16
 38 458 38 458 75.5 539.5 c 128,-1,17
 113 621 113 621 182.5 664.5 c 128,-1,18
 252 708 252 708 346 708 c 0,19,20
 474 708 474 708 551 634 c 1,21,22
 577 638 577 638 588.5 651.5 c 128,-1,23
 600 665 600 665 600 689 c 0,24,25
 600 726 600 726 587 758 c 1,26,-1
 682 773 l 1,27,28
 701 737 701 737 701 686 c 0,29,4
 701 589 701 589 602 569 c 1,5,6
460 153.5 m 128,-1,31
 498 213 498 213 498 346 c 256,32,33
 498 479 498 479 460 538.5 c 128,-1,34
 422 598 422 598 346 598 c 256,35,36
 270 598 270 598 231.5 538 c 128,-1,37
 193 478 193 478 193 346 c 256,38,39
 193 214 193 214 232 154 c 128,-1,40
 271 94 271 94 346 94 c 0,41,30
 422 94 422 94 460 153.5 c 128,-1,31
EndSplineSet
Substitution2: "'c2sc' Capitals to Small Capitals lookup 26 subtable" uni1EDD.sc
Substitution2: "'aalt' Access All Alternates lookup 0 subtable" uni1EDD.sc
Position2: "'cpsp' Capital Spacing lookup 0 subtable" dx=5 dy=0 dh=10 dv=0
EndChar

StartChar: uni1EDE
Encoding: 7902 7902 207
Width: 712
GlyphClass: 2
Flags: W
AnchorPoint: "Anchor-18" 0 0 basechar 0
AnchorPoint: "Anchor-17" 620 692 basechar 0
AnchorPoint: "Anchor-16" 357 997 basechar 0
AnchorPoint: "Anchor-15" 461 0 basechar 0
AnchorPoint: "Anchor-14" 346 0 basechar 0
LayerCount: 2
Fore
SplineSet
272 910 m 1,1,-1
 247 972 l 1,2,3
 291 998 291 998 352 998 c 0,4,5
 409 998 409 998 441 970.5 c 128,-1,6
 473 943 473 943 473 898 c 0,7,8
 473 823 473 823 389 807 c 1,9,-1
 389 763 l 1,10,-1
 301 763 l 1,11,-1
 301 852 l 1,12,13
 339 854 339 854 355.5 862.5 c 128,-1,14
 372 871 372 871 372 891 c 0,15,16
 372 907 372 907 361.5 915 c 128,-1,17
 351 923 351 923 332 923 c 0,18,0
 304 923 304 923 272 910 c 1,1,-1
602 569 m 1,20,21
 653 479 653 479 653 346 c 0,22,23
 653 233 653 233 616 151.5 c 128,-1,24
 579 70 579 70 510 27 c 128,-1,25
 441 -16 441 -16 346 -16 c 256,26,27
 251 -16 251 -16 181.5 26.5 c 128,-1,28
 112 69 112 69 75 150.5 c 128,-1,29
 38 232 38 232 38 346 c 0,30,31
 38 458 38 458 75.5 539.5 c 128,-1,32
 113 621 113 621 182.5 664.5 c 128,-1,33
 252 708 252 708 346 708 c 0,34,35
 474 708 474 708 551 634 c 1,36,37
 577 638 577 638 588.5 651.5 c 128,-1,38
 600 665 600 665 600 689 c 0,39,40
 600 726 600 726 587 758 c 1,41,-1
 682 773 l 1,42,43
 701 737 701 737 701 686 c 0,44,19
 701 589 701 589 602 569 c 1,20,21
460 153.5 m 128,-1,46
 498 213 498 213 498 346 c 256,47,48
 498 479 498 479 460 538.5 c 128,-1,49
 422 598 422 598 346 598 c 256,50,51
 270 598 270 598 231.5 538 c 128,-1,52
 193 478 193 478 193 346 c 256,53,54
 193 214 193 214 232 154 c 128,-1,55
 271 94 271 94 346 94 c 0,56,45
 422 94 422 94 460 153.5 c 128,-1,46
EndSplineSet
Substitution2: "'c2sc' Capitals to Small Capitals lookup 26 subtable" uni1EDF.sc
Substitution2: "'aalt' Access All Alternates lookup 0 subtable" uni1EDF.sc
Position2: "'cpsp' Capital Spacing lookup 0 subtable" dx=5 dy=0 dh=10 dv=0
EndChar

StartChar: uni1EE0
Encoding: 7904 7904 208
Width: 712
GlyphClass: 2
Flags: W
AnchorPoint: "Anchor-18" 0 0 basechar 0
AnchorPoint: "Anchor-17" 620 692 basechar 0
AnchorPoint: "Anchor-16" 348 914 basechar 0
AnchorPoint: "Anchor-15" 461 0 basechar 0
AnchorPoint: "Anchor-14" 346 0 basechar 0
LayerCount: 2
Fore
SplineSet
261 801 m 128,-1,1
 249 790 249 790 236 767 c 1,2,-1
 163 803 l 1,3,4
 183 852 183 852 215 883 c 128,-1,5
 247 914 247 914 287 914 c 0,6,7
 310 914 310 914 326 906.5 c 128,-1,8
 342 899 342 899 362 886 c 0,9,10
 375 877 375 877 384 872.5 c 128,-1,11
 393 868 393 868 403 868 c 0,12,13
 419 868 419 868 430.5 878.5 c 128,-1,14
 442 889 442 889 456 912 c 1,15,-1
 529 876 l 1,16,17
 509 825 509 825 477 795.5 c 128,-1,18
 445 766 445 766 404 766 c 0,19,20
 383 766 383 766 367.5 773 c 128,-1,21
 352 780 352 780 331 793 c 0,22,23
 318 803 318 803 308.5 807.5 c 128,-1,24
 299 812 299 812 289 812 c 0,25,0
 273 812 273 812 261 801 c 128,-1,1
602 569 m 1,27,28
 653 479 653 479 653 346 c 0,29,30
 653 233 653 233 616 151.5 c 128,-1,31
 579 70 579 70 510 27 c 128,-1,32
 441 -16 441 -16 346 -16 c 256,33,34
 251 -16 251 -16 181.5 26.5 c 128,-1,35
 112 69 112 69 75 150.5 c 128,-1,36
 38 232 38 232 38 346 c 0,37,38
 38 458 38 458 75.5 539.5 c 128,-1,39
 113 621 113 621 182.5 664.5 c 128,-1,40
 252 708 252 708 346 708 c 0,41,42
 474 708 474 708 551 634 c 1,43,44
 577 638 577 638 588.5 651.5 c 128,-1,45
 600 665 600 665 600 689 c 0,46,47
 600 726 600 726 587 758 c 1,48,-1
 682 773 l 1,49,50
 701 737 701 737 701 686 c 0,51,26
 701 589 701 589 602 569 c 1,27,28
460 153.5 m 128,-1,53
 498 213 498 213 498 346 c 256,54,55
 498 479 498 479 460 538.5 c 128,-1,56
 422 598 422 598 346 598 c 256,57,58
 270 598 270 598 231.5 538 c 128,-1,59
 193 478 193 478 193 346 c 256,60,61
 193 214 193 214 232 154 c 128,-1,62
 271 94 271 94 346 94 c 0,63,52
 422 94 422 94 460 153.5 c 128,-1,53
EndSplineSet
Substitution2: "'c2sc' Capitals to Small Capitals lookup 26 subtable" uni1EE1.sc
Substitution2: "'aalt' Access All Alternates lookup 0 subtable" uni1EE1.sc
Position2: "'cpsp' Capital Spacing lookup 0 subtable" dx=5 dy=0 dh=10 dv=0
EndChar

StartChar: uni01A2
Encoding: 418 418 210
Width: 952
GlyphClass: 2
Flags: W
AnchorPoint: "Anchor-18" 0 0 basechar 0
AnchorPoint: "Anchor-17" 0 0 basechar 0
AnchorPoint: "Anchor-16" 476 692 basechar 0
AnchorPoint: "Anchor-15" 0 0 basechar 0
AnchorPoint: "Anchor-14" 476 -208 basechar 0
LayerCount: 2
Fore
SplineSet
828 662 m 128,-1,1
 879 615 879 615 879 525 c 2,2,-1
 879 -208 l 1,3,-1
 731 -208 l 1,4,-1
 731 530 l 2,5,6
 731 604 731 604 668 604 c 0,7,8
 647 604 647 604 629 599.5 c 128,-1,9
 611 595 611 595 590 585 c 1,10,11
 653 491 653 491 653 346 c 0,12,13
 653 233 653 233 616 151.5 c 128,-1,14
 579 70 579 70 510 27 c 128,-1,15
 441 -16 441 -16 346 -16 c 256,16,17
 251 -16 251 -16 181.5 26.5 c 128,-1,18
 112 69 112 69 75 150.5 c 128,-1,19
 38 232 38 232 38 346 c 0,20,21
 38 458 38 458 75.5 539.5 c 128,-1,22
 113 621 113 621 182.5 664.5 c 128,-1,23
 252 708 252 708 346 708 c 0,24,25
 448 708 448 708 521 656 c 1,26,27
 560 683 560 683 599.5 696 c 128,-1,28
 639 709 639 709 685 709 c 0,29,0
 777 709 777 709 828 662 c 128,-1,1
460 153.5 m 128,-1,31
 498 213 498 213 498 346 c 256,32,33
 498 479 498 479 460 538.5 c 128,-1,34
 422 598 422 598 346 598 c 256,35,36
 270 598 270 598 231.5 538 c 128,-1,37
 193 478 193 478 193 346 c 256,38,39
 193 214 193 214 232 154 c 128,-1,40
 271 94 271 94 346 94 c 0,41,30
 422 94 422 94 460 153.5 c 128,-1,31
EndSplineSet
Substitution2: "'c2sc' Capitals to Small Capitals lookup 26 subtable" uni01A3.sc
Substitution2: "'aalt' Access All Alternates lookup 0 subtable" uni01A3.sc
Position2: "'cpsp' Capital Spacing lookup 0 subtable" dx=5 dy=0 dh=10 dv=0
EndChar

StartChar: uni1E50
Encoding: 7760 7760 214
Width: 691
GlyphClass: 2
Flags: W
AnchorPoint: "Anchor-18" 0 0 basechar 0
AnchorPoint: "Anchor-17" 568 692 basechar 0
AnchorPoint: "Anchor-16" 348 1098 basechar 0
AnchorPoint: "Anchor-15" 461 0 basechar 0
AnchorPoint: "Anchor-14" 346 0 basechar 0
LayerCount: 2
Fore
SplineSet
261 1098 m 1,0,-1
 477 978 l 1,1,-1
 441 905 l 1,2,-1
 207 990 l 1,3,-1
 261 1098 l 1,0,-1
495 760 m 1,4,-1
 197 760 l 1,5,-1
 197 860 l 1,6,-1
 495 860 l 1,7,-1
 495 760 l 1,4,-1
510 665.5 m 128,-1,9
 579 623 579 623 616 542 c 128,-1,10
 653 461 653 461 653 346 c 0,11,12
 653 233 653 233 616 151.5 c 128,-1,13
 579 70 579 70 510 27 c 128,-1,14
 441 -16 441 -16 346 -16 c 256,15,16
 251 -16 251 -16 181.5 26.5 c 128,-1,17
 112 69 112 69 75 150.5 c 128,-1,18
 38 232 38 232 38 346 c 0,19,20
 38 458 38 458 75.5 539.5 c 128,-1,21
 113 621 113 621 182.5 664.5 c 128,-1,22
 252 708 252 708 346 708 c 0,23,8
 441 708 441 708 510 665.5 c 128,-1,9
231.5 538 m 128,-1,25
 193 478 193 478 193 346 c 256,26,27
 193 214 193 214 232 154 c 128,-1,28
 271 94 271 94 346 94 c 0,29,30
 422 94 422 94 460 153.5 c 128,-1,31
 498 213 498 213 498 346 c 256,32,33
 498 479 498 479 460 538.5 c 128,-1,34
 422 598 422 598 346 598 c 256,35,24
 270 598 270 598 231.5 538 c 128,-1,25
EndSplineSet
Substitution2: "'c2sc' Capitals to Small Capitals lookup 26 subtable" uni1E51.sc
Substitution2: "'aalt' Access All Alternates lookup 0 subtable" uni1E51.sc
Position2: "'cpsp' Capital Spacing lookup 0 subtable" dx=5 dy=0 dh=10 dv=0
EndChar

StartChar: uniA7B6
Encoding: 42934 42934 215
Width: 875
GlyphClass: 2
Flags: W
AnchorPoint: "Anchor-18" 0 0 basechar 0
AnchorPoint: "Anchor-17" 0 0 basechar 0
AnchorPoint: "Anchor-16" 437 692 basechar 0
AnchorPoint: "Anchor-15" 0 0 basechar 0
AnchorPoint: "Anchor-14" 437 0 basechar 0
LayerCount: 2
Fore
SplineSet
802.5 521 m 128,-1,1
 824 430 824 430 824 301 c 0,2,3
 824 137 824 137 767 60.5 c 128,-1,4
 710 -16 710 -16 601 -16 c 0,5,6
 470 -16 470 -16 436 107 c 1,7,8
 419 46 419 46 378 15 c 128,-1,9
 337 -16 337 -16 275 -16 c 0,10,11
 163 -16 163 -16 107 59.5 c 128,-1,12
 51 135 51 135 51 301 c 0,13,14
 51 430 51 430 72.5 521 c 128,-1,15
 94 612 94 612 129 692 c 1,16,-1
 266 692 l 1,17,18
 232 598 232 598 215 511 c 128,-1,19
 198 424 198 424 198 309 c 0,20,21
 198 191 198 191 219 142.5 c 128,-1,22
 240 94 240 94 290 94 c 0,23,24
 364 94 364 94 364 190 c 2,25,-1
 364 398 l 1,26,-1
 509 398 l 1,27,-1
 509 190 l 2,28,29
 509 138 509 138 528 116 c 128,-1,30
 547 94 547 94 585 94 c 0,31,32
 631 94 631 94 654 141 c 128,-1,33
 677 188 677 188 677 308 c 0,34,35
 677 424 677 424 658.5 511 c 128,-1,36
 640 598 640 598 604 692 c 1,37,-1
 746 692 l 1,38,0
 781 612 781 612 802.5 521 c 128,-1,1
EndSplineSet
Substitution2: "'c2sc' Capitals to Small Capitals lookup 26 subtable" uniA7B6.sc
Substitution2: "'aalt' Access All Alternates lookup 0 subtable" uniA7B6.sc
Position2: "'cpsp' Capital Spacing lookup 0 subtable" dx=5 dy=0 dh=10 dv=0
EndChar

StartChar: uni01EA
Encoding: 490 490 216
Width: 691
GlyphClass: 2
Flags: W
AnchorPoint: "Anchor-18" 0 0 basechar 0
AnchorPoint: "Anchor-17" 568 692 basechar 0
AnchorPoint: "Anchor-16" 346 692 basechar 0
AnchorPoint: "Anchor-15" 461 0 basechar 0
AnchorPoint: "Anchor-14" 346 0 basechar 0
LayerCount: 2
Fore
SplineSet
331 -105 m 0,1,2
 331 -151 331 -151 385 -151 c 0,3,4
 414 -151 414 -151 446 -144 c 1,5,-1
 436 -235 l 1,6,7
 399 -242 399 -242 368 -242 c 0,8,9
 305 -242 305 -242 265.5 -211.5 c 128,-1,10
 226 -181 226 -181 226 -130 c 0,11,12
 226 -59 226 -59 293 -12 c 1,13,14
 173 5 173 5 105.5 98 c 128,-1,15
 38 191 38 191 38 346 c 0,16,17
 38 458 38 458 75.5 539.5 c 128,-1,18
 113 621 113 621 182.5 664.5 c 128,-1,19
 252 708 252 708 346 708 c 0,20,21
 441 708 441 708 510 665.5 c 128,-1,22
 579 623 579 623 616 542 c 128,-1,23
 653 461 653 461 653 346 c 0,24,25
 653 211 653 211 599.5 121 c 128,-1,26
 546 31 546 31 449 -1 c 1,27,0
 331 -46 331 -46 331 -105 c 0,1,2
232 154 m 128,-1,29
 271 94 271 94 346 94 c 0,30,31
 422 94 422 94 460 153.5 c 128,-1,32
 498 213 498 213 498 346 c 256,33,34
 498 479 498 479 460 538.5 c 128,-1,35
 422 598 422 598 346 598 c 256,36,37
 270 598 270 598 231.5 538 c 128,-1,38
 193 478 193 478 193 346 c 256,39,28
 193 214 193 214 232 154 c 128,-1,29
EndSplineSet
Substitution2: "'c2sc' Capitals to Small Capitals lookup 26 subtable" uni01EB.sc
Substitution2: "'aalt' Access All Alternates lookup 0 subtable" uni01EB.sc
Position2: "'cpsp' Capital Spacing lookup 0 subtable" dx=5 dy=0 dh=10 dv=0
EndChar

StartChar: uni01EC
Encoding: 492 492 217
Width: 691
GlyphClass: 2
Flags: W
AnchorPoint: "Anchor-18" 0 0 basechar 0
AnchorPoint: "Anchor-17" 568 692 basechar 0
AnchorPoint: "Anchor-16" 348 884 basechar 0
AnchorPoint: "Anchor-15" 461 0 basechar 0
AnchorPoint: "Anchor-14" 346 0 basechar 0
LayerCount: 2
Fore
SplineSet
495 884 m 1,0,-1
 495 784 l 1,1,-1
 197 784 l 1,2,-1
 197 884 l 1,3,-1
 495 884 l 1,0,-1
331 -105 m 0,5,6
 331 -151 331 -151 385 -151 c 0,7,8
 414 -151 414 -151 446 -144 c 1,9,-1
 436 -235 l 1,10,11
 399 -242 399 -242 368 -242 c 0,12,13
 305 -242 305 -242 265.5 -211.5 c 128,-1,14
 226 -181 226 -181 226 -130 c 0,15,16
 226 -59 226 -59 293 -12 c 1,17,18
 173 5 173 5 105.5 98 c 128,-1,19
 38 191 38 191 38 346 c 0,20,21
 38 458 38 458 75.5 539.5 c 128,-1,22
 113 621 113 621 182.5 664.5 c 128,-1,23
 252 708 252 708 346 708 c 0,24,25
 441 708 441 708 510 665.5 c 128,-1,26
 579 623 579 623 616 542 c 128,-1,27
 653 461 653 461 653 346 c 0,28,29
 653 211 653 211 599.5 121 c 128,-1,30
 546 31 546 31 449 -1 c 1,31,4
 331 -46 331 -46 331 -105 c 0,5,6
232 154 m 128,-1,33
 271 94 271 94 346 94 c 0,34,35
 422 94 422 94 460 153.5 c 128,-1,36
 498 213 498 213 498 346 c 256,37,38
 498 479 498 479 460 538.5 c 128,-1,39
 422 598 422 598 346 598 c 256,40,41
 270 598 270 598 231.5 538 c 128,-1,42
 193 478 193 478 193 346 c 256,43,32
 193 214 193 214 232 154 c 128,-1,33
EndSplineSet
Substitution2: "'c2sc' Capitals to Small Capitals lookup 26 subtable" uni01ED.sc
Substitution2: "'aalt' Access All Alternates lookup 0 subtable" uni01ED.sc
Position2: "'cpsp' Capital Spacing lookup 0 subtable" dx=5 dy=0 dh=10 dv=0
EndChar

StartChar: uni0186
Encoding: 390 390 218
Width: 571
GlyphClass: 2
Flags: W
AnchorPoint: "Anchor-18" 214 350 basechar 0
AnchorPoint: "Anchor-17" 0 0 basechar 0
AnchorPoint: "Anchor-16" 240 692 basechar 0
AnchorPoint: "Anchor-15" 0 0 basechar 0
AnchorPoint: "Anchor-14" 240 0 basechar 0
LayerCount: 2
Fore
SplineSet
395 666 m 128,-1,1
 461 624 461 624 497 543 c 128,-1,2
 533 462 533 462 533 348 c 0,3,4
 533 232 533 232 494.5 150 c 128,-1,5
 456 68 456 68 386.5 26 c 128,-1,6
 317 -16 317 -16 225 -16 c 0,7,8
 158 -16 158 -16 104 8.5 c 128,-1,9
 50 33 50 33 11 71 c 1,10,-1
 78 155 l 1,11,12
 115 128 115 128 146 114 c 128,-1,13
 177 100 177 100 218 100 c 0,14,15
 293 100 293 100 336 159.5 c 128,-1,16
 379 219 379 219 379 347 c 0,17,18
 379 478 379 478 340 537.5 c 128,-1,19
 301 597 301 597 233 597 c 0,20,21
 193 597 193 597 158.5 584.5 c 128,-1,22
 124 572 124 572 90 548 c 1,23,-1
 19 633 l 1,24,25
 66 671 66 671 119 689.5 c 128,-1,26
 172 708 172 708 241 708 c 0,27,0
 329 708 329 708 395 666 c 128,-1,1
EndSplineSet
Substitution2: "'c2sc' Capitals to Small Capitals lookup 26 subtable" uni0254.sc
Substitution2: "'aalt' Access All Alternates lookup 0 subtable" uni0254.sc
Position2: "'cpsp' Capital Spacing lookup 0 subtable" dx=5 dy=0 dh=10 dv=0
EndChar

StartChar: Oslash
Encoding: 216 216 219
Width: 691
GlyphClass: 2
Flags: W
AnchorPoint: "Anchor-18" 0 0 basechar 0
AnchorPoint: "Anchor-17" 0 0 basechar 0
AnchorPoint: "Anchor-16" 343 721 basechar 0
AnchorPoint: "Anchor-15" 0 0 basechar 0
AnchorPoint: "Anchor-14" 346 0 basechar 0
LayerCount: 2
Fore
SplineSet
615.5 543.5 m 128,-1,1
 653 462 653 462 653 346 c 0,2,3
 653 233 653 233 616 151.5 c 128,-1,4
 579 70 579 70 510 27 c 128,-1,5
 441 -16 441 -16 346 -16 c 0,6,7
 315 -16 315 -16 292 -12 c 1,8,-1
 256 -133 l 1,9,-1
 143 -103 l 1,10,-1
 183 26 l 1,11,12
 113 68 113 68 75.5 149.5 c 128,-1,13
 38 231 38 231 38 346 c 0,14,15
 38 458 38 458 75.5 539.5 c 128,-1,16
 113 621 113 621 182.5 664.5 c 128,-1,17
 252 708 252 708 346 708 c 0,18,19
 376 708 376 708 399 704 c 1,20,-1
 436 826 l 1,21,-1
 548 796 l 1,22,-1
 507 667 l 1,23,0
 578 625 578 625 615.5 543.5 c 128,-1,1
231.5 538 m 128,-1,25
 193 478 193 478 193 346 c 0,26,27
 193 191 193 191 241 134 c 1,28,-1
 380 596 l 1,29,30
 358 598 358 598 346 598 c 0,31,24
 270 598 270 598 231.5 538 c 128,-1,25
460 153.5 m 128,-1,33
 498 213 498 213 498 346 c 0,34,35
 498 505 498 505 449 560 c 1,36,-1
 310 97 l 1,37,38
 328 94 328 94 346 94 c 0,39,32
 422 94 422 94 460 153.5 c 128,-1,33
EndSplineSet
Substitution2: "'c2sc' Capitals to Small Capitals lookup 26 subtable" oslash.sc
Substitution2: "'aalt' Access All Alternates lookup 0 subtable" oslash.sc
Position2: "'cpsp' Capital Spacing lookup 0 subtable" dx=5 dy=0 dh=10 dv=0
EndChar

StartChar: OE
Encoding: 338 338 224
Width: 903
GlyphClass: 2
Flags: W
AnchorPoint: "Anchor-18" 0 0 basechar 0
AnchorPoint: "Anchor-17" 0 0 basechar 0
AnchorPoint: "Anchor-16" 454 692 basechar 0
AnchorPoint: "Anchor-15" 0 0 basechar 0
AnchorPoint: "Anchor-14" 454 0 basechar 0
LayerCount: 2
Fore
SplineSet
863 0 m 1,0,-1
 420 0 l 1,1,2
 381 -16 381 -16 330 -16 c 0,3,4
 243 -16 243 -16 177 26.5 c 128,-1,5
 111 69 111 69 74.5 150.5 c 128,-1,6
 38 232 38 232 38 346 c 0,7,8
 38 457 38 457 74.5 539 c 128,-1,9
 111 621 111 621 177 664.5 c 128,-1,10
 243 708 243 708 330 708 c 0,11,12
 383 708 383 708 424 692 c 1,13,-1
 861 692 l 1,14,-1
 845 585 l 1,15,-1
 559 585 l 1,16,17
 618 513 618 513 630 405 c 1,18,-1
 814 405 l 1,19,-1
 814 299 l 1,20,-1
 631 299 l 1,21,22
 618 182 618 182 556 108 c 1,23,-1
 863 108 l 1,24,-1
 863 0 l 1,0,-1
230.5 155 m 128,-1,26
 268 94 268 94 336 94 c 0,27,28
 405 94 405 94 441.5 154 c 128,-1,29
 478 214 478 214 478 346 c 256,30,31
 478 478 478 478 441.5 538 c 128,-1,32
 405 598 405 598 336 598 c 0,33,34
 193 598 193 598 193 346 c 0,35,25
 193 216 193 216 230.5 155 c 128,-1,26
EndSplineSet
Substitution2: "'c2sc' Capitals to Small Capitals lookup 26 subtable" oe.sc
Substitution2: "'aalt' Access All Alternates lookup 0 subtable" oe.sc
Position2: "'cpsp' Capital Spacing lookup 0 subtable" dx=5 dy=0 dh=10 dv=0
EndChar

StartChar: P
Encoding: 80 80 225
Width: 595
GlyphClass: 2
Flags: W
AnchorPoint: "Anchor-18" 0 0 basechar 0
AnchorPoint: "Anchor-17" 0 0 basechar 0
AnchorPoint: "Anchor-16" 298 692 basechar 0
AnchorPoint: "Anchor-15" 0 0 basechar 0
AnchorPoint: "Anchor-14" 147 0 basechar 0
LayerCount: 2
Fore
SplineSet
496.5 636 m 128,-1,1
 571 580 571 580 571 469 c 0,2,3
 571 353 571 353 497 294.5 c 128,-1,4
 423 236 423 236 299 236 c 2,5,-1
 220 236 l 1,6,-1
 220 0 l 1,7,-1
 73 0 l 1,8,-1
 73 692 l 1,9,-1
 287 692 l 2,10,0
 422 692 422 692 496.5 636 c 128,-1,1
385 373 m 128,-1,12
 419 402 419 402 419 469 c 0,13,14
 419 586 419 586 285 586 c 2,15,-1
 220 586 l 1,16,-1
 220 344 l 1,17,-1
 287 344 l 2,18,11
 351 344 351 344 385 373 c 128,-1,12
EndSplineSet
Substitution2: "'c2sc' Capitals to Small Capitals lookup 26 subtable" p.sc
Substitution2: "'aalt' Access All Alternates lookup 0 subtable" p.sc
Position2: "'cpsp' Capital Spacing lookup 0 subtable" dx=5 dy=0 dh=10 dv=0
EndChar

StartChar: uni01A4
Encoding: 420 420 228
Width: 722
GlyphClass: 2
Flags: W
AnchorPoint: "Anchor-18" 0 0 basechar 0
AnchorPoint: "Anchor-17" 0 0 basechar 0
AnchorPoint: "Anchor-16" 425 692 basechar 0
AnchorPoint: "Anchor-15" 0 0 basechar 0
AnchorPoint: "Anchor-14" 274 0 basechar 0
LayerCount: 2
Fore
SplineSet
623.5 636 m 128,-1,1
 698 580 698 580 698 469 c 0,2,3
 698 353 698 353 624 294.5 c 128,-1,4
 550 236 550 236 426 236 c 2,5,-1
 347 236 l 1,6,-1
 347 0 l 1,7,-1
 200 0 l 1,8,-1
 200 585 l 1,9,-1
 172 585 l 2,10,11
 124 585 124 585 124 541 c 0,12,13
 124 525 124 525 128 510.5 c 128,-1,14
 132 496 132 496 140 474 c 1,15,-1
 49 433 l 1,16,17
 29 463 29 463 17 490.5 c 128,-1,18
 5 518 5 518 5 550 c 0,19,20
 5 616 5 616 52 654 c 128,-1,21
 99 692 99 692 180 692 c 2,22,-1
 414 692 l 2,23,0
 549 692 549 692 623.5 636 c 128,-1,1
512 373 m 128,-1,25
 546 402 546 402 546 469 c 0,26,27
 546 586 546 586 412 586 c 2,28,-1
 347 586 l 1,29,-1
 347 344 l 1,30,-1
 414 344 l 2,31,24
 478 344 478 344 512 373 c 128,-1,25
EndSplineSet
Substitution2: "'c2sc' Capitals to Small Capitals lookup 26 subtable" uni01A5.sc
Substitution2: "'aalt' Access All Alternates lookup 0 subtable" uni01A5.sc
Position2: "'cpsp' Capital Spacing lookup 0 subtable" dx=5 dy=0 dh=10 dv=0
EndChar

StartChar: Thorn
Encoding: 222 222 229
Width: 595
GlyphClass: 2
Flags: W
AnchorPoint: "Anchor-18" 0 0 basechar 0
AnchorPoint: "Anchor-17" 0 0 basechar 0
AnchorPoint: "Anchor-16" 298 692 basechar 0
AnchorPoint: "Anchor-15" 0 0 basechar 0
AnchorPoint: "Anchor-14" 298 0 basechar 0
LayerCount: 2
Fore
SplineSet
496.5 524.5 m 128,-1,1
 571 468 571 468 571 356 c 0,2,3
 571 236 571 236 497 176.5 c 128,-1,4
 423 117 423 117 299 117 c 2,5,-1
 220 117 l 1,6,-1
 220 0 l 1,7,-1
 73 0 l 1,8,-1
 73 692 l 1,9,-1
 220 692 l 1,10,-1
 220 581 l 1,11,-1
 287 581 l 2,12,0
 422 581 422 581 496.5 524.5 c 128,-1,1
385.5 254.5 m 128,-1,14
 419 284 419 284 419 355 c 0,15,16
 419 475 419 475 285 475 c 2,17,-1
 220 475 l 1,18,-1
 220 225 l 1,19,-1
 287 225 l 2,20,13
 352 225 352 225 385.5 254.5 c 128,-1,14
EndSplineSet
Substitution2: "'c2sc' Capitals to Small Capitals lookup 26 subtable" thorn.sc
Substitution2: "'aalt' Access All Alternates lookup 0 subtable" thorn.sc
Position2: "'cpsp' Capital Spacing lookup 0 subtable" dx=5 dy=0 dh=10 dv=0
EndChar

StartChar: Q
Encoding: 81 81 230
Width: 691
GlyphClass: 2
Flags: W
AnchorPoint: "Anchor-18" 0 0 basechar 0
AnchorPoint: "Anchor-17" 0 0 basechar 0
AnchorPoint: "Anchor-16" 345 692 basechar 0
AnchorPoint: "Anchor-15" 0 0 basechar 0
AnchorPoint: "Anchor-14" 345 0 basechar 0
LayerCount: 2
Fore
SplineSet
601 27 m 128,-1,1
 649 11 649 11 691 -19 c 1,2,-1
 602 -136 l 1,3,4
 543 -75 543 -75 484.5 -44 c 128,-1,5
 426 -13 426 -13 337 -13 c 0,6,7
 246 -13 246 -13 178.5 29 c 128,-1,8
 111 71 111 71 74.5 151.5 c 128,-1,9
 38 232 38 232 38 346 c 0,10,11
 38 458 38 458 75.5 539.5 c 128,-1,12
 113 621 113 621 182.5 664.5 c 128,-1,13
 252 708 252 708 346 708 c 0,14,15
 441 708 441 708 510 665.5 c 128,-1,16
 579 623 579 623 616 542 c 128,-1,17
 653 461 653 461 653 346 c 0,18,19
 653 229 653 229 609 156.5 c 128,-1,20
 565 84 565 84 491 43 c 1,21,0
 553 43 553 43 601 27 c 128,-1,1
232 154 m 128,-1,23
 271 94 271 94 346 94 c 0,24,25
 422 94 422 94 460 153.5 c 128,-1,26
 498 213 498 213 498 346 c 256,27,28
 498 479 498 479 460 538.5 c 128,-1,29
 422 598 422 598 346 598 c 256,30,31
 270 598 270 598 231.5 538 c 128,-1,32
 193 478 193 478 193 346 c 256,33,22
 193 214 193 214 232 154 c 128,-1,23
EndSplineSet
Substitution2: "'c2sc' Capitals to Small Capitals lookup 26 subtable" q.sc
Substitution2: "'aalt' Access All Alternates lookup 0 subtable" q.sc
Position2: "'cpsp' Capital Spacing lookup 0 subtable" dx=5 dy=0 dh=10 dv=0
EndChar

StartChar: uni024A
Encoding: 586 586 231
Width: 672
GlyphClass: 2
Flags: W
AnchorPoint: "Anchor-18" 0 0 basechar 0
AnchorPoint: "Anchor-17" 0 0 basechar 0
AnchorPoint: "Anchor-16" 336 692 basechar 0
AnchorPoint: "Anchor-15" 0 0 basechar 0
AnchorPoint: "Anchor-14" 336 -208 basechar 0
LayerCount: 2
Fore
SplineSet
775 -178 m 1,0,1
 720 -220 720 -220 640 -220 c 0,2,3
 552 -220 552 -220 501.5 -173.5 c 128,-1,4
 451 -127 451 -127 451 -38 c 2,5,-1
 451 40 l 1,6,7
 393 -16 393 -16 310 -16 c 0,8,9
 231 -16 231 -16 169.5 25 c 128,-1,10
 108 66 108 66 73 144.5 c 128,-1,11
 38 223 38 223 38 333 c 0,12,13
 38 449 38 449 73.5 534 c 128,-1,14
 109 619 109 619 171.5 663.5 c 128,-1,15
 234 708 234 708 314 708 c 0,16,17
 400 708 400 708 461 650 c 1,18,-1
 468 692 l 1,19,-1
 599 692 l 1,20,-1
 599 -47 l 2,21,22
 599 -111 599 -111 655 -111 c 0,23,24
 676 -111 676 -111 690.5 -106 c 128,-1,25
 705 -101 705 -101 725 -90 c 1,26,-1
 775 -178 l 1,0,1
451 138 m 1,28,-1
 451 554 l 1,29,30
 404 598 404 598 341 598 c 0,31,32
 269 598 269 598 231 535 c 128,-1,33
 193 472 193 472 193 333 c 0,34,35
 193 205 193 205 231 148.5 c 128,-1,36
 269 92 269 92 338 92 c 0,37,27
 403 92 403 92 451 138 c 1,28,-1
EndSplineSet
Substitution2: "'c2sc' Capitals to Small Capitals lookup 26 subtable" uni024B.sc
Substitution2: "'aalt' Access All Alternates lookup 0 subtable" uni024B.sc
Position2: "'cpsp' Capital Spacing lookup 0 subtable" dx=5 dy=0 dh=10 dv=0
EndChar

StartChar: R
Encoding: 82 82 232
Width: 614
GlyphClass: 2
Flags: W
AnchorPoint: "Anchor-18" 0 0 basechar 0
AnchorPoint: "Anchor-17" 0 0 basechar 0
AnchorPoint: "Anchor-16" 300 692 basechar 0
AnchorPoint: "Anchor-15" 0 0 basechar 0
AnchorPoint: "Anchor-14" 310 0 basechar 0
LayerCount: 2
Fore
SplineSet
295 271 m 1,0,-1
 220 271 l 1,1,-1
 220 0 l 1,2,-1
 73 0 l 1,3,-1
 73 692 l 1,4,-1
 289 692 l 2,5,6
 428 692 428 692 498 640.5 c 128,-1,7
 568 589 568 589 568 485 c 0,8,9
 568 417 568 417 534.5 373 c 128,-1,10
 501 329 501 329 431 298 c 1,11,-1
 610 0 l 1,12,-1
 443 0 l 1,13,-1
 295 271 l 1,0,-1
220 375 m 1,14,-1
 297 375 l 2,15,16
 356 375 356 375 386 401.5 c 128,-1,17
 416 428 416 428 416 485 c 0,18,19
 416 538 416 538 384.5 562.5 c 128,-1,20
 353 587 353 587 286 587 c 2,21,-1
 220 587 l 1,22,-1
 220 375 l 1,14,-1
EndSplineSet
Substitution2: "'c2sc' Capitals to Small Capitals lookup 26 subtable" r.sc
Substitution2: "'aalt' Access All Alternates lookup 0 subtable" r.sc
Position2: "'cpsp' Capital Spacing lookup 0 subtable" dx=5 dy=0 dh=10 dv=0
EndChar

StartChar: uni024C
Encoding: 588 588 239
Width: 627
GlyphClass: 2
Flags: W
AnchorPoint: "Anchor-18" 0 0 basechar 0
AnchorPoint: "Anchor-17" 0 0 basechar 0
AnchorPoint: "Anchor-16" 313 692 basechar 0
AnchorPoint: "Anchor-15" 0 0 basechar 0
AnchorPoint: "Anchor-14" 323 0 basechar 0
LayerCount: 2
Fore
SplineSet
456 0 m 1,0,-1
 308 271 l 1,1,-1
 233 271 l 1,2,-1
 233 0 l 1,3,-1
 86 0 l 1,4,-1
 86 271 l 1,5,-1
 15 271 l 1,6,-1
 15 375 l 1,7,-1
 86 375 l 1,8,-1
 86 692 l 1,9,-1
 302 692 l 2,10,11
 441 692 441 692 511 640.5 c 128,-1,12
 581 589 581 589 581 485 c 0,13,14
 581 417 581 417 547.5 373 c 128,-1,15
 514 329 514 329 444 298 c 1,16,-1
 623 0 l 1,17,-1
 456 0 l 1,0,-1
310 375 m 2,18,19
 369 375 369 375 399 401.5 c 128,-1,20
 429 428 429 428 429 485 c 0,21,22
 429 538 429 538 397.5 562.5 c 128,-1,23
 366 587 366 587 299 587 c 2,24,-1
 233 587 l 1,25,-1
 233 375 l 1,26,-1
 310 375 l 2,18,19
EndSplineSet
Substitution2: "'c2sc' Capitals to Small Capitals lookup 26 subtable" uni024D.sc
Substitution2: "'aalt' Access All Alternates lookup 0 subtable" uni024D.sc
Position2: "'cpsp' Capital Spacing lookup 0 subtable" dx=5 dy=0 dh=10 dv=0
EndChar

StartChar: uni2C64
Encoding: 11364 11364 240
Width: 614
GlyphClass: 2
Flags: W
AnchorPoint: "Anchor-18" 0 0 basechar 0
AnchorPoint: "Anchor-17" 0 0 basechar 0
AnchorPoint: "Anchor-16" 300 692 basechar 0
AnchorPoint: "Anchor-15" 0 0 basechar 0
AnchorPoint: "Anchor-14" 310 0 basechar 0
LayerCount: 2
Fore
SplineSet
220 271 m 1,0,-1
 220 1 l 1,1,-1
 221 1 l 1,2,-1
 221 -47 l 2,3,4
 221 -111 221 -111 277 -111 c 0,5,6
 298 -111 298 -111 312.5 -106 c 128,-1,7
 327 -101 327 -101 347 -90 c 1,8,-1
 397 -178 l 1,9,10
 342 -220 342 -220 262 -220 c 0,11,12
 174 -220 174 -220 123.5 -173.5 c 128,-1,13
 73 -127 73 -127 73 -38 c 2,14,-1
 73 692 l 1,15,-1
 289 692 l 2,16,17
 428 692 428 692 498 640.5 c 128,-1,18
 568 589 568 589 568 485 c 0,19,20
 568 417 568 417 534.5 373 c 128,-1,21
 501 329 501 329 431 298 c 1,22,-1
 610 0 l 1,23,-1
 443 0 l 1,24,-1
 295 271 l 1,25,-1
 220 271 l 1,0,-1
220 587 m 1,26,-1
 220 375 l 1,27,-1
 297 375 l 2,28,29
 356 375 356 375 386 401.5 c 128,-1,30
 416 428 416 428 416 485 c 0,31,32
 416 538 416 538 384.5 562.5 c 128,-1,33
 353 587 353 587 286 587 c 2,34,-1
 220 587 l 1,26,-1
EndSplineSet
Substitution2: "'ss01' Style Set 1 lookup 33 subtable" uni2C64.ss01
Substitution2: "'salt' Stylistic Alternatives lookup 32 subtable" uni2C64.ss01
Substitution2: "'c2sc' Capitals to Small Capitals lookup 26 subtable" uni2C64.sc
AlternateSubs2: "'aalt' Access All Alternates lookup 1 subtable" uni2C64.sc uni2C64.ss01
Position2: "'cpsp' Capital Spacing lookup 0 subtable" dx=5 dy=0 dh=10 dv=0
EndChar

StartChar: uni2C64.ss01
Encoding: 65544 -1 241
Width: 435
GlyphClass: 2
Flags: W
AnchorPoint: "Anchor-18" 0 0 basechar 0
AnchorPoint: "Anchor-17" 0 0 basechar 0
AnchorPoint: "Anchor-16" 218 692 basechar 0
AnchorPoint: "Anchor-15" 0 0 basechar 0
AnchorPoint: "Anchor-14" 218 -208 basechar 0
LayerCount: 2
Fore
SplineSet
268.5 531 m 128,-1,1
 236 497 236 497 220 429 c 1,2,-1
 220 1 l 1,3,-1
 221 1 l 1,4,-1
 221 -47 l 2,5,6
 221 -111 221 -111 277 -111 c 0,7,8
 298 -111 298 -111 312.5 -106 c 128,-1,9
 327 -101 327 -101 347 -90 c 1,10,-1
 397 -178 l 1,11,12
 342 -220 342 -220 262 -220 c 0,13,14
 174 -220 174 -220 123.5 -173.5 c 128,-1,15
 73 -127 73 -127 73 -38 c 2,16,-1
 73 692 l 1,17,-1
 202 692 l 1,18,-1
 214 595 l 1,19,20
 235 649 235 649 275 678 c 128,-1,21
 315 707 315 707 373 707 c 0,22,23
 410 707 410 707 440 697 c 1,24,-1
 414 557 l 1,25,26
 386 565 386 565 356 565 c 0,27,0
 301 565 301 565 268.5 531 c 128,-1,1
EndSplineSet
Position2: "'cpsp' Capital Spacing lookup 0 subtable" dx=5 dy=0 dh=10 dv=0
EndChar

StartChar: S
Encoding: 83 83 242
Width: 565
GlyphClass: 2
Flags: W
AnchorPoint: "Anchor-18" 0 0 basechar 0
AnchorPoint: "Anchor-17" 0 0 basechar 0
AnchorPoint: "Anchor-16" 291 692 basechar 0
AnchorPoint: "Anchor-15" 0 0 basechar 0
AnchorPoint: "Anchor-14" 279 0 basechar 0
LayerCount: 2
Fore
SplineSet
414.5 686.5 m 128,-1,1
 470 665 470 665 517 621 c 1,2,-1
 447 540 l 1,3,4
 410 570 410 570 373 584 c 128,-1,5
 336 598 336 598 294 598 c 0,6,7
 248 598 248 598 220.5 578.5 c 128,-1,8
 193 559 193 559 193 523 c 0,9,10
 193 498 193 498 204.5 482 c 128,-1,11
 216 466 216 466 245 452 c 128,-1,12
 274 438 274 438 332 420 c 0,13,14
 435 387 435 387 486 338.5 c 128,-1,15
 537 290 537 290 537 200 c 0,16,17
 537 136 537 136 505 87.5 c 128,-1,18
 473 39 473 39 412 11.5 c 128,-1,19
 351 -16 351 -16 269 -16 c 256,20,21
 187 -16 187 -16 123 10 c 128,-1,22
 59 36 59 36 13 81 c 1,23,-1
 88 164 l 1,24,25
 128 130 128 130 171 112.5 c 128,-1,26
 214 95 214 95 265 95 c 0,27,28
 319 95 319 95 351.5 120 c 128,-1,29
 384 145 384 145 384 190 c 0,30,31
 384 218 384 218 372.5 236.5 c 128,-1,32
 361 255 361 255 333 270 c 128,-1,33
 305 285 305 285 252 301 c 0,34,35
 139 336 139 336 90.5 385 c 128,-1,36
 42 434 42 434 42 513 c 0,37,38
 42 571 42 571 73 615.5 c 128,-1,39
 104 660 104 660 159 684 c 128,-1,40
 214 708 214 708 284 708 c 0,41,0
 359 708 359 708 414.5 686.5 c 128,-1,1
EndSplineSet
Substitution2: "'c2sc' Capitals to Small Capitals lookup 26 subtable" s.sc
Substitution2: "'aalt' Access All Alternates lookup 0 subtable" s.sc
Position2: "'cpsp' Capital Spacing lookup 0 subtable" dx=5 dy=0 dh=10 dv=0
EndChar

StartChar: uniA78B
Encoding: 42891 42891 245
Width: 244
GlyphClass: 2
Flags: W
LayerCount: 2
Fore
SplineSet
68 337 m 1,0,-1
 51 692 l 1,1,-1
 193 692 l 1,2,-1
 175 337 l 1,3,-1
 68 337 l 1,0,-1
EndSplineSet
Position2: "'cpsp' Capital Spacing lookup 0 subtable" dx=5 dy=0 dh=10 dv=0
EndChar

StartChar: Scedilla
Encoding: 350 350 247
Width: 565
GlyphClass: 2
Flags: W
AnchorPoint: "Anchor-18" 0 0 basechar 0
AnchorPoint: "Anchor-17" 0 0 basechar 0
AnchorPoint: "Anchor-16" 291 692 basechar 0
AnchorPoint: "Anchor-15" 0 0 basechar 0
AnchorPoint: "Anchor-14" 296 -257 basechar 0
LayerCount: 2
Fore
SplineSet
478.5 56 m 128,-1,1
 420 -2 420 -2 318 -13 c 1,2,-1
 318 -50 l 1,3,4
 369 -55 369 -55 394 -80.5 c 128,-1,5
 419 -106 419 -106 419 -146 c 0,6,7
 419 -196 419 -196 379.5 -226.5 c 128,-1,8
 340 -257 340 -257 276 -257 c 0,9,10
 243 -257 243 -257 215.5 -249 c 128,-1,11
 188 -241 188 -241 169 -228 c 1,12,-1
 202 -160 l 1,13,14
 233 -177 233 -177 266 -177 c 0,15,16
 314 -177 314 -177 314 -145 c 0,17,18
 314 -126 314 -126 292.5 -117.5 c 128,-1,19
 271 -109 271 -109 222 -109 c 1,20,-1
 234 -15 l 1,21,22
 100 -4 100 -4 13 81 c 1,23,-1
 88 164 l 1,24,25
 128 130 128 130 171 112.5 c 128,-1,26
 214 95 214 95 265 95 c 0,27,28
 319 95 319 95 351.5 120 c 128,-1,29
 384 145 384 145 384 190 c 0,30,31
 384 218 384 218 372.5 236.5 c 128,-1,32
 361 255 361 255 333 270 c 128,-1,33
 305 285 305 285 252 301 c 0,34,35
 139 336 139 336 90.5 385 c 128,-1,36
 42 434 42 434 42 513 c 0,37,38
 42 571 42 571 73 615.5 c 128,-1,39
 104 660 104 660 159 684 c 128,-1,40
 214 708 214 708 284 708 c 0,41,42
 359 708 359 708 414.5 686.5 c 128,-1,43
 470 665 470 665 517 621 c 1,44,-1
 447 540 l 1,45,46
 410 570 410 570 373 584 c 128,-1,47
 336 598 336 598 294 598 c 0,48,49
 248 598 248 598 220.5 578.5 c 128,-1,50
 193 559 193 559 193 523 c 0,51,52
 193 498 193 498 204.5 482 c 128,-1,53
 216 466 216 466 245 452 c 128,-1,54
 274 438 274 438 332 420 c 0,55,56
 435 387 435 387 486 338.5 c 128,-1,57
 537 290 537 290 537 200 c 0,58,0
 537 114 537 114 478.5 56 c 128,-1,1
EndSplineSet
Substitution2: "'c2sc' Capitals to Small Capitals lookup 26 subtable" scedilla.sc
Substitution2: "'locl' Localized Forms in Latin lookup 5 subtable" Scommaaccent
Substitution2: "'locl' Localized Forms in Latin lookup 4 subtable" Scommaaccent
AlternateSubs2: "'aalt' Access All Alternates lookup 1 subtable" Scommaaccent scedilla.sc
Position2: "'cpsp' Capital Spacing lookup 0 subtable" dx=5 dy=0 dh=10 dv=0
EndChar

StartChar: uni1E9E
Encoding: 7838 7838 252
Width: 666
GlyphClass: 2
Flags: W
LayerCount: 2
Fore
SplineSet
454 689.5 m 128,-1,1
 520 671 520 671 589 637 c 1,2,-1
 589 565 l 1,3,-1
 435 392 l 1,4,5
 531 379 531 379 583.5 331 c 128,-1,6
 636 283 636 283 636 196 c 0,7,8
 636 129 636 129 605 81 c 128,-1,9
 574 33 574 33 520 8.5 c 128,-1,10
 466 -16 466 -16 398 -16 c 0,11,12
 322 -16 322 -16 270 10 c 1,13,-1
 314 109 l 1,14,15
 343 97 343 97 381 97 c 0,16,17
 428 97 428 97 455 121.5 c 128,-1,18
 482 146 482 146 482 197 c 0,19,20
 482 254 482 254 439.5 283 c 128,-1,21
 397 312 397 312 306 317 c 1,22,-1
 306 400 l 1,23,-1
 453 572 l 1,24,25
 385 598 385 598 318 598 c 0,26,27
 269 598 269 598 244.5 571.5 c 128,-1,28
 220 545 220 545 220 489 c 2,29,-1
 220 0 l 1,30,-1
 73 0 l 1,31,-1
 73 486 l 2,32,33
 73 591 73 591 134 649.5 c 128,-1,34
 195 708 195 708 310 708 c 0,35,0
 388 708 388 708 454 689.5 c 128,-1,1
EndSplineSet
Substitution2: "'c2sc' Capitals to Small Capitals lookup 26 subtable" germandbls.sc
Substitution2: "'aalt' Access All Alternates lookup 0 subtable" germandbls.sc
Position2: "'cpsp' Capital Spacing lookup 0 subtable" dx=5 dy=0 dh=10 dv=0
EndChar

StartChar: T
Encoding: 84 84 254
Width: 534
GlyphClass: 2
Flags: W
AnchorPoint: "Anchor-18" 267 346 basechar 0
AnchorPoint: "Anchor-17" 0 0 basechar 0
AnchorPoint: "Anchor-16" 267 692 basechar 0
AnchorPoint: "Anchor-15" 0 0 basechar 0
AnchorPoint: "Anchor-14" 267 0 basechar 0
LayerCount: 2
Fore
SplineSet
532 692 m 1,0,-1
 516 577 l 1,1,-1
 341 577 l 1,2,-1
 341 0 l 1,3,-1
 194 0 l 1,4,-1
 194 577 l 1,5,-1
 10 577 l 1,6,-1
 10 692 l 1,7,-1
 532 692 l 1,0,-1
EndSplineSet
Substitution2: "'c2sc' Capitals to Small Capitals lookup 26 subtable" t.sc
Substitution2: "'aalt' Access All Alternates lookup 0 subtable" t.sc
Position2: "'cpsp' Capital Spacing lookup 0 subtable" dx=5 dy=0 dh=10 dv=0
EndChar

StartChar: Tbar
Encoding: 358 358 255
Width: 534
GlyphClass: 2
Flags: W
AnchorPoint: "Anchor-18" 267 345 basechar 0
AnchorPoint: "Anchor-17" 0 0 basechar 0
AnchorPoint: "Anchor-16" 267 691 basechar 0
AnchorPoint: "Anchor-15" 0 0 basechar 0
AnchorPoint: "Anchor-14" 267 -1 basechar 0
LayerCount: 2
Fore
SplineSet
516 576 m 1,0,-1
 341 576 l 1,1,-1
 341 389 l 1,2,-1
 458 389 l 1,3,-1
 458 302 l 1,4,-1
 341 302 l 1,5,-1
 341 -1 l 1,6,-1
 194 -1 l 1,7,-1
 194 302 l 1,8,-1
 77 302 l 1,9,-1
 77 389 l 1,10,-1
 194 389 l 1,11,-1
 194 576 l 1,12,-1
 10 576 l 1,13,-1
 10 691 l 1,14,-1
 532 691 l 1,15,-1
 516 576 l 1,0,-1
EndSplineSet
Substitution2: "'c2sc' Capitals to Small Capitals lookup 26 subtable" tbar.sc
Substitution2: "'aalt' Access All Alternates lookup 0 subtable" tbar.sc
Position2: "'cpsp' Capital Spacing lookup 0 subtable" dx=5 dy=0 dh=10 dv=0
EndChar

StartChar: uni0162
Encoding: 354 354 257
Width: 534
GlyphClass: 2
Flags: W
AnchorPoint: "Anchor-18" 267 346 basechar 0
AnchorPoint: "Anchor-17" 0 0 basechar 0
AnchorPoint: "Anchor-16" 267 692 basechar 0
AnchorPoint: "Anchor-15" 0 0 basechar 0
AnchorPoint: "Anchor-14" 267 0 basechar 0
LayerCount: 2
Fore
SplineSet
418.5 -80.5 m 128,-1,1
 444 -106 444 -106 444 -146 c 0,2,3
 444 -196 444 -196 404 -226.5 c 128,-1,4
 364 -257 364 -257 299 -257 c 0,5,6
 268 -257 268 -257 240 -249 c 128,-1,7
 212 -241 212 -241 194 -228 c 1,8,-1
 227 -160 l 1,9,10
 258 -177 258 -177 288 -177 c 0,11,12
 339 -177 339 -177 339 -144 c 0,13,14
 339 -126 339 -126 317 -117.5 c 128,-1,15
 295 -109 295 -109 247 -109 c 1,16,-1
 261 0 l 1,17,-1
 194 0 l 1,18,-1
 194 577 l 1,19,-1
 10 577 l 1,20,-1
 10 692 l 1,21,-1
 532 692 l 1,22,-1
 516 577 l 1,23,-1
 341 577 l 1,24,-1
 341 -50 l 1,25,0
 393 -55 393 -55 418.5 -80.5 c 128,-1,1
EndSplineSet
Substitution2: "'c2sc' Capitals to Small Capitals lookup 26 subtable" uni0163.sc
Substitution2: "'locl' Localized Forms in Latin lookup 5 subtable" uni021A
Substitution2: "'locl' Localized Forms in Latin lookup 4 subtable" uni021A
AlternateSubs2: "'aalt' Access All Alternates lookup 1 subtable" uni021A uni0163.sc
Position2: "'cpsp' Capital Spacing lookup 0 subtable" dx=5 dy=0 dh=10 dv=0
EndChar

StartChar: uni023E
Encoding: 574 574 260
Width: 534
GlyphClass: 2
Flags: W
AnchorPoint: "Anchor-18" 0 0 basechar 0
AnchorPoint: "Anchor-17" 0 0 basechar 0
AnchorPoint: "Anchor-16" 267 692 basechar 0
AnchorPoint: "Anchor-15" 0 0 basechar 0
AnchorPoint: "Anchor-14" 267 0 basechar 0
LayerCount: 2
Fore
SplineSet
516 582 m 1,0,-1
 426 582 l 1,1,-1
 333 373 l 1,2,-1
 333 0 l 1,3,-1
 201 0 l 1,4,-1
 201 79 l 1,5,-1
 133 -73 l 1,6,-1
 85 -51 l 1,7,-1
 201 209 l 1,8,-1
 201 582 l 1,9,-1
 10 582 l 1,10,-1
 10 692 l 1,11,-1
 417 692 l 1,12,-1
 446 757 l 1,13,-1
 495 735 l 1,14,-1
 476 692 l 1,15,-1
 532 692 l 1,16,-1
 516 582 l 1,0,-1
333 504 m 1,17,-1
 368 582 l 1,18,-1
 333 582 l 1,19,-1
 333 504 l 1,17,-1
EndSplineSet
Substitution2: "'c2sc' Capitals to Small Capitals lookup 26 subtable" uni2C66.sc
Substitution2: "'aalt' Access All Alternates lookup 0 subtable" uni2C66.sc
Position2: "'cpsp' Capital Spacing lookup 0 subtable" dx=5 dy=0 dh=10 dv=0
EndChar

StartChar: uni01AC
Encoding: 428 428 263
Width: 585
GlyphClass: 2
Flags: W
AnchorPoint: "Anchor-18" 0 0 basechar 0
AnchorPoint: "Anchor-17" 0 0 basechar 0
AnchorPoint: "Anchor-16" 293 692 basechar 0
AnchorPoint: "Anchor-15" 0 0 basechar 0
AnchorPoint: "Anchor-14" 318 0 basechar 0
LayerCount: 2
Fore
SplineSet
567 577 m 1,0,-1
 392 577 l 1,1,-1
 392 0 l 1,2,-1
 244 0 l 1,3,-1
 244 577 l 1,4,-1
 173 577 l 2,5,6
 149 577 149 577 137 566 c 128,-1,7
 125 555 125 555 125 536 c 0,8,9
 125 520 125 520 129 508.5 c 128,-1,10
 133 497 133 497 142 476 c 1,11,-1
 43 432 l 1,12,13
 5 493 5 493 5 548 c 0,14,15
 5 615 5 615 53 653.5 c 128,-1,16
 101 692 101 692 186 692 c 2,17,-1
 582 692 l 1,18,-1
 567 577 l 1,0,-1
EndSplineSet
Substitution2: "'c2sc' Capitals to Small Capitals lookup 26 subtable" uni01AD.sc
Substitution2: "'aalt' Access All Alternates lookup 0 subtable" uni01AD.sc
Position2: "'cpsp' Capital Spacing lookup 0 subtable" dx=5 dy=0 dh=10 dv=0
EndChar

StartChar: uni0184
Encoding: 388 388 266
Width: 605
GlyphClass: 2
Flags: W
AnchorPoint: "Anchor-18" 0 0 basechar 0
AnchorPoint: "Anchor-17" 0 0 basechar 0
AnchorPoint: "Anchor-16" 303 692 basechar 0
AnchorPoint: "Anchor-15" 0 0 basechar 0
AnchorPoint: "Anchor-14" 303 0 basechar 0
LayerCount: 2
Fore
SplineSet
516 397 m 128,-1,1
 587 342 587 342 587 232 c 0,2,3
 587 115 587 115 513.5 57.5 c 128,-1,4
 440 0 440 0 316 0 c 2,5,-1
 89 0 l 1,6,-1
 89 500 l 1,7,-1
 16 548 l 1,8,9
 71 606 71 606 111 692 c 1,10,-1
 236 692 l 1,11,-1
 236 452 l 1,12,-1
 315 452 l 2,13,0
 445 452 445 452 516 397 c 128,-1,1
401 137 m 128,-1,15
 433 165 433 165 433 230 c 0,16,17
 433 290 433 290 401 318.5 c 128,-1,18
 369 347 369 347 304 347 c 2,19,-1
 236 347 l 1,20,-1
 236 109 l 1,21,-1
 308 109 l 2,22,14
 369 109 369 109 401 137 c 128,-1,15
EndSplineSet
Substitution2: "'c2sc' Capitals to Small Capitals lookup 26 subtable" uni0185.sc
Substitution2: "'aalt' Access All Alternates lookup 0 subtable" uni0185.sc
Position2: "'cpsp' Capital Spacing lookup 0 subtable" dx=5 dy=0 dh=10 dv=0
EndChar

StartChar: uni01A7
Encoding: 423 423 267
Width: 556
GlyphClass: 2
Flags: W
AnchorPoint: "Anchor-18" 0 0 basechar 0
AnchorPoint: "Anchor-17" 0 0 basechar 0
AnchorPoint: "Anchor-16" 278 692 basechar 0
AnchorPoint: "Anchor-15" 0 0 basechar 0
AnchorPoint: "Anchor-14" 278 0 basechar 0
LayerCount: 2
Fore
SplineSet
413 684.5 m 128,-1,1
 467 661 467 661 496.5 617.5 c 128,-1,2
 526 574 526 574 526 517 c 0,3,4
 526 439 526 439 475.5 390.5 c 128,-1,5
 425 342 425 342 313 308 c 0,6,7
 238 285 238 285 209.5 258 c 128,-1,8
 181 231 181 231 181 189 c 0,9,10
 181 145 181 145 212 121 c 128,-1,11
 243 97 243 97 294 97 c 0,12,13
 386 97 386 97 468 163 c 1,14,-1
 543 81 l 1,15,16
 496 36 496 36 431 10 c 128,-1,17
 366 -16 366 -16 284 -16 c 0,18,19
 207 -16 207 -16 149 11 c 128,-1,20
 91 38 91 38 59.5 86.5 c 128,-1,21
 28 135 28 135 28 196 c 0,22,23
 28 283 28 283 79.5 331.5 c 128,-1,24
 131 380 131 380 234 413 c 0,25,26
 290 431 290 431 320 446.5 c 128,-1,27
 350 462 350 462 362 480 c 128,-1,28
 374 498 374 498 374 524 c 0,29,30
 374 561 374 561 348.5 579.5 c 128,-1,31
 323 598 323 598 279 598 c 0,32,33
 233 598 233 598 195.5 584 c 128,-1,34
 158 570 158 570 121 540 c 1,35,-1
 50 621 l 1,36,37
 100 664 100 664 158.5 686 c 128,-1,38
 217 708 217 708 289 708 c 0,39,0
 359 708 359 708 413 684.5 c 128,-1,1
EndSplineSet
Substitution2: "'c2sc' Capitals to Small Capitals lookup 26 subtable" uni01A8.sc
Substitution2: "'aalt' Access All Alternates lookup 0 subtable" uni01A8.sc
Position2: "'cpsp' Capital Spacing lookup 0 subtable" dx=5 dy=0 dh=10 dv=0
EndChar

StartChar: uni01AE
Encoding: 430 430 268
Width: 536
GlyphClass: 2
Flags: W
AnchorPoint: "Anchor-18" 267 346 basechar 0
AnchorPoint: "Anchor-17" 0 0 basechar 0
AnchorPoint: "Anchor-16" 267 692 basechar 0
AnchorPoint: "Anchor-15" 0 0 basechar 0
AnchorPoint: "Anchor-14" 267 0 basechar 0
LayerCount: 2
Fore
SplineSet
432.5 -106 m 128,-1,1
 447 -101 447 -101 467 -90 c 1,2,-1
 517 -178 l 1,3,4
 462 -220 462 -220 382 -220 c 0,5,6
 294 -220 294 -220 243.5 -173.5 c 128,-1,7
 193 -127 193 -127 193 -38 c 2,8,-1
 193 1 l 1,9,-1
 194 1 l 1,10,-1
 194 577 l 1,11,-1
 10 577 l 1,12,-1
 10 692 l 1,13,-1
 532 692 l 1,14,-1
 516 577 l 1,15,-1
 341 577 l 1,16,-1
 341 -47 l 2,17,18
 341 -111 341 -111 397 -111 c 0,19,0
 418 -111 418 -111 432.5 -106 c 128,-1,1
EndSplineSet
Substitution2: "'c2sc' Capitals to Small Capitals lookup 26 subtable" uni0288.sc
Substitution2: "'aalt' Access All Alternates lookup 0 subtable" uni0288.sc
Position2: "'cpsp' Capital Spacing lookup 0 subtable" dx=5 dy=0 dh=10 dv=0
EndChar

StartChar: U
Encoding: 85 85 269
Width: 654
GlyphClass: 2
Flags: W
AnchorPoint: "Anchor-18" 0 0 basechar 0
AnchorPoint: "Anchor-17" 600 692 basechar 0
AnchorPoint: "Anchor-16" 327 692 basechar 0
AnchorPoint: "Anchor-15" 443 0 basechar 0
AnchorPoint: "Anchor-14" 327 0 basechar 0
LayerCount: 2
Fore
SplineSet
590 228 m 2,0,1
 590 157 590 157 560 102 c 128,-1,2
 530 47 530 47 470.5 15.5 c 128,-1,3
 411 -16 411 -16 326 -16 c 0,4,5
 198 -16 198 -16 130.5 50.5 c 128,-1,6
 63 117 63 117 63 228 c 2,7,-1
 63 692 l 1,8,-1
 210 692 l 1,9,-1
 210 235 l 2,10,11
 210 165 210 165 238 130.5 c 128,-1,12
 266 96 266 96 326 96 c 256,13,14
 386 96 386 96 414.5 130.5 c 128,-1,15
 443 165 443 165 443 235 c 2,16,-1
 443 692 l 1,17,-1
 590 692 l 1,18,-1
 590 228 l 2,0,1
EndSplineSet
Substitution2: "'c2sc' Capitals to Small Capitals lookup 26 subtable" u.sc
Substitution2: "'aalt' Access All Alternates lookup 0 subtable" u.sc
Position2: "'cpsp' Capital Spacing lookup 0 subtable" dx=5 dy=0 dh=10 dv=0
EndChar

StartChar: uni0244
Encoding: 580 580 271
Width: 683
GlyphClass: 2
Flags: W
AnchorPoint: "Anchor-18" 0 0 basechar 0
AnchorPoint: "Anchor-17" 615 692 basechar 0
AnchorPoint: "Anchor-16" 342 692 basechar 0
AnchorPoint: "Anchor-15" 458 0 basechar 0
AnchorPoint: "Anchor-14" 342 0 basechar 0
LayerCount: 2
Fore
SplineSet
665 502 m 1,0,-1
 605 502 l 1,1,-1
 605 228 l 2,2,3
 605 157 605 157 575 102 c 128,-1,4
 545 47 545 47 485.5 15.5 c 128,-1,5
 426 -16 426 -16 341 -16 c 0,6,7
 213 -16 213 -16 145.5 50.5 c 128,-1,8
 78 117 78 117 78 228 c 2,9,-1
 78 502 l 1,10,-1
 18 502 l 1,11,-1
 18 588 l 1,12,-1
 78 588 l 1,13,-1
 78 692 l 1,14,-1
 225 692 l 1,15,-1
 225 588 l 1,16,-1
 458 588 l 1,17,-1
 458 692 l 1,18,-1
 605 692 l 1,19,-1
 605 588 l 1,20,-1
 665 588 l 1,21,-1
 665 502 l 1,0,-1
458 502 m 1,22,-1
 225 502 l 1,23,-1
 225 235 l 2,24,25
 225 165 225 165 253 130.5 c 128,-1,26
 281 96 281 96 341 96 c 256,27,28
 401 96 401 96 429.5 130.5 c 128,-1,29
 458 165 458 165 458 235 c 2,30,-1
 458 502 l 1,22,-1
EndSplineSet
Substitution2: "'c2sc' Capitals to Small Capitals lookup 26 subtable" uni0289.sc
Substitution2: "'aalt' Access All Alternates lookup 0 subtable" uni0289.sc
Position2: "'cpsp' Capital Spacing lookup 0 subtable" dx=5 dy=0 dh=10 dv=0
EndChar

StartChar: Uhorn
Encoding: 431 431 284
Width: 713
GlyphClass: 2
Flags: W
AnchorPoint: "Anchor-18" 0 0 basechar 0
AnchorPoint: "Anchor-17" 652 692 basechar 0
AnchorPoint: "Anchor-16" 327 692 basechar 0
AnchorPoint: "Anchor-15" 443 0 basechar 0
AnchorPoint: "Anchor-14" 327 0 basechar 0
LayerCount: 2
Fore
SplineSet
733 686 m 0,1,2
 733 627 733 627 695.5 596.5 c 128,-1,3
 658 566 658 566 590 564 c 1,4,-1
 590 228 l 2,5,6
 590 157 590 157 560 102 c 128,-1,7
 530 47 530 47 470.5 15.5 c 128,-1,8
 411 -16 411 -16 326 -16 c 0,9,10
 198 -16 198 -16 130.5 50.5 c 128,-1,11
 63 117 63 117 63 228 c 2,12,-1
 63 692 l 1,13,-1
 210 692 l 1,14,-1
 210 235 l 2,15,16
 210 165 210 165 238 130.5 c 128,-1,17
 266 96 266 96 326 96 c 256,18,19
 386 96 386 96 414.5 130.5 c 128,-1,20
 443 165 443 165 443 235 c 2,21,-1
 443 692 l 1,22,-1
 590 692 l 1,23,-1
 590 636 l 1,24,25
 612 640 612 640 622 653 c 128,-1,26
 632 666 632 666 632 689 c 0,27,28
 632 726 632 726 619 758 c 1,29,-1
 714 773 l 1,30,0
 733 737 733 737 733 686 c 0,1,2
EndSplineSet
Substitution2: "'c2sc' Capitals to Small Capitals lookup 26 subtable" uhorn.sc
Substitution2: "'aalt' Access All Alternates lookup 0 subtable" uhorn.sc
Position2: "'cpsp' Capital Spacing lookup 0 subtable" dx=5 dy=0 dh=10 dv=0
EndChar

StartChar: uni1EE8
Encoding: 7912 7912 285
Width: 713
GlyphClass: 2
Flags: W
AnchorPoint: "Anchor-18" 0 0 basechar 0
AnchorPoint: "Anchor-17" 652 692 basechar 0
AnchorPoint: "Anchor-16" 329 945 basechar 0
AnchorPoint: "Anchor-15" 443 0 basechar 0
AnchorPoint: "Anchor-14" 327 0 basechar 0
LayerCount: 2
Fore
SplineSet
462 837 m 1,0,-1
 228 752 l 1,1,-1
 192 825 l 1,2,-1
 408 945 l 1,3,-1
 462 837 l 1,0,-1
733 686 m 0,5,6
 733 627 733 627 695.5 596.5 c 128,-1,7
 658 566 658 566 590 564 c 1,8,-1
 590 228 l 2,9,10
 590 157 590 157 560 102 c 128,-1,11
 530 47 530 47 470.5 15.5 c 128,-1,12
 411 -16 411 -16 326 -16 c 0,13,14
 198 -16 198 -16 130.5 50.5 c 128,-1,15
 63 117 63 117 63 228 c 2,16,-1
 63 692 l 1,17,-1
 210 692 l 1,18,-1
 210 235 l 2,19,20
 210 165 210 165 238 130.5 c 128,-1,21
 266 96 266 96 326 96 c 256,22,23
 386 96 386 96 414.5 130.5 c 128,-1,24
 443 165 443 165 443 235 c 2,25,-1
 443 692 l 1,26,-1
 590 692 l 1,27,-1
 590 636 l 1,28,29
 612 640 612 640 622 653 c 128,-1,30
 632 666 632 666 632 689 c 0,31,32
 632 726 632 726 619 758 c 1,33,-1
 714 773 l 1,34,4
 733 737 733 737 733 686 c 0,5,6
EndSplineSet
Substitution2: "'c2sc' Capitals to Small Capitals lookup 26 subtable" uni1EE9.sc
Substitution2: "'aalt' Access All Alternates lookup 0 subtable" uni1EE9.sc
Position2: "'cpsp' Capital Spacing lookup 0 subtable" dx=5 dy=0 dh=10 dv=0
EndChar

StartChar: uni1EF0
Encoding: 7920 7920 286
Width: 713
GlyphClass: 2
Flags: W
AnchorPoint: "Anchor-18" 0 0 basechar 0
AnchorPoint: "Anchor-17" 652 692 basechar 0
AnchorPoint: "Anchor-16" 327 692 basechar 0
AnchorPoint: "Anchor-15" 443 0 basechar 0
AnchorPoint: "Anchor-14" 329 -208 basechar 0
LayerCount: 2
Fore
SplineSet
733 686 m 0,1,2
 733 627 733 627 695.5 596.5 c 128,-1,3
 658 566 658 566 590 564 c 1,4,-1
 590 228 l 2,5,6
 590 157 590 157 560 102 c 128,-1,7
 530 47 530 47 470.5 15.5 c 128,-1,8
 411 -16 411 -16 326 -16 c 0,9,10
 198 -16 198 -16 130.5 50.5 c 128,-1,11
 63 117 63 117 63 228 c 2,12,-1
 63 692 l 1,13,-1
 210 692 l 1,14,-1
 210 235 l 2,15,16
 210 165 210 165 238 130.5 c 128,-1,17
 266 96 266 96 326 96 c 256,18,19
 386 96 386 96 414.5 130.5 c 128,-1,20
 443 165 443 165 443 235 c 2,21,-1
 443 692 l 1,22,-1
 590 692 l 1,23,-1
 590 636 l 1,24,25
 612 640 612 640 622 653 c 128,-1,26
 632 666 632 666 632 689 c 0,27,28
 632 726 632 726 619 758 c 1,29,-1
 714 773 l 1,30,0
 733 737 733 737 733 686 c 0,1,2
389 -87.5 m 128,-1,32
 413 -111 413 -111 413 -147 c 256,33,34
 413 -183 413 -183 389 -206.5 c 128,-1,35
 365 -230 365 -230 327 -230 c 256,36,37
 289 -230 289 -230 264.5 -206.5 c 128,-1,38
 240 -183 240 -183 240 -147 c 256,39,40
 240 -111 240 -111 264.5 -87.5 c 128,-1,41
 289 -64 289 -64 327 -64 c 256,42,31
 365 -64 365 -64 389 -87.5 c 128,-1,32
EndSplineSet
Substitution2: "'c2sc' Capitals to Small Capitals lookup 26 subtable" uni1EF1.sc
Substitution2: "'aalt' Access All Alternates lookup 0 subtable" uni1EF1.sc
Position2: "'cpsp' Capital Spacing lookup 0 subtable" dx=5 dy=0 dh=10 dv=0
EndChar

StartChar: uni1EEA
Encoding: 7914 7914 287
Width: 713
GlyphClass: 2
Flags: W
AnchorPoint: "Anchor-18" 0 0 basechar 0
AnchorPoint: "Anchor-17" 652 692 basechar 0
AnchorPoint: "Anchor-16" 328 945 basechar 0
AnchorPoint: "Anchor-15" 443 0 basechar 0
AnchorPoint: "Anchor-14" 327 0 basechar 0
LayerCount: 2
Fore
SplineSet
457 825 m 1,0,-1
 421 752 l 1,1,-1
 187 837 l 1,2,-1
 241 945 l 1,3,-1
 457 825 l 1,0,-1
733 686 m 0,5,6
 733 627 733 627 695.5 596.5 c 128,-1,7
 658 566 658 566 590 564 c 1,8,-1
 590 228 l 2,9,10
 590 157 590 157 560 102 c 128,-1,11
 530 47 530 47 470.5 15.5 c 128,-1,12
 411 -16 411 -16 326 -16 c 0,13,14
 198 -16 198 -16 130.5 50.5 c 128,-1,15
 63 117 63 117 63 228 c 2,16,-1
 63 692 l 1,17,-1
 210 692 l 1,18,-1
 210 235 l 2,19,20
 210 165 210 165 238 130.5 c 128,-1,21
 266 96 266 96 326 96 c 256,22,23
 386 96 386 96 414.5 130.5 c 128,-1,24
 443 165 443 165 443 235 c 2,25,-1
 443 692 l 1,26,-1
 590 692 l 1,27,-1
 590 636 l 1,28,29
 612 640 612 640 622 653 c 128,-1,30
 632 666 632 666 632 689 c 0,31,32
 632 726 632 726 619 758 c 1,33,-1
 714 773 l 1,34,4
 733 737 733 737 733 686 c 0,5,6
EndSplineSet
Substitution2: "'c2sc' Capitals to Small Capitals lookup 26 subtable" uni1EEB.sc
Substitution2: "'aalt' Access All Alternates lookup 0 subtable" uni1EEB.sc
Position2: "'cpsp' Capital Spacing lookup 0 subtable" dx=5 dy=0 dh=10 dv=0
EndChar

StartChar: uni1EEC
Encoding: 7916 7916 288
Width: 713
GlyphClass: 2
Flags: W
AnchorPoint: "Anchor-18" 0 0 basechar 0
AnchorPoint: "Anchor-17" 652 692 basechar 0
AnchorPoint: "Anchor-16" 338 997 basechar 0
AnchorPoint: "Anchor-15" 443 0 basechar 0
AnchorPoint: "Anchor-14" 327 0 basechar 0
LayerCount: 2
Fore
SplineSet
253 910 m 1,1,-1
 228 972 l 1,2,3
 272 998 272 998 333 998 c 0,4,5
 390 998 390 998 422 970.5 c 128,-1,6
 454 943 454 943 454 898 c 0,7,8
 454 823 454 823 370 807 c 1,9,-1
 370 763 l 1,10,-1
 282 763 l 1,11,-1
 282 852 l 1,12,13
 320 854 320 854 336.5 862.5 c 128,-1,14
 353 871 353 871 353 891 c 0,15,16
 353 907 353 907 342.5 915 c 128,-1,17
 332 923 332 923 313 923 c 0,18,0
 286 923 286 923 253 910 c 1,1,-1
733 686 m 0,20,21
 733 627 733 627 695.5 596.5 c 128,-1,22
 658 566 658 566 590 564 c 1,23,-1
 590 228 l 2,24,25
 590 157 590 157 560 102 c 128,-1,26
 530 47 530 47 470.5 15.5 c 128,-1,27
 411 -16 411 -16 326 -16 c 0,28,29
 198 -16 198 -16 130.5 50.5 c 128,-1,30
 63 117 63 117 63 228 c 2,31,-1
 63 692 l 1,32,-1
 210 692 l 1,33,-1
 210 235 l 2,34,35
 210 165 210 165 238 130.5 c 128,-1,36
 266 96 266 96 326 96 c 256,37,38
 386 96 386 96 414.5 130.5 c 128,-1,39
 443 165 443 165 443 235 c 2,40,-1
 443 692 l 1,41,-1
 590 692 l 1,42,-1
 590 636 l 1,43,44
 612 640 612 640 622 653 c 128,-1,45
 632 666 632 666 632 689 c 0,46,47
 632 726 632 726 619 758 c 1,48,-1
 714 773 l 1,49,19
 733 737 733 737 733 686 c 0,20,21
EndSplineSet
Substitution2: "'c2sc' Capitals to Small Capitals lookup 26 subtable" uni1EED.sc
Substitution2: "'aalt' Access All Alternates lookup 0 subtable" uni1EED.sc
Position2: "'cpsp' Capital Spacing lookup 0 subtable" dx=5 dy=0 dh=10 dv=0
EndChar

StartChar: uni1EEE
Encoding: 7918 7918 289
Width: 713
GlyphClass: 2
Flags: W
AnchorPoint: "Anchor-18" 0 0 basechar 0
AnchorPoint: "Anchor-17" 652 692 basechar 0
AnchorPoint: "Anchor-16" 329 914 basechar 0
AnchorPoint: "Anchor-15" 443 0 basechar 0
AnchorPoint: "Anchor-14" 327 0 basechar 0
LayerCount: 2
Fore
SplineSet
242 801 m 128,-1,1
 230 790 230 790 217 767 c 1,2,-1
 144 803 l 1,3,4
 164 852 164 852 196 883 c 128,-1,5
 228 914 228 914 268 914 c 0,6,7
 291 914 291 914 307 906.5 c 128,-1,8
 323 899 323 899 343 886 c 0,9,10
 356 877 356 877 365 872.5 c 128,-1,11
 374 868 374 868 384 868 c 0,12,13
 400 868 400 868 411.5 878.5 c 128,-1,14
 423 889 423 889 437 912 c 1,15,-1
 510 876 l 1,16,17
 490 825 490 825 458 795.5 c 128,-1,18
 426 766 426 766 385 766 c 0,19,20
 364 766 364 766 348.5 773 c 128,-1,21
 333 780 333 780 312 793 c 0,22,23
 299 803 299 803 289.5 807.5 c 128,-1,24
 280 812 280 812 270 812 c 0,25,0
 254 812 254 812 242 801 c 128,-1,1
733 686 m 0,27,28
 733 627 733 627 695.5 596.5 c 128,-1,29
 658 566 658 566 590 564 c 1,30,-1
 590 228 l 2,31,32
 590 157 590 157 560 102 c 128,-1,33
 530 47 530 47 470.5 15.5 c 128,-1,34
 411 -16 411 -16 326 -16 c 0,35,36
 198 -16 198 -16 130.5 50.5 c 128,-1,37
 63 117 63 117 63 228 c 2,38,-1
 63 692 l 1,39,-1
 210 692 l 1,40,-1
 210 235 l 2,41,42
 210 165 210 165 238 130.5 c 128,-1,43
 266 96 266 96 326 96 c 256,44,45
 386 96 386 96 414.5 130.5 c 128,-1,46
 443 165 443 165 443 235 c 2,47,-1
 443 692 l 1,48,-1
 590 692 l 1,49,-1
 590 636 l 1,50,51
 612 640 612 640 622 653 c 128,-1,52
 632 666 632 666 632 689 c 0,53,54
 632 726 632 726 619 758 c 1,55,-1
 714 773 l 1,56,26
 733 737 733 737 733 686 c 0,27,28
EndSplineSet
Substitution2: "'c2sc' Capitals to Small Capitals lookup 26 subtable" uni1EEF.sc
Substitution2: "'aalt' Access All Alternates lookup 0 subtable" uni1EEF.sc
Position2: "'cpsp' Capital Spacing lookup 0 subtable" dx=5 dy=0 dh=10 dv=0
EndChar

StartChar: Uogonek
Encoding: 370 370 293
Width: 654
GlyphClass: 2
Flags: W
AnchorPoint: "Anchor-18" 0 0 basechar 0
AnchorPoint: "Anchor-17" 600 692 basechar 0
AnchorPoint: "Anchor-16" 327 692 basechar 0
AnchorPoint: "Anchor-15" 443 0 basechar 0
AnchorPoint: "Anchor-14" 327 0 basechar 0
LayerCount: 2
Fore
SplineSet
590 692 m 1,0,-1
 590 228 l 2,1,2
 590 145 590 145 549 84 c 128,-1,3
 508 23 508 23 430 -1 c 1,4,5
 364 -27 364 -27 339 -53 c 128,-1,6
 314 -79 314 -79 314 -105 c 0,7,8
 314 -151 314 -151 367 -151 c 0,9,10
 396 -151 396 -151 428 -144 c 1,11,-1
 418 -235 l 1,12,13
 381 -242 381 -242 350 -242 c 0,14,15
 287 -242 287 -242 247.5 -211.5 c 128,-1,16
 208 -181 208 -181 208 -130 c 0,17,18
 208 -56 208 -56 295 -15 c 1,19,20
 182 -7 182 -7 122.5 58.5 c 128,-1,21
 63 124 63 124 63 228 c 2,22,-1
 63 692 l 1,23,-1
 210 692 l 1,24,-1
 210 235 l 2,25,26
 210 165 210 165 238 130.5 c 128,-1,27
 266 96 266 96 326 96 c 256,28,29
 386 96 386 96 414.5 130.5 c 128,-1,30
 443 165 443 165 443 235 c 2,31,-1
 443 692 l 1,32,-1
 590 692 l 1,0,-1
EndSplineSet
Substitution2: "'c2sc' Capitals to Small Capitals lookup 26 subtable" uogonek.sc
Substitution2: "'aalt' Access All Alternates lookup 0 subtable" uogonek.sc
Position2: "'cpsp' Capital Spacing lookup 0 subtable" dx=5 dy=0 dh=10 dv=0
EndChar

StartChar: uni01B1
Encoding: 433 433 294
Width: 691
GlyphClass: 2
Flags: W
AnchorPoint: "Anchor-18" 0 0 basechar 0
AnchorPoint: "Anchor-17" 0 0 basechar 0
AnchorPoint: "Anchor-16" 346 692 basechar 0
AnchorPoint: "Anchor-15" 0 0 basechar 0
AnchorPoint: "Anchor-14" 346 0 basechar 0
LayerCount: 2
Fore
SplineSet
181.5 25 m 128,-1,1
 112 66 112 66 75 138.5 c 128,-1,2
 38 211 38 211 38 305 c 0,3,4
 38 406 38 406 72.5 471.5 c 128,-1,5
 107 537 107 537 169 584 c 1,6,-1
 60 584 l 1,7,-1
 60 692 l 1,8,-1
 287 692 l 1,9,-1
 287 589 l 1,10,11
 238 538 238 538 215.5 475 c 128,-1,12
 193 412 193 412 193 305 c 0,13,14
 193 200 193 200 232 147 c 128,-1,15
 271 94 271 94 346 94 c 0,16,17
 420 94 420 94 459 147.5 c 128,-1,18
 498 201 498 201 498 306 c 0,19,20
 498 410 498 410 474.5 473.5 c 128,-1,21
 451 537 451 537 404 589 c 1,22,-1
 404 692 l 1,23,-1
 632 692 l 1,24,-1
 632 584 l 1,25,-1
 522 584 l 1,26,27
 584 542 584 542 618.5 475.5 c 128,-1,28
 653 409 653 409 653 306 c 0,29,30
 653 214 653 214 615.5 140.5 c 128,-1,31
 578 67 578 67 508.5 25.5 c 128,-1,32
 439 -16 439 -16 346 -16 c 0,33,0
 251 -16 251 -16 181.5 25 c 128,-1,1
EndSplineSet
Substitution2: "'c2sc' Capitals to Small Capitals lookup 26 subtable" uni01B1.sc
Substitution2: "'aalt' Access All Alternates lookup 0 subtable" uni01B1.sc
Position2: "'cpsp' Capital Spacing lookup 0 subtable" dx=5 dy=0 dh=10 dv=0
EndChar

StartChar: V
Encoding: 86 86 298
Width: 567
GlyphClass: 2
Flags: W
AnchorPoint: "Anchor-18" 0 0 basechar 0
AnchorPoint: "Anchor-17" 0 0 basechar 0
AnchorPoint: "Anchor-16" 283 692 basechar 0
AnchorPoint: "Anchor-15" 0 0 basechar 0
AnchorPoint: "Anchor-14" 283 0 basechar 0
LayerCount: 2
Fore
SplineSet
575 692 m 1,0,-1
 376 0 l 1,1,-1
 197 0 l 1,2,-1
 -9 692 l 1,3,-1
 148 692 l 1,4,-1
 289 122 l 1,5,-1
 425 692 l 1,6,-1
 575 692 l 1,0,-1
EndSplineSet
Substitution2: "'c2sc' Capitals to Small Capitals lookup 26 subtable" v.sc
Substitution2: "'aalt' Access All Alternates lookup 0 subtable" v.sc
Position2: "'cpsp' Capital Spacing lookup 0 subtable" dx=5 dy=0 dh=10 dv=0
EndChar

StartChar: uni01B2
Encoding: 434 434 299
Width: 654
GlyphClass: 2
Flags: W
AnchorPoint: "Anchor-18" 0 0 basechar 0
AnchorPoint: "Anchor-17" 0 0 basechar 0
AnchorPoint: "Anchor-16" 316 692 basechar 0
AnchorPoint: "Anchor-15" 0 0 basechar 0
AnchorPoint: "Anchor-14" 316 0 basechar 0
LayerCount: 2
Fore
SplineSet
553 669 m 128,-1,1
 590 630 590 630 590 551 c 2,2,-1
 590 294 l 2,3,4
 590 199 590 199 555 129 c 128,-1,5
 520 59 520 59 456 21.5 c 128,-1,6
 392 -16 392 -16 306 -16 c 0,7,8
 232 -16 232 -16 177 13.5 c 128,-1,9
 122 43 122 43 92.5 95 c 128,-1,10
 63 147 63 147 63 213 c 2,11,-1
 63 692 l 1,12,-1
 210 692 l 1,13,-1
 210 215 l 2,14,15
 210 158 210 158 236 127 c 128,-1,16
 262 96 262 96 310 96 c 0,17,18
 373 96 373 96 408 145 c 128,-1,19
 443 194 443 194 443 294 c 2,20,-1
 443 557 l 2,21,22
 443 580 443 580 435.5 589.5 c 128,-1,23
 428 599 428 599 410 599 c 0,24,25
 394 599 394 599 381 594 c 1,26,-1
 355 691 l 1,27,28
 394 708 394 708 446 708 c 0,29,0
 516 708 516 708 553 669 c 128,-1,1
EndSplineSet
Substitution2: "'c2sc' Capitals to Small Capitals lookup 26 subtable" uni028B.sc
Substitution2: "'aalt' Access All Alternates lookup 0 subtable" uni028B.sc
Position2: "'cpsp' Capital Spacing lookup 0 subtable" dx=5 dy=0 dh=10 dv=0
EndChar

StartChar: W
Encoding: 87 87 301
Width: 842
GlyphClass: 2
Flags: W
AnchorPoint: "Anchor-18" 0 0 basechar 0
AnchorPoint: "Anchor-17" 0 0 basechar 0
AnchorPoint: "Anchor-16" 422 692 basechar 0
AnchorPoint: "Anchor-15" 0 0 basechar 0
AnchorPoint: "Anchor-14" 421 0 basechar 0
LayerCount: 2
Fore
SplineSet
828 692 m 1,0,-1
 707 0 l 1,1,-1
 516 0 l 1,2,-1
 420 541 l 1,3,-1
 319 0 l 1,4,-1
 133 0 l 1,5,-1
 13 692 l 1,6,-1
 160 692 l 1,7,-1
 239 114 l 1,8,-1
 344 692 l 1,9,-1
 499 692 l 1,10,-1
 600 114 l 1,11,-1
 689 692 l 1,12,-1
 828 692 l 1,0,-1
EndSplineSet
Substitution2: "'c2sc' Capitals to Small Capitals lookup 26 subtable" w.sc
Substitution2: "'aalt' Access All Alternates lookup 0 subtable" w.sc
Position2: "'cpsp' Capital Spacing lookup 0 subtable" dx=5 dy=0 dh=10 dv=0
EndChar

StartChar: uni2C72
Encoding: 11378 11378 306
Width: 899
GlyphClass: 2
Flags: W
AnchorPoint: "Anchor-18" 0 0 basechar 0
AnchorPoint: "Anchor-17" 0 0 basechar 0
AnchorPoint: "Anchor-16" 422 692 basechar 0
AnchorPoint: "Anchor-15" 0 0 basechar 0
AnchorPoint: "Anchor-14" 418 0 basechar 0
LayerCount: 2
Fore
SplineSet
133 0 m 1,0,-1
 319 0 l 1,1,-1
 420 541 l 1,2,-1
 516 0 l 1,3,-1
 703 0 l 1,4,-1
 787 543 l 2,5,6
 792 576 792 576 804.5 589.5 c 128,-1,7
 817 603 817 603 843 603 c 0,8,9
 860 603 860 603 872 598.5 c 128,-1,10
 884 594 884 594 898 586 c 1,11,-1
 942 669 l 1,12,13
 915 688 915 688 887.5 698 c 128,-1,14
 860 708 860 708 823 708 c 0,15,16
 754 708 754 708 712.5 670 c 128,-1,17
 671 632 671 632 661 547 c 2,18,-1
 600 114 l 1,19,-1
 499 692 l 1,20,-1
 344 692 l 1,21,-1
 239 114 l 1,22,-1
 160 692 l 1,23,-1
 13 692 l 1,24,-1
 133 0 l 1,0,-1
EndSplineSet
Substitution2: "'c2sc' Capitals to Small Capitals lookup 26 subtable" uni2C73.sc
Substitution2: "'aalt' Access All Alternates lookup 0 subtable" uni2C73.sc
Position2: "'cpsp' Capital Spacing lookup 0 subtable" dx=5 dy=0 dh=10 dv=0
EndChar

StartChar: uni01F7
Encoding: 503 503 307
Width: 595
GlyphClass: 2
Flags: W
AnchorPoint: "Anchor-18" 0 0 basechar 0
AnchorPoint: "Anchor-17" 0 0 basechar 0
AnchorPoint: "Anchor-16" 298 692 basechar 0
AnchorPoint: "Anchor-15" 0 0 basechar 0
AnchorPoint: "Anchor-14" 298 0 basechar 0
LayerCount: 2
Fore
SplineSet
476 684.5 m 128,-1,1
 520 661 520 661 545.5 617.5 c 128,-1,2
 571 574 571 574 571 515 c 0,3,4
 571 439 571 439 535.5 386 c 128,-1,5
 500 333 500 333 442.5 298 c 128,-1,6
 385 263 385 263 299 231 c 2,7,-1
 220 202 l 1,8,-1
 220 0 l 1,9,-1
 73 0 l 1,10,-1
 73 692 l 1,11,-1
 220 692 l 1,12,-1
 220 647 l 1,13,14
 281 708 281 708 379 708 c 0,15,0
 432 708 432 708 476 684.5 c 128,-1,1
381.5 404 m 128,-1,17
 419 448 419 448 419 509 c 0,18,19
 419 553 419 553 395.5 576 c 128,-1,20
 372 599 372 599 331 599 c 0,21,22
 269 599 269 599 220 555 c 1,23,-1
 220 308 l 1,24,-1
 272 329 l 2,25,16
 344 360 344 360 381.5 404 c 128,-1,17
EndSplineSet
Substitution2: "'c2sc' Capitals to Small Capitals lookup 26 subtable" uni01BF.sc
Substitution2: "'aalt' Access All Alternates lookup 0 subtable" uni01BF.sc
Position2: "'cpsp' Capital Spacing lookup 0 subtable" dx=5 dy=0 dh=10 dv=0
EndChar

StartChar: X
Encoding: 88 88 308
Width: 571
GlyphClass: 2
Flags: W
AnchorPoint: "Anchor-18" 0 0 basechar 0
AnchorPoint: "Anchor-17" 0 0 basechar 0
AnchorPoint: "Anchor-16" 286 692 basechar 0
AnchorPoint: "Anchor-15" 0 0 basechar 0
AnchorPoint: "Anchor-14" 286 0 basechar 0
LayerCount: 2
Fore
SplineSet
371 373 m 1,0,-1
 573 0 l 1,1,-1
 411 0 l 1,2,-1
 282 274 l 1,3,-1
 155 0 l 1,4,-1
 -2 0 l 1,5,-1
 195 368 l 1,6,-1
 14 692 l 1,7,-1
 175 692 l 1,8,-1
 284 461 l 1,9,-1
 398 692 l 1,10,-1
 554 692 l 1,11,-1
 371 373 l 1,0,-1
EndSplineSet
Substitution2: "'c2sc' Capitals to Small Capitals lookup 26 subtable" x.sc
Substitution2: "'aalt' Access All Alternates lookup 0 subtable" x.sc
Position2: "'cpsp' Capital Spacing lookup 0 subtable" dx=5 dy=0 dh=10 dv=0
EndChar

StartChar: Y
Encoding: 89 89 309
Width: 583
GlyphClass: 2
Flags: W
AnchorPoint: "Anchor-18" 0 0 basechar 0
AnchorPoint: "Anchor-17" 0 0 basechar 0
AnchorPoint: "Anchor-16" 292 692 basechar 0
AnchorPoint: "Anchor-15" 0 0 basechar 0
AnchorPoint: "Anchor-14" 292 0 basechar 0
LayerCount: 2
Fore
SplineSet
587 692 m 1,0,-1
 365 261 l 1,1,-1
 365 0 l 1,2,-1
 218 0 l 1,3,-1
 218 260 l 1,4,-1
 -4 692 l 1,5,-1
 157 692 l 1,6,-1
 295 378 l 1,7,-1
 432 692 l 1,8,-1
 587 692 l 1,0,-1
EndSplineSet
Substitution2: "'c2sc' Capitals to Small Capitals lookup 26 subtable" y.sc
Substitution2: "'aalt' Access All Alternates lookup 0 subtable" y.sc
Position2: "'cpsp' Capital Spacing lookup 0 subtable" dx=5 dy=0 dh=10 dv=0
EndChar

StartChar: uni01B3
Encoding: 435 435 315
Width: 621
GlyphClass: 2
Flags: W
AnchorPoint: "Anchor-18" 0 0 basechar 0
AnchorPoint: "Anchor-17" 0 0 basechar 0
AnchorPoint: "Anchor-16" 302 692 basechar 0
AnchorPoint: "Anchor-15" 0 0 basechar 0
AnchorPoint: "Anchor-14" 292 0 basechar 0
LayerCount: 2
Fore
SplineSet
218 260 m 1,0,-1
 -4 692 l 1,1,-1
 157 692 l 1,2,-1
 295 378 l 1,3,-1
 374 571 l 2,4,5
 403 645 403 645 442.5 676.5 c 128,-1,6
 482 708 482 708 548 708 c 0,7,8
 610 708 610 708 665 670 c 1,9,-1
 622 586 l 1,10,11
 594 603 594 603 565 603 c 0,12,13
 542 603 542 603 527.5 590.5 c 128,-1,14
 513 578 513 578 497 545 c 2,15,-1
 365 261 l 1,16,-1
 365 0 l 1,17,-1
 218 0 l 1,18,-1
 218 260 l 1,0,-1
EndSplineSet
Substitution2: "'c2sc' Capitals to Small Capitals lookup 26 subtable" uni01B4.sc
Substitution2: "'aalt' Access All Alternates lookup 0 subtable" uni01B4.sc
Position2: "'cpsp' Capital Spacing lookup 0 subtable" dx=5 dy=0 dh=10 dv=0
EndChar

StartChar: uni01A6
Encoding: 422 422 318
Width: 614
GlyphClass: 2
Flags: W
AnchorPoint: "Anchor-18" 0 0 basechar 0
AnchorPoint: "Anchor-17" 0 0 basechar 0
AnchorPoint: "Anchor-16" 307 692 basechar 0
AnchorPoint: "Anchor-15" 0 0 basechar 0
AnchorPoint: "Anchor-14" 307 -208 basechar 0
LayerCount: 2
Fore
SplineSet
295 155 m 1,0,-1
 220 155 l 1,1,-1
 220 0 l 1,2,-1
 73 0 l 1,3,-1
 73 692 l 1,4,-1
 220 692 l 1,5,-1
 220 576 l 1,6,-1
 289 576 l 2,7,8
 428 576 428 576 498 524.5 c 128,-1,9
 568 473 568 473 568 369 c 0,10,11
 568 300 568 300 535 256 c 128,-1,12
 502 212 502 212 432 182 c 1,13,-1
 610 -116 l 1,14,-1
 443 -116 l 1,15,-1
 295 155 l 1,0,-1
220 259 m 1,16,-1
 297 259 l 2,17,18
 356 259 356 259 386 285.5 c 128,-1,19
 416 312 416 312 416 369 c 0,20,21
 416 422 416 422 384.5 446 c 128,-1,22
 353 470 353 470 286 470 c 2,23,-1
 220 470 l 1,24,-1
 220 259 l 1,16,-1
EndSplineSet
Substitution2: "'c2sc' Capitals to Small Capitals lookup 26 subtable" uni0280.sc
Substitution2: "'aalt' Access All Alternates lookup 0 subtable" uni0280.sc
Position2: "'cpsp' Capital Spacing lookup 0 subtable" dx=5 dy=0 dh=10 dv=0
EndChar

StartChar: uni024E
Encoding: 590 590 319
Width: 583
GlyphClass: 2
Flags: W
AnchorPoint: "Anchor-18" 0 0 basechar 0
AnchorPoint: "Anchor-17" 0 0 basechar 0
AnchorPoint: "Anchor-16" 292 692 basechar 0
AnchorPoint: "Anchor-15" 0 0 basechar 0
AnchorPoint: "Anchor-14" 292 0 basechar 0
LayerCount: 2
Fore
SplineSet
547 612 m 1,0,-1
 588 612 l 1,1,-1
 588 526 l 1,2,-1
 502 526 l 1,3,-1
 366 261 l 1,4,-1
 366 0 l 1,5,-1
 218 0 l 1,6,-1
 218 260 l 1,7,-1
 81 526 l 1,8,-1
 -2 526 l 1,9,-1
 -2 612 l 1,10,-1
 37 612 l 1,11,-1
 -4 692 l 1,12,-1
 153 692 l 1,13,-1
 188 612 l 1,14,-1
 403 612 l 1,15,-1
 438 692 l 1,16,-1
 588 692 l 1,17,-1
 547 612 l 1,0,-1
295 369 m 1,18,-1
 365 526 l 1,19,-1
 226 526 l 1,20,-1
 295 369 l 1,18,-1
EndSplineSet
Substitution2: "'c2sc' Capitals to Small Capitals lookup 26 subtable" uni024F.sc
Substitution2: "'aalt' Access All Alternates lookup 0 subtable" uni024F.sc
Position2: "'cpsp' Capital Spacing lookup 0 subtable" dx=5 dy=0 dh=10 dv=0
EndChar

StartChar: Z
Encoding: 90 90 321
Width: 539
GlyphClass: 2
Flags: W
AnchorPoint: "Anchor-18" 0 0 basechar 0
AnchorPoint: "Anchor-17" 0 0 basechar 0
AnchorPoint: "Anchor-16" 275 692 basechar 0
AnchorPoint: "Anchor-15" 0 0 basechar 0
AnchorPoint: "Anchor-14" 263 0 basechar 0
LayerCount: 2
Fore
SplineSet
503 692 m 1,0,-1
 503 579 l 1,1,-1
 193 119 l 1,2,-1
 508 119 l 1,3,-1
 492 0 l 1,4,-1
 21 0 l 1,5,-1
 21 111 l 1,6,-1
 337 576 l 1,7,-1
 53 576 l 1,8,-1
 53 692 l 1,9,-1
 503 692 l 1,0,-1
EndSplineSet
Substitution2: "'c2sc' Capitals to Small Capitals lookup 26 subtable" z.sc
Substitution2: "'aalt' Access All Alternates lookup 0 subtable" z.sc
Position2: "'cpsp' Capital Spacing lookup 0 subtable" dx=5 dy=0 dh=10 dv=0
EndChar

StartChar: uni0224
Encoding: 548 548 327
Width: 534
GlyphClass: 2
Flags: W
AnchorPoint: "Anchor-18" 0 0 basechar 0
AnchorPoint: "Anchor-17" 0 0 basechar 0
AnchorPoint: "Anchor-16" 267 692 basechar 0
AnchorPoint: "Anchor-15" 0 0 basechar 0
AnchorPoint: "Anchor-14" 267 -208 basechar 0
LayerCount: 2
Fore
SplineSet
503 579 m 1,0,-1
 193 119 l 1,1,-1
 500 119 l 1,2,-1
 500 -38 l 2,3,4
 500 -127 500 -127 449.5 -173.5 c 128,-1,5
 399 -220 399 -220 312 -220 c 0,6,7
 232 -220 232 -220 177 -178 c 1,8,-1
 226 -89 l 1,9,10
 245 -101 245 -101 260.5 -106 c 128,-1,11
 276 -111 276 -111 300 -111 c 0,12,13
 359 -111 359 -111 359 -47 c 2,14,-1
 359 0 l 1,15,-1
 21 0 l 1,16,-1
 21 111 l 1,17,-1
 337 576 l 1,18,-1
 53 576 l 1,19,-1
 53 692 l 1,20,-1
 503 692 l 1,21,-1
 503 579 l 1,0,-1
EndSplineSet
Substitution2: "'c2sc' Capitals to Small Capitals lookup 26 subtable" uni0225.sc
Substitution2: "'aalt' Access All Alternates lookup 0 subtable" uni0225.sc
Position2: "'cpsp' Capital Spacing lookup 0 subtable" dx=5 dy=0 dh=10 dv=0
EndChar

StartChar: uni01B5
Encoding: 437 437 328
Width: 539
GlyphClass: 2
Flags: W
AnchorPoint: "Anchor-18" 0 0 basechar 0
AnchorPoint: "Anchor-17" 0 0 basechar 0
AnchorPoint: "Anchor-16" 269 692 basechar 0
AnchorPoint: "Anchor-15" 0 0 basechar 0
AnchorPoint: "Anchor-14" 269 0 basechar 0
LayerCount: 2
Fore
SplineSet
181 119 m 1,0,-1
 508 119 l 1,1,-1
 492 0 l 1,2,-1
 21 0 l 1,3,-1
 21 107 l 1,4,-1
 155 298 l 1,5,-1
 72 298 l 1,6,-1
 72 396 l 1,7,-1
 223 396 l 1,8,-1
 349 576 l 1,9,-1
 53 576 l 1,10,-1
 53 692 l 1,11,-1
 503 692 l 1,12,-1
 503 584 l 1,13,-1
 373 396 l 1,14,-1
 458 396 l 1,15,-1
 458 298 l 1,16,-1
 305 298 l 1,17,-1
 181 119 l 1,0,-1
EndSplineSet
Substitution2: "'c2sc' Capitals to Small Capitals lookup 26 subtable" uni01B6.sc
Substitution2: "'aalt' Access All Alternates lookup 0 subtable" uni01B6.sc
Position2: "'cpsp' Capital Spacing lookup 0 subtable" dx=5 dy=0 dh=10 dv=0
EndChar

StartChar: uni0262
Encoding: 610 610 330
Width: 560
GlyphClass: 2
Flags: W
AnchorPoint: "Anchor-18" 0 0 basechar 0
AnchorPoint: "Anchor-17" 0 0 basechar 0
AnchorPoint: "Anchor-16" 306 530 basechar 0
AnchorPoint: "Anchor-15" 0 0 basechar 0
AnchorPoint: "Anchor-14" 288 0 basechar 0
LayerCount: 2
Fore
SplineSet
417 528 m 128,-1,1
 464 510 464 510 506 475 c 1,2,-1
 436 399 l 1,3,4
 405 421 405 421 376.5 431.5 c 128,-1,5
 348 442 348 442 313 442 c 0,6,7
 255 442 255 442 220.5 397.5 c 128,-1,8
 186 353 186 353 186 267 c 0,9,10
 186 170 186 170 213.5 129 c 128,-1,11
 241 88 241 88 296 88 c 0,12,13
 337 88 337 88 377 104 c 1,14,-1
 377 212 l 1,15,-1
 301 212 l 1,16,-1
 288 308 l 1,17,-1
 511 308 l 1,18,-1
 511 47 l 1,19,20
 409 -14 409 -14 294 -14 c 0,21,22
 168 -14 168 -14 103 57 c 128,-1,23
 38 128 38 128 38 268 c 0,24,25
 38 352 38 352 73.5 415 c 128,-1,26
 109 478 109 478 170 512 c 128,-1,27
 231 546 231 546 306 546 c 0,28,0
 370 546 370 546 417 528 c 128,-1,1
EndSplineSet
EndChar

StartChar: uni029B
Encoding: 667 667 331
Width: 560
GlyphClass: 2
Flags: W
AnchorPoint: "Anchor-18" 0 0 basechar 0
AnchorPoint: "Anchor-17" 0 0 basechar 0
AnchorPoint: "Anchor-16" 280 741 basechar 0
AnchorPoint: "Anchor-15" 0 0 basechar 0
AnchorPoint: "Anchor-14" 294 0 basechar 0
LayerCount: 2
Fore
SplineSet
673 719 m 1,1,-1
 630 630 l 1,2,3
 611 641 611 641 596 646 c 128,-1,4
 581 651 581 651 561 651 c 0,5,6
 506 651 506 651 506 586 c 2,7,-1
 506 475 l 1,8,-1
 444 406 l 1,9,10
 410 425 410 425 381 433.5 c 128,-1,11
 352 442 352 442 315 442 c 0,12,13
 254 442 254 442 220 398 c 128,-1,14
 186 354 186 354 186 267 c 0,15,16
 186 170 186 170 213.5 129 c 128,-1,17
 241 88 241 88 296 88 c 0,18,19
 337 88 337 88 377 104 c 1,20,-1
 377 212 l 1,21,-1
 301 212 l 1,22,-1
 288 308 l 1,23,-1
 511 308 l 1,24,-1
 511 47 l 1,25,26
 469 19 469 19 414 2.5 c 128,-1,27
 359 -14 359 -14 295 -14 c 0,28,29
 169 -14 169 -14 103.5 57.5 c 128,-1,30
 38 129 38 129 38 268 c 0,31,32
 38 351 38 351 72.5 414.5 c 128,-1,33
 107 478 107 478 166 512 c 128,-1,34
 225 546 225 546 295 546 c 0,35,36
 341 546 341 546 378 532 c 1,37,-1
 378 590 l 2,38,39
 378 671 378 671 420.5 714 c 128,-1,40
 463 757 463 757 544 757 c 0,41,0
 618 757 618 757 673 719 c 1,1,-1
EndSplineSet
EndChar

StartChar: uni026A
Encoding: 618 618 333
Width: 336
GlyphClass: 2
Flags: W
AnchorPoint: "Anchor-18" 0 0 basechar 0
AnchorPoint: "Anchor-17" 0 0 basechar 0
AnchorPoint: "Anchor-16" 168 530 basechar 0
AnchorPoint: "Anchor-15" 0 0 basechar 0
AnchorPoint: "Anchor-14" 168 0 basechar 0
LayerCount: 2
Fore
SplineSet
318 427 m 1,0,-1
 239 427 l 1,1,-1
 239 104 l 1,2,-1
 318 104 l 1,3,-1
 318 0 l 1,4,-1
 18 0 l 1,5,-1
 18 104 l 1,6,-1
 97 104 l 1,7,-1
 97 427 l 1,8,-1
 18 427 l 1,9,-1
 18 530 l 1,10,-1
 318 530 l 1,11,-1
 318 427 l 1,0,-1
EndSplineSet
EndChar

StartChar: uni029F
Encoding: 671 671 334
Width: 447
GlyphClass: 2
Flags: W
AnchorPoint: "Anchor-18" 0 0 basechar 0
AnchorPoint: "Anchor-17" 0 0 basechar 0
AnchorPoint: "Anchor-16" 141 530 basechar 0
AnchorPoint: "Anchor-15" 0 0 basechar 0
AnchorPoint: "Anchor-14" 242 0 basechar 0
LayerCount: 2
Fore
SplineSet
212 530 m 1,0,-1
 212 111 l 1,1,-1
 437 111 l 1,2,-1
 421 0 l 1,3,-1
 70 0 l 1,4,-1
 70 530 l 1,5,-1
 212 530 l 1,0,-1
EndSplineSet
EndChar

StartChar: uni0274
Encoding: 628 628 335
Width: 589
GlyphClass: 2
Flags: W
AnchorPoint: "Anchor-18" 0 0 basechar 0
AnchorPoint: "Anchor-17" 0 0 basechar 0
AnchorPoint: "Anchor-16" 295 530 basechar 0
AnchorPoint: "Anchor-15" 0 0 basechar 0
AnchorPoint: "Anchor-14" 295 0 basechar 0
LayerCount: 2
Fore
SplineSet
519 0 m 1,0,-1
 347 0 l 1,1,-1
 176 404 l 1,2,3
 186 342 186 342 191.5 288.5 c 128,-1,4
 197 235 197 235 197 165 c 2,5,-1
 197 0 l 1,6,-1
 70 0 l 1,7,-1
 70 530 l 1,8,-1
 241 530 l 1,9,-1
 413 126 l 1,10,11
 402 190 402 190 397.5 228.5 c 128,-1,12
 393 267 393 267 393 328 c 2,13,-1
 393 530 l 1,14,-1
 519 530 l 1,15,-1
 519 0 l 1,0,-1
EndSplineSet
EndChar

StartChar: uni0276
Encoding: 630 630 336
Width: 764
GlyphClass: 2
Flags: W
AnchorPoint: "Anchor-18" 0 0 basechar 0
AnchorPoint: "Anchor-17" 0 0 basechar 0
AnchorPoint: "Anchor-16" 414 530 basechar 0
AnchorPoint: "Anchor-15" 0 0 basechar 0
AnchorPoint: "Anchor-14" 414 0 basechar 0
LayerCount: 2
Fore
SplineSet
484 100 m 1,1,-1
 738 100 l 1,2,-1
 738 0 l 1,3,-1
 383 0 l 1,4,5
 337 -16 337 -16 292 -16 c 0,6,7
 173 -16 173 -16 105.5 58.5 c 128,-1,8
 38 133 38 133 38 265 c 0,9,10
 38 349 38 349 68.5 412.5 c 128,-1,11
 99 476 99 476 156.5 511 c 128,-1,12
 214 546 214 546 293 546 c 0,13,14
 340 546 340 546 387 530 c 1,15,-1
 739 530 l 1,16,-1
 724 431 l 1,17,-1
 487 431 l 1,18,19
 526 383 526 383 538 318 c 1,20,-1
 697 318 l 1,21,-1
 697 220 l 1,22,-1
 540 220 l 1,23,0
 528 149 528 149 484 100 c 1,1,-1
370.5 133 m 128,-1,25
 398 176 398 176 398 265 c 0,26,27
 398 355 398 355 370 397.5 c 128,-1,28
 342 440 342 440 293 440 c 0,29,30
 239 440 239 440 212.5 397.5 c 128,-1,31
 186 355 186 355 186 265 c 256,32,33
 186 175 186 175 212.5 132.5 c 128,-1,34
 239 90 239 90 293 90 c 0,35,24
 343 90 343 90 370.5 133 c 128,-1,25
EndSplineSet
EndChar

StartChar: uni0280
Encoding: 640 640 337
Width: 529
GlyphClass: 2
Flags: W
AnchorPoint: "Anchor-18" 0 0 basechar 0
AnchorPoint: "Anchor-17" 0 0 basechar 0
AnchorPoint: "Anchor-16" 267 530 basechar 0
AnchorPoint: "Anchor-15" 0 0 basechar 0
AnchorPoint: "Anchor-14" 267 0 basechar 0
LayerCount: 2
Fore
SplineSet
257 188 m 1,0,-1
 207 188 l 1,1,-1
 207 0 l 1,2,-1
 70 0 l 1,3,-1
 70 530 l 1,4,-1
 249 530 l 2,5,6
 361 530 361 530 420.5 487 c 128,-1,7
 480 444 480 444 480 358 c 0,8,9
 480 308 480 308 455.5 269 c 128,-1,10
 431 230 431 230 384 209 c 1,11,-1
 518 0 l 1,12,-1
 367 0 l 1,13,-1
 257 188 l 1,0,-1
207 277 m 1,14,-1
 254 277 l 2,15,16
 298 277 298 277 319 296 c 128,-1,17
 340 315 340 315 340 359 c 0,18,19
 340 401 340 401 317 418.5 c 128,-1,20
 294 436 294 436 246 436 c 2,21,-1
 207 436 l 1,22,-1
 207 277 l 1,14,-1
EndSplineSet
Substitution2: "'smcp' Lowercase to Small Capitals lookup 27 subtable" uni0280.sc
Substitution2: "'aalt' Access All Alternates lookup 0 subtable" uni0280.sc
EndChar

StartChar: uni0281
Encoding: 641 641 338
Width: 529
GlyphClass: 2
Flags: W
AnchorPoint: "Anchor-18" 0 0 basechar 0
AnchorPoint: "Anchor-17" 0 0 basechar 0
AnchorPoint: "Anchor-16" 267 530 basechar 0
AnchorPoint: "Anchor-15" 0 0 basechar 0
AnchorPoint: "Anchor-14" 267 0 basechar 0
LayerCount: 2
Fore
SplineSet
455.5 265 m 128,-1,1
 480 227 480 227 480 176 c 0,2,3
 480 87 480 87 421 43.5 c 128,-1,4
 362 0 362 0 249 0 c 2,5,-1
 70 0 l 1,6,-1
 70 530 l 1,7,-1
 207 530 l 1,8,-1
 207 342 l 1,9,-1
 257 342 l 1,10,-1
 367 530 l 1,11,-1
 518 530 l 1,12,-1
 384 322 l 1,13,0
 431 303 431 303 455.5 265 c 128,-1,1
317 112.5 m 128,-1,15
 340 131 340 131 340 175 c 0,16,17
 340 217 340 217 318.5 235 c 128,-1,18
 297 253 297 253 254 253 c 2,19,-1
 207 253 l 1,20,-1
 207 94 l 1,21,-1
 246 94 l 2,22,14
 294 94 294 94 317 112.5 c 128,-1,15
EndSplineSet
EndChar

StartChar: uni028F
Encoding: 655 655 339
Width: 488
GlyphClass: 2
Flags: W
AnchorPoint: "Anchor-18" 0 0 basechar 0
AnchorPoint: "Anchor-17" 0 0 basechar 0
AnchorPoint: "Anchor-16" 244 530 basechar 0
AnchorPoint: "Anchor-15" 0 0 basechar 0
AnchorPoint: "Anchor-14" 244 0 basechar 0
LayerCount: 2
Fore
SplineSet
498 530 m 1,0,-1
 315 194 l 1,1,-1
 315 0 l 1,2,-1
 173 0 l 1,3,-1
 173 193 l 1,4,-1
 -9 530 l 1,5,-1
 142 530 l 1,6,-1
 247 286 l 1,7,-1
 351 530 l 1,8,-1
 498 530 l 1,0,-1
EndSplineSet
EndChar

StartChar: a
Encoding: 97 97 340
Width: 547
GlyphClass: 2
Flags: W
AnchorPoint: "Anchor-18" 0 0 basechar 0
AnchorPoint: "Anchor-17" 0 0 basechar 0
AnchorPoint: "Anchor-16" 269 530 basechar 0
AnchorPoint: "Anchor-15" 494 -14 basechar 0
AnchorPoint: "Anchor-14" 269 0 basechar 0
LayerCount: 2
Fore
SplineSet
484 101.5 m 128,-1,1
 493 87 493 87 514 80 c 1,2,-1
 484 -14 l 1,3,4
 437 -10 437 -10 407.5 8 c 128,-1,5
 378 26 378 26 362 64 c 1,6,7
 310 -16 310 -16 203 -16 c 0,8,9
 124 -16 124 -16 77.5 29.5 c 128,-1,10
 31 75 31 75 31 148 c 0,11,12
 31 235 31 235 94 281 c 128,-1,13
 157 327 157 327 275 327 c 2,14,-1
 336 327 l 1,15,-1
 336 353 l 2,16,17
 336 402 336 402 314 421 c 128,-1,18
 292 440 292 440 241 440 c 0,19,20
 185 440 185 440 101 412 c 1,21,-1
 69 507 l 1,22,23
 168 546 168 546 265 546 c 0,24,25
 373 546 373 546 424 499.5 c 128,-1,26
 475 453 475 453 475 361 c 2,27,-1
 475 147 l 2,28,0
 475 116 475 116 484 101.5 c 128,-1,1
336 145 m 1,30,-1
 336 246 l 1,31,-1
 289 246 l 2,32,33
 174 246 174 246 174 160 c 0,34,35
 174 125 174 125 191.5 105.5 c 128,-1,36
 209 86 209 86 242 86 c 0,37,29
 302 86 302 86 336 145 c 1,30,-1
EndSplineSet
Substitution2: "Single Substitution lookup 45 subtable" ordfeminine
Substitution2: "'ss04' Style Set 4 lookup 36 subtable" a.ss04
Substitution2: "'salt' Stylistic Alternatives lookup 32 subtable" a.ss04
Substitution2: "'smcp' Lowercase to Small Capitals lookup 27 subtable" a.sc
AlternateSubs2: "'aalt' Access All Alternates lookup 1 subtable" ordfeminine a.sc a.ss04
EndChar

StartChar: a.ss04
Encoding: 65547 -1 341
Width: 598
GlyphClass: 2
Flags: W
AnchorPoint: "Anchor-18" 0 0 basechar 0
AnchorPoint: "Anchor-17" 0 0 basechar 0
AnchorPoint: "Anchor-16" 299 530 basechar 0
AnchorPoint: "Anchor-15" 0 0 basechar 0
AnchorPoint: "Anchor-14" 299 0 basechar 0
LayerCount: 2
Fore
SplineSet
532 116 m 128,-1,1
 541 99 541 99 566 87 c 1,2,-1
 524 -16 l 1,3,4
 472 -6 472 -6 442 13.5 c 128,-1,5
 412 33 412 33 398 66 c 1,6,7
 369 28 369 28 329.5 6 c 128,-1,8
 290 -16 290 -16 243 -16 c 0,9,10
 145 -16 145 -16 91.5 60 c 128,-1,11
 38 136 38 136 38 265 c 0,12,13
 38 347 38 347 64.5 410.5 c 128,-1,14
 91 474 91 474 140.5 510 c 128,-1,15
 190 546 190 546 257 546 c 0,16,17
 338 546 338 546 391 482 c 1,18,-1
 399 530 l 1,19,-1
 523 530 l 1,20,-1
 523 169 l 2,21,0
 523 133 523 133 532 116 c 128,-1,1
335 106 m 128,-1,23
 359 122 359 122 381 155 c 1,24,-1
 381 390 l 1,25,26
 360 415 360 415 337.5 428 c 128,-1,27
 315 441 315 441 287 441 c 0,28,29
 239 441 239 441 212.5 398 c 128,-1,30
 186 355 186 355 186 265 c 0,31,32
 186 170 186 170 210.5 130 c 128,-1,33
 235 90 235 90 279 90 c 0,34,22
 311 90 311 90 335 106 c 128,-1,23
EndSplineSet
EndChar

StartChar: uni0251
Encoding: 593 593 365
Width: 598
GlyphClass: 2
Flags: W
AnchorPoint: "Anchor-18" 0 0 basechar 0
AnchorPoint: "Anchor-17" 0 0 basechar 0
AnchorPoint: "Anchor-16" 299 530 basechar 0
AnchorPoint: "Anchor-15" 0 0 basechar 0
AnchorPoint: "Anchor-14" 299 0 basechar 0
LayerCount: 2
Fore
SplineSet
532 116 m 128,-1,1
 541 99 541 99 566 87 c 1,2,-1
 524 -16 l 1,3,4
 472 -6 472 -6 442 13.5 c 128,-1,5
 412 33 412 33 398 66 c 1,6,7
 369 28 369 28 329.5 6 c 128,-1,8
 290 -16 290 -16 243 -16 c 0,9,10
 145 -16 145 -16 91.5 60 c 128,-1,11
 38 136 38 136 38 265 c 0,12,13
 38 347 38 347 64.5 410.5 c 128,-1,14
 91 474 91 474 140.5 510 c 128,-1,15
 190 546 190 546 257 546 c 0,16,17
 338 546 338 546 391 482 c 1,18,-1
 399 530 l 1,19,-1
 523 530 l 1,20,-1
 523 169 l 2,21,0
 523 133 523 133 532 116 c 128,-1,1
335 106 m 128,-1,23
 359 122 359 122 381 155 c 1,24,-1
 381 390 l 1,25,26
 360 415 360 415 337.5 428 c 128,-1,27
 315 441 315 441 287 441 c 0,28,29
 239 441 239 441 212.5 398 c 128,-1,30
 186 355 186 355 186 265 c 0,31,32
 186 170 186 170 210.5 130 c 128,-1,33
 235 90 235 90 279 90 c 0,34,22
 311 90 311 90 335 106 c 128,-1,23
EndSplineSet
Substitution2: "'smcp' Lowercase to Small Capitals lookup 27 subtable" uni0251.sc
Substitution2: "'aalt' Access All Alternates lookup 0 subtable" uni0251.sc
EndChar

StartChar: uni0252
Encoding: 594 594 366
Width: 598
GlyphClass: 2
Flags: W
AnchorPoint: "Anchor-18" 0 0 basechar 0
AnchorPoint: "Anchor-17" 0 0 basechar 0
AnchorPoint: "Anchor-16" 299 530 basechar 0
AnchorPoint: "Anchor-15" 0 0 basechar 0
AnchorPoint: "Anchor-14" 299 0 basechar 0
LayerCount: 2
Fore
SplineSet
506.5 470 m 128,-1,1
 560 394 560 394 560 265 c 0,2,3
 560 183 560 183 533.5 119.5 c 128,-1,4
 507 56 507 56 457.5 20 c 128,-1,5
 408 -16 408 -16 341 -16 c 0,6,7
 260 -16 260 -16 207 48 c 1,8,-1
 199 0 l 1,9,-1
 75 0 l 1,10,-1
 75 361 l 2,11,12
 75 397 75 397 66 414 c 128,-1,13
 57 431 57 431 32 443 c 1,14,-1
 74 546 l 1,15,16
 126 536 126 536 156 516.5 c 128,-1,17
 186 497 186 497 200 464 c 1,18,19
 229 502 229 502 268.5 524 c 128,-1,20
 308 546 308 546 355 546 c 0,21,0
 453 546 453 546 506.5 470 c 128,-1,1
385.5 132 m 128,-1,23
 412 175 412 175 412 265 c 0,24,25
 412 360 412 360 387.5 400 c 128,-1,26
 363 440 363 440 319 440 c 0,27,28
 287 440 287 440 263 424 c 128,-1,29
 239 408 239 408 217 375 c 1,30,-1
 217 140 l 1,31,32
 238 115 238 115 260.5 102 c 128,-1,33
 283 89 283 89 311 89 c 0,34,22
 359 89 359 89 385.5 132 c 128,-1,23
EndSplineSet
EndChar

StartChar: aogonek
Encoding: 261 261 368
Width: 547
GlyphClass: 2
Flags: W
AnchorPoint: "Anchor-18" 0 0 basechar 0
AnchorPoint: "Anchor-17" 0 0 basechar 0
AnchorPoint: "Anchor-16" 269 530 basechar 0
AnchorPoint: "Anchor-15" 494 -14 basechar 0
AnchorPoint: "Anchor-14" 269 0 basechar 0
LayerCount: 2
Fore
SplineSet
364 -119 m 0,1,2
 364 -165 364 -165 418 -165 c 0,3,4
 447 -165 447 -165 479 -158 c 1,5,-1
 469 -249 l 1,6,7
 432 -256 432 -256 401 -256 c 0,8,9
 338 -256 338 -256 298.5 -225.5 c 128,-1,10
 259 -195 259 -195 259 -144 c 0,11,12
 259 -90 259 -90 295 -52.5 c 128,-1,13
 331 -15 331 -15 401 12 c 1,14,15
 377 30 377 30 362 64 c 1,16,17
 310 -16 310 -16 203 -16 c 0,18,19
 124 -16 124 -16 77.5 29.5 c 128,-1,20
 31 75 31 75 31 148 c 0,21,22
 31 235 31 235 94 281 c 128,-1,23
 157 327 157 327 275 327 c 2,24,-1
 336 327 l 1,25,-1
 336 353 l 2,26,27
 336 402 336 402 314 421 c 128,-1,28
 292 440 292 440 241 440 c 0,29,30
 185 440 185 440 101 412 c 1,31,-1
 69 507 l 1,32,33
 168 546 168 546 265 546 c 0,34,35
 373 546 373 546 424 499.5 c 128,-1,36
 475 453 475 453 475 361 c 2,37,-1
 475 147 l 2,38,39
 475 116 475 116 484 101.5 c 128,-1,40
 493 87 493 87 514 80 c 1,41,-1
 484 -14 l 1,42,0
 364 -60 364 -60 364 -119 c 0,1,2
336 145 m 1,44,-1
 336 246 l 1,45,-1
 289 246 l 2,46,47
 174 246 174 246 174 160 c 0,48,49
 174 125 174 125 191.5 105.5 c 128,-1,50
 209 86 209 86 242 86 c 0,51,43
 302 86 302 86 336 145 c 1,44,-1
EndSplineSet
Substitution2: "'smcp' Lowercase to Small Capitals lookup 27 subtable" aogonek.sc
Substitution2: "'aalt' Access All Alternates lookup 0 subtable" aogonek.sc
EndChar

StartChar: aringacute
Encoding: 507 507 370
Width: 547
GlyphClass: 2
Flags: W
AnchorPoint: "Anchor-18" 0 0 basechar 0
AnchorPoint: "Anchor-17" 0 0 basechar 0
AnchorPoint: "Anchor-16" 271 1026 basechar 0
AnchorPoint: "Anchor-15" 494 -14 basechar 0
AnchorPoint: "Anchor-14" 269 0 basechar 0
LayerCount: 2
Fore
SplineSet
404 918 m 1,0,-1
 170 833 l 1,1,-1
 134 906 l 1,2,-1
 350 1026 l 1,3,-1
 404 918 l 1,0,-1
172 792.5 m 128,-1,5
 209 829 209 829 268 829 c 256,6,7
 327 829 327 829 364 792.5 c 128,-1,8
 401 756 401 756 401 704 c 0,9,10
 401 651 401 651 364 614.5 c 128,-1,11
 327 578 327 578 268 578 c 256,12,13
 209 578 209 578 172 614.5 c 128,-1,14
 135 651 135 651 135 704 c 0,15,4
 135 756 135 756 172 792.5 c 128,-1,5
302 741.5 m 128,-1,17
 289 755 289 755 268 755 c 256,18,19
 247 755 247 755 234 741.5 c 128,-1,20
 221 728 221 728 221 704 c 0,21,22
 221 679 221 679 233.5 665.5 c 128,-1,23
 246 652 246 652 268 652 c 256,24,25
 290 652 290 652 302.5 665.5 c 128,-1,26
 315 679 315 679 315 704 c 0,27,16
 315 728 315 728 302 741.5 c 128,-1,17
484 101.5 m 128,-1,29
 493 87 493 87 514 80 c 1,30,-1
 484 -14 l 1,31,32
 437 -10 437 -10 407.5 8 c 128,-1,33
 378 26 378 26 362 64 c 1,34,35
 310 -16 310 -16 203 -16 c 0,36,37
 124 -16 124 -16 77.5 29.5 c 128,-1,38
 31 75 31 75 31 148 c 0,39,40
 31 235 31 235 94 281 c 128,-1,41
 157 327 157 327 275 327 c 2,42,-1
 336 327 l 1,43,-1
 336 353 l 2,44,45
 336 402 336 402 314 421 c 128,-1,46
 292 440 292 440 241 440 c 0,47,48
 185 440 185 440 101 412 c 1,49,-1
 69 507 l 1,50,51
 168 546 168 546 265 546 c 0,52,53
 373 546 373 546 424 499.5 c 128,-1,54
 475 453 475 453 475 361 c 2,55,-1
 475 147 l 2,56,28
 475 116 475 116 484 101.5 c 128,-1,29
336 145 m 1,58,-1
 336 246 l 1,59,-1
 289 246 l 2,60,61
 174 246 174 246 174 160 c 0,62,63
 174 125 174 125 191.5 105.5 c 128,-1,64
 209 86 209 86 242 86 c 0,65,57
 302 86 302 86 336 145 c 1,58,-1
EndSplineSet
Substitution2: "'smcp' Lowercase to Small Capitals lookup 27 subtable" aringacute.sc
Substitution2: "'aalt' Access All Alternates lookup 0 subtable" aringacute.sc
EndChar

StartChar: uni2C65
Encoding: 11365 11365 371
Width: 547
GlyphClass: 2
Flags: W
AnchorPoint: "Anchor-18" 0 0 basechar 0
AnchorPoint: "Anchor-17" 0 0 basechar 0
AnchorPoint: "Anchor-16" 274 530 basechar 0
AnchorPoint: "Anchor-15" 0 0 basechar 0
AnchorPoint: "Anchor-14" 274 0 basechar 0
LayerCount: 2
Fore
SplineSet
484 101.5 m 128,-1,1
 493 87 493 87 514 80 c 1,2,-1
 484 -14 l 1,3,4
 437 -10 437 -10 407.5 8 c 128,-1,5
 378 26 378 26 362 64 c 1,6,7
 315 -8 315 -8 224 -15 c 1,8,-1
 209 -73 l 1,9,-1
 159 -61 l 1,10,-1
 171 -14 l 1,11,12
 106 -4 106 -4 68.5 39.5 c 128,-1,13
 31 83 31 83 31 148 c 0,14,15
 31 228 31 228 89 273 c 128,-1,16
 147 318 147 318 256 322 c 1,17,-1
 288 445 l 1,18,19
 268 447 268 447 256 447 c 0,20,21
 225 447 225 447 182.5 439.5 c 128,-1,22
 140 432 140 432 101 419 c 1,23,-1
 69 507 l 1,24,25
 168 546 168 546 265 546 c 0,26,27
 291 546 291 546 313 543 c 1,28,-1
 327 599 l 1,29,-1
 377 587 l 1,30,-1
 363 533 l 1,31,32
 421 515 421 515 448 472 c 128,-1,33
 475 429 475 429 475 361 c 2,34,-1
 475 147 l 2,35,0
 475 116 475 116 484 101.5 c 128,-1,1
335 421 m 1,37,-1
 310 322 l 1,38,-1
 350 322 l 1,39,-1
 350 360 l 2,40,36
 350 400 350 400 335 421 c 1,37,-1
350 144 m 1,42,-1
 350 246 l 1,43,-1
 290 246 l 1,44,-1
 249 82 l 1,45,41
 309 88 309 88 350 144 c 1,42,-1
198 90 m 1,47,-1
 236 242 l 1,48,49
 199 235 199 235 181.5 214 c 128,-1,50
 164 193 164 193 164 158 c 0,51,46
 164 108 164 108 198 90 c 1,47,-1
EndSplineSet
Substitution2: "'smcp' Lowercase to Small Capitals lookup 27 subtable" uni2C65.sc
Substitution2: "'aalt' Access All Alternates lookup 0 subtable" uni2C65.sc
EndChar

StartChar: uni0250
Encoding: 592 592 373
Width: 547
GlyphClass: 2
Flags: W
AnchorPoint: "Anchor-18" 0 0 basechar 0
AnchorPoint: "Anchor-17" 0 0 basechar 0
AnchorPoint: "Anchor-16" 274 530 basechar 0
AnchorPoint: "Anchor-15" 53 544 basechar 0
AnchorPoint: "Anchor-14" 274 0 basechar 0
LayerCount: 2
Fore
SplineSet
446 118 m 1,1,-1
 478 23 l 1,2,3
 379 -16 379 -16 282 -16 c 0,4,5
 174 -16 174 -16 123 30.5 c 128,-1,6
 72 77 72 77 72 169 c 2,7,-1
 72 383 l 2,8,9
 72 414 72 414 63 428.5 c 128,-1,10
 54 443 54 443 33 450 c 1,11,-1
 63 544 l 1,12,13
 110 540 110 540 139.5 522 c 128,-1,14
 169 504 169 504 185 466 c 1,15,16
 237 546 237 546 344 546 c 0,17,18
 423 546 423 546 469.5 500.5 c 128,-1,19
 516 455 516 455 516 382 c 0,20,21
 516 295 516 295 453 249 c 128,-1,22
 390 203 390 203 272 203 c 2,23,-1
 211 203 l 1,24,-1
 211 177 l 2,25,26
 211 128 211 128 233 109 c 128,-1,27
 255 90 255 90 306 90 c 0,28,0
 362 90 362 90 446 118 c 1,1,-1
211 385 m 1,30,-1
 211 284 l 1,31,-1
 258 284 l 2,32,33
 373 284 373 284 373 370 c 0,34,35
 373 405 373 405 355.5 424.5 c 128,-1,36
 338 444 338 444 305 444 c 0,37,29
 245 444 245 444 211 385 c 1,30,-1
EndSplineSet
EndChar

StartChar: ae
Encoding: 230 230 374
Width: 854
GlyphClass: 2
Flags: W
AnchorPoint: "Anchor-18" 0 0 basechar 0
AnchorPoint: "Anchor-17" 0 0 basechar 0
AnchorPoint: "Anchor-16" 428 530 basechar 0
AnchorPoint: "Anchor-15" 0 0 basechar 0
AnchorPoint: "Anchor-14" 417 0 basechar 0
LayerCount: 2
Fore
SplineSet
818 222 m 1,1,-1
 487 222 l 1,2,3
 494 150 494 150 526 120 c 128,-1,4
 558 90 558 90 613 90 c 0,5,6
 647 90 647 90 677 101 c 128,-1,7
 707 112 707 112 742 136 c 1,8,-1
 801 56 l 1,9,10
 712 -16 712 -16 600 -16 c 0,11,12
 532 -16 532 -16 480 8 c 128,-1,13
 428 32 428 32 395 76 c 1,14,15
 360 26 360 26 313 5 c 128,-1,16
 266 -16 266 -16 206 -16 c 0,17,18
 125 -16 125 -16 78 29.5 c 128,-1,19
 31 75 31 75 31 148 c 0,20,21
 31 235 31 235 95.5 281 c 128,-1,22
 160 327 160 327 280 327 c 2,23,-1
 341 327 l 1,24,-1
 341 352 l 2,25,26
 341 401 341 401 319.5 420 c 128,-1,27
 298 439 298 439 247 439 c 0,28,29
 189 439 189 439 107 411 c 1,30,-1
 74 507 l 1,31,32
 173 546 173 546 270 546 c 0,33,34
 381 546 381 546 431 476 c 1,35,36
 493 546 493 546 592 546 c 0,37,38
 661 546 661 546 713 514 c 128,-1,39
 765 482 765 482 793 421 c 128,-1,40
 821 360 821 360 821 277 c 0,41,0
 821 267 821 267 818 222 c 1,1,-1
681 317 m 2,42,43
 679 449 679 449 585 449 c 0,44,45
 541 449 541 449 516.5 416.5 c 128,-1,46
 492 384 492 384 487 311 c 1,47,-1
 681 311 l 1,48,-1
 681 317 l 2,42,43
306.5 104 m 128,-1,50
 332 122 332 122 355 158 c 1,51,52
 345 195 345 195 343 240 c 2,53,-1
 343 243 l 1,54,-1
 296 243 l 2,55,56
 238 243 238 243 209.5 222.5 c 128,-1,57
 181 202 181 202 181 158 c 0,58,59
 181 124 181 124 198.5 105 c 128,-1,60
 216 86 216 86 249 86 c 0,61,49
 281 86 281 86 306.5 104 c 128,-1,50
EndSplineSet
Substitution2: "'smcp' Lowercase to Small Capitals lookup 27 subtable" ae.sc
Substitution2: "'aalt' Access All Alternates lookup 0 subtable" ae.sc
EndChar

StartChar: b
Encoding: 98 98 377
Width: 596
GlyphClass: 2
Flags: W
AnchorPoint: "Anchor-18" 0 0 basechar 0
AnchorPoint: "Anchor-17" 0 0 basechar 0
AnchorPoint: "Anchor-16" 317 741 basechar 0
AnchorPoint: "Anchor-15" 0 0 basechar 0
AnchorPoint: "Anchor-14" 308 0 basechar 0
LayerCount: 2
Fore
SplineSet
501.5 472 m 128,-1,1
 553 398 553 398 553 265 c 0,2,3
 553 183 553 183 527.5 119.5 c 128,-1,4
 502 56 502 56 454.5 20 c 128,-1,5
 407 -16 407 -16 343 -16 c 0,6,7
 256 -16 256 -16 204 52 c 1,8,-1
 196 0 l 1,9,-1
 70 0 l 1,10,-1
 70 741 l 1,11,-1
 212 757 l 1,12,-1
 212 473 l 1,13,14
 237 507 237 507 275 526.5 c 128,-1,15
 313 546 313 546 357 546 c 0,16,0
 450 546 450 546 501.5 472 c 128,-1,1
405 265 m 0,18,19
 405 362 405 362 380.5 401.5 c 128,-1,20
 356 441 356 441 310 441 c 0,21,22
 253 441 253 441 212 373 c 1,23,-1
 212 146 l 1,24,25
 247 89 247 89 303 89 c 0,26,17
 405 89 405 89 405 265 c 0,18,19
EndSplineSet
Substitution2: "'smcp' Lowercase to Small Capitals lookup 27 subtable" b.sc
Substitution2: "'aalt' Access All Alternates lookup 0 subtable" b.sc
EndChar

StartChar: uni0253
Encoding: 595 595 381
Width: 596
GlyphClass: 2
Flags: W
AnchorPoint: "Anchor-18" 0 0 basechar 0
AnchorPoint: "Anchor-17" 0 0 basechar 0
AnchorPoint: "Anchor-16" 298 741 basechar 0
AnchorPoint: "Anchor-15" 0 0 basechar 0
AnchorPoint: "Anchor-14" 298 0 basechar 0
LayerCount: 2
Fore
SplineSet
501.5 472 m 128,-1,1
 553 398 553 398 553 265 c 0,2,3
 553 183 553 183 527.5 119.5 c 128,-1,4
 502 56 502 56 454.5 20 c 128,-1,5
 407 -16 407 -16 343 -16 c 0,6,7
 256 -16 256 -16 204 52 c 1,8,-1
 196 0 l 1,9,-1
 70 0 l 1,10,-1
 70 583 l 2,11,12
 70 660 70 660 120.5 708.5 c 128,-1,13
 171 757 171 757 264 757 c 0,14,15
 338 757 338 757 404 725 c 1,16,-1
 365 631 l 1,17,18
 322 651 322 651 279 651 c 0,19,20
 243 651 243 651 227.5 634 c 128,-1,21
 212 617 212 617 212 579 c 2,22,-1
 212 473 l 1,23,24
 236 507 236 507 274 526.5 c 128,-1,25
 312 546 312 546 354 546 c 0,26,0
 450 546 450 546 501.5 472 c 128,-1,1
378 131 m 128,-1,28
 405 173 405 173 405 265 c 0,29,30
 405 362 405 362 380.5 401.5 c 128,-1,31
 356 441 356 441 310 441 c 0,32,33
 280 441 280 441 255 423 c 128,-1,34
 230 405 230 405 212 373 c 1,35,-1
 212 146 l 1,36,37
 229 119 229 119 252.5 104 c 128,-1,38
 276 89 276 89 304 89 c 0,39,27
 351 89 351 89 378 131 c 128,-1,28
EndSplineSet
Substitution2: "'smcp' Lowercase to Small Capitals lookup 27 subtable" uni0253.sc
Substitution2: "'aalt' Access All Alternates lookup 0 subtable" uni0253.sc
EndChar

StartChar: uni02AD
Encoding: 685 685 382
Width: 359
GlyphClass: 2
Flags: W
AnchorPoint: "Anchor-18" 0 0 basechar 0
AnchorPoint: "Anchor-17" 0 0 basechar 0
AnchorPoint: "Anchor-16" 0 0 basechar 0
AnchorPoint: "Anchor-15" 0 0 basechar 0
AnchorPoint: "Anchor-14" 183 151 basechar 0
LayerCount: 2
Fore
SplineSet
30 400 m 1,0,-1
 30 561 l 1,1,-1
 329 561 l 1,2,-1
 329 400 l 1,3,-1
 242 400 l 1,4,-1
 242 485 l 1,5,-1
 117 485 l 1,6,-1
 117 400 l 1,7,-1
 30 400 l 1,0,-1
30 0 m 1,8,-1
 30 161 l 1,9,-1
 329 161 l 1,10,-1
 329 0 l 1,11,-1
 242 0 l 1,12,-1
 242 85 l 1,13,-1
 117 85 l 1,14,-1
 117 0 l 1,15,-1
 30 0 l 1,8,-1
EndSplineSet
EndChar

StartChar: uni0298
Encoding: 664 664 383
Width: 796
GlyphClass: 2
Flags: W
AnchorPoint: "Anchor-18" 0 0 basechar 0
AnchorPoint: "Anchor-17" 0 0 basechar 0
AnchorPoint: "Anchor-16" 398 692 basechar 0
AnchorPoint: "Anchor-15" 0 0 basechar 0
AnchorPoint: "Anchor-14" 398 0 basechar 0
LayerCount: 2
Fore
SplineSet
585.5 664.5 m 128,-1,1
 667 621 667 621 712.5 539 c 128,-1,2
 758 457 758 457 758 347 c 0,3,4
 758 239 758 239 712.5 156.5 c 128,-1,5
 667 74 667 74 585.5 29 c 128,-1,6
 504 -16 504 -16 398 -16 c 256,7,8
 292 -16 292 -16 210.5 28 c 128,-1,9
 129 72 129 72 83.5 154 c 128,-1,10
 38 236 38 236 38 346 c 0,11,12
 38 453 38 453 83.5 535 c 128,-1,13
 129 617 129 617 211 662.5 c 128,-1,14
 293 708 293 708 398 708 c 0,15,0
 504 708 504 708 585.5 664.5 c 128,-1,1
235.5 542 m 128,-1,17
 177 477 177 477 177 346 c 0,18,19
 177 214 177 214 236 150 c 128,-1,20
 295 86 295 86 398 86 c 0,21,22
 503 86 503 86 561 150 c 128,-1,23
 619 214 619 214 619 347 c 0,24,25
 619 477 619 477 559.5 542 c 128,-1,26
 500 607 500 607 398 607 c 0,27,16
 294 607 294 607 235.5 542 c 128,-1,17
456.5 400.5 m 128,-1,29
 479 379 479 379 479 347 c 256,30,31
 479 315 479 315 456.5 293.5 c 128,-1,32
 434 272 434 272 400 272 c 256,33,34
 366 272 366 272 344 293.5 c 128,-1,35
 322 315 322 315 322 347 c 256,36,37
 322 379 322 379 344 400.5 c 128,-1,38
 366 422 366 422 400 422 c 256,39,28
 434 422 434 422 456.5 400.5 c 128,-1,29
EndSplineSet
EndChar

StartChar: uni0180
Encoding: 384 384 385
Width: 604
GlyphClass: 2
Flags: W
AnchorPoint: "Anchor-18" 0 0 basechar 0
AnchorPoint: "Anchor-17" 0 0 basechar 0
AnchorPoint: "Anchor-16" 325 741 basechar 0
AnchorPoint: "Anchor-15" 0 0 basechar 0
AnchorPoint: "Anchor-14" 316 0 basechar 0
LayerCount: 2
Fore
SplineSet
509.5 472 m 128,-1,1
 561 398 561 398 561 265 c 0,2,3
 561 183 561 183 535.5 119.5 c 128,-1,4
 510 56 510 56 462.5 20 c 128,-1,5
 415 -16 415 -16 351 -16 c 0,6,7
 264 -16 264 -16 212 52 c 1,8,-1
 204 0 l 1,9,-1
 78 0 l 1,10,-1
 78 598 l 1,11,-1
 12 598 l 1,12,-1
 12 685 l 1,13,-1
 78 685 l 1,14,-1
 78 741 l 1,15,-1
 220 757 l 1,16,-1
 220 685 l 1,17,-1
 356 685 l 1,18,-1
 356 598 l 1,19,-1
 220 598 l 1,20,-1
 220 473 l 1,21,22
 245 507 245 507 283 526.5 c 128,-1,23
 321 546 321 546 365 546 c 0,24,0
 458 546 458 546 509.5 472 c 128,-1,1
413 265 m 0,26,27
 413 362 413 362 388.5 401.5 c 128,-1,28
 364 441 364 441 318 441 c 0,29,30
 261 441 261 441 220 373 c 1,31,-1
 220 146 l 1,32,33
 255 89 255 89 311 89 c 0,34,25
 413 89 413 89 413 265 c 0,26,27
EndSplineSet
Substitution2: "'smcp' Lowercase to Small Capitals lookup 27 subtable" uni0180.sc
Substitution2: "'aalt' Access All Alternates lookup 0 subtable" uni0180.sc
EndChar

StartChar: uni0183
Encoding: 387 387 386
Width: 596
GlyphClass: 2
Flags: W
AnchorPoint: "Anchor-18" 0 0 basechar 0
AnchorPoint: "Anchor-17" 0 0 basechar 0
AnchorPoint: "Anchor-16" 298 741 basechar 0
AnchorPoint: "Anchor-15" 0 0 basechar 0
AnchorPoint: "Anchor-14" 298 0 basechar 0
LayerCount: 2
Fore
SplineSet
501 464 m 128,-1,1
 553 391 553 391 553 260 c 0,2,3
 553 180 553 180 527.5 117.5 c 128,-1,4
 502 55 502 55 454.5 19.5 c 128,-1,5
 407 -16 407 -16 343 -16 c 0,6,7
 256 -16 256 -16 204 52 c 1,8,-1
 196 0 l 1,9,-1
 70 0 l 1,10,-1
 70 741 l 1,11,-1
 431 741 l 1,12,-1
 416 639 l 1,13,-1
 212 639 l 1,14,-1
 212 464 l 1,15,16
 236 498 236 498 274 517.5 c 128,-1,17
 312 537 312 537 354 537 c 0,18,0
 449 537 449 537 501 464 c 128,-1,1
378 130 m 128,-1,20
 405 171 405 171 405 260 c 0,21,22
 405 355 405 355 380.5 393 c 128,-1,23
 356 431 356 431 310 431 c 0,24,25
 251 431 251 431 212 364 c 1,26,-1
 212 146 l 1,27,28
 229 119 229 119 252.5 104 c 128,-1,29
 276 89 276 89 304 89 c 0,30,19
 351 89 351 89 378 130 c 128,-1,20
EndSplineSet
Substitution2: "'smcp' Lowercase to Small Capitals lookup 27 subtable" uni0183.sc
Substitution2: "'aalt' Access All Alternates lookup 0 subtable" uni0183.sc
EndChar

StartChar: c
Encoding: 99 99 387
Width: 478
GlyphClass: 2
Flags: W
AnchorPoint: "Anchor-18" 0 0 basechar 0
AnchorPoint: "Anchor-17" 0 0 basechar 0
AnchorPoint: "Anchor-16" 290 530 basechar 0
AnchorPoint: "Anchor-15" 0 0 basechar 0
AnchorPoint: "Anchor-14" 281 0 basechar 0
LayerCount: 2
Fore
SplineSet
386.5 530.5 m 128,-1,1
 429 515 429 515 467 482 c 1,2,-1
 405 398 l 1,3,4
 379 418 379 418 354.5 427 c 128,-1,5
 330 436 330 436 301 436 c 0,6,7
 188 436 188 436 188 262 c 0,8,9
 188 174 188 174 217 136 c 128,-1,10
 246 98 246 98 300 98 c 0,11,12
 328 98 328 98 351 106.5 c 128,-1,13
 374 115 374 115 405 135 c 1,14,-1
 467 46 l 1,15,16
 391 -16 391 -16 293 -16 c 0,17,18
 215 -16 215 -16 157.5 18 c 128,-1,19
 100 52 100 52 69 114.5 c 128,-1,20
 38 177 38 177 38 261 c 256,21,22
 38 345 38 345 69 409.5 c 128,-1,23
 100 474 100 474 157.5 510 c 128,-1,24
 215 546 215 546 291 546 c 0,25,0
 344 546 344 546 386.5 530.5 c 128,-1,1
EndSplineSet
Substitution2: "'smcp' Lowercase to Small Capitals lookup 27 subtable" c.sc
Substitution2: "'aalt' Access All Alternates lookup 0 subtable" c.sc
EndChar

StartChar: ccedilla
Encoding: 231 231 391
Width: 478
GlyphClass: 2
Flags: W
AnchorPoint: "Anchor-18" 0 0 basechar 0
AnchorPoint: "Anchor-17" 0 0 basechar 0
AnchorPoint: "Anchor-16" 290 530 basechar 0
AnchorPoint: "Anchor-15" 0 0 basechar 0
AnchorPoint: "Anchor-14" 298 -257 basechar 0
LayerCount: 2
Fore
SplineSet
320 -15 m 1,1,-1
 320 -50 l 1,2,3
 371 -55 371 -55 396 -80.5 c 128,-1,4
 421 -106 421 -106 421 -146 c 0,5,6
 421 -196 421 -196 381.5 -226.5 c 128,-1,7
 342 -257 342 -257 278 -257 c 0,8,9
 245 -257 245 -257 217.5 -249 c 128,-1,10
 190 -241 190 -241 171 -228 c 1,11,-1
 204 -160 l 1,12,13
 235 -177 235 -177 268 -177 c 0,14,15
 316 -177 316 -177 316 -145 c 0,16,17
 316 -126 316 -126 294.5 -117.5 c 128,-1,18
 273 -109 273 -109 224 -109 c 1,19,-1
 237 -11 l 1,20,21
 143 6 143 6 90.5 78 c 128,-1,22
 38 150 38 150 38 261 c 0,23,24
 38 345 38 345 69 409.5 c 128,-1,25
 100 474 100 474 157.5 510 c 128,-1,26
 215 546 215 546 291 546 c 0,27,28
 344 546 344 546 386.5 530.5 c 128,-1,29
 429 515 429 515 467 482 c 1,30,-1
 405 398 l 1,31,32
 379 418 379 418 354.5 427 c 128,-1,33
 330 436 330 436 301 436 c 0,34,35
 188 436 188 436 188 262 c 0,36,37
 188 174 188 174 217 136 c 128,-1,38
 246 98 246 98 300 98 c 0,39,40
 328 98 328 98 351 106.5 c 128,-1,41
 374 115 374 115 405 135 c 1,42,-1
 467 46 l 1,43,0
 400 -8 400 -8 320 -15 c 1,1,-1
EndSplineSet
Substitution2: "'smcp' Lowercase to Small Capitals lookup 27 subtable" ccedilla.sc
Substitution2: "'aalt' Access All Alternates lookup 0 subtable" ccedilla.sc
EndChar

StartChar: uni0255
Encoding: 597 597 393
Width: 498
GlyphClass: 2
Flags: W
AnchorPoint: "Anchor-18" 0 0 basechar 0
AnchorPoint: "Anchor-17" 0 0 basechar 0
AnchorPoint: "Anchor-16" 289 530 basechar 0
AnchorPoint: "Anchor-15" 0 0 basechar 0
AnchorPoint: "Anchor-14" 289 -34 basechar 0
LayerCount: 2
Fore
SplineSet
452 218.5 m 128,-1,1
 487 187 487 187 487 133 c 0,2,3
 487 61 487 61 434.5 22.5 c 128,-1,4
 382 -16 382 -16 300 -16 c 0,5,6
 259 -16 259 -16 229 -8 c 1,7,-1
 196 -82 l 1,8,-1
 123 -53 l 1,9,-1
 157 20 l 1,10,11
 100 53 100 53 69 115.5 c 128,-1,12
 38 178 38 178 38 261 c 0,13,14
 38 345 38 345 69 409.5 c 128,-1,15
 100 474 100 474 157.5 510 c 128,-1,16
 215 546 215 546 291 546 c 0,17,18
 344 546 344 546 386.5 530.5 c 128,-1,19
 429 515 429 515 467 482 c 1,20,-1
 405 397 l 1,21,22
 379 417 379 417 354.5 426.5 c 128,-1,23
 330 436 330 436 301 436 c 0,24,25
 188 436 188 436 188 262 c 0,26,27
 188 179 188 179 214 137 c 1,28,29
 238 196 238 196 273 223 c 128,-1,30
 308 250 308 250 362 250 c 0,31,0
 417 250 417 250 452 218.5 c 128,-1,1
384 136 m 0,33,34
 384 169 384 169 350 169 c 0,35,36
 327 169 327 169 310.5 153 c 128,-1,37
 294 137 294 137 274 95 c 1,38,39
 295 89 295 89 317 89 c 0,40,32
 384 89 384 89 384 136 c 0,33,34
EndSplineSet
EndChar

StartChar: uni0188
Encoding: 392 392 395
Width: 478
GlyphClass: 2
Flags: W
AnchorPoint: "Anchor-18" 0 0 basechar 0
AnchorPoint: "Anchor-17" 0 0 basechar 0
AnchorPoint: "Anchor-16" 239 741 basechar 0
AnchorPoint: "Anchor-15" 0 0 basechar 0
AnchorPoint: "Anchor-14" 239 0 basechar 0
LayerCount: 2
Fore
SplineSet
635 719 m 1,1,-1
 591 630 l 1,2,3
 572 641 572 641 557 646 c 128,-1,4
 542 651 542 651 522 651 c 0,5,6
 467 651 467 651 467 586 c 2,7,-1
 467 482 l 1,8,-1
 414 409 l 1,9,10
 362 436 362 436 303 436 c 0,11,12
 188 436 188 436 188 262 c 0,13,14
 188 174 188 174 217 136 c 128,-1,15
 246 98 246 98 300 98 c 0,16,17
 328 98 328 98 351 106.5 c 128,-1,18
 374 115 374 115 405 135 c 1,19,-1
 467 46 l 1,20,21
 391 -16 391 -16 293 -16 c 0,22,23
 215 -16 215 -16 157.5 18 c 128,-1,24
 100 52 100 52 69 114.5 c 128,-1,25
 38 177 38 177 38 261 c 0,26,27
 38 344 38 344 68.5 409 c 128,-1,28
 99 474 99 474 153 510 c 128,-1,29
 207 546 207 546 277 546 c 0,30,31
 312 546 312 546 339 537 c 1,32,-1
 339 590 l 2,33,34
 339 671 339 671 381.5 714 c 128,-1,35
 424 757 424 757 505 757 c 0,36,0
 578 757 578 757 635 719 c 1,1,-1
EndSplineSet
Substitution2: "'smcp' Lowercase to Small Capitals lookup 27 subtable" uni0188.sc
Substitution2: "'aalt' Access All Alternates lookup 0 subtable" uni0188.sc
EndChar

StartChar: uni0297
Encoding: 663 663 396
Width: 490
GlyphClass: 2
Flags: W
AnchorPoint: "Anchor-18" 0 0 basechar 0
AnchorPoint: "Anchor-17" 0 0 basechar 0
AnchorPoint: "Anchor-16" 313 530 basechar 0
AnchorPoint: "Anchor-15" 0 0 basechar 0
AnchorPoint: "Anchor-14" 311 -208 basechar 0
LayerCount: 2
Fore
SplineSet
479 482 m 1,1,-1
 419 400 l 1,2,3
 394 418 394 418 370 427 c 128,-1,4
 346 436 346 436 320 436 c 0,5,6
 260 436 260 436 229.5 371 c 128,-1,7
 199 306 199 306 199 161 c 0,8,9
 199 18 199 18 229 -43.5 c 128,-1,10
 259 -105 259 -105 315 -105 c 0,11,12
 342 -105 342 -105 365 -96.5 c 128,-1,13
 388 -88 388 -88 416 -68 c 1,14,-1
 479 -157 l 1,15,16
 403 -219 403 -219 311 -219 c 0,17,18
 185 -219 185 -219 117 -121.5 c 128,-1,19
 49 -24 49 -24 49 159 c 0,20,21
 49 343 49 343 118.5 444.5 c 128,-1,22
 188 546 188 546 314 546 c 0,23,0
 408 546 408 546 479 482 c 1,1,-1
EndSplineSet
EndChar

StartChar: uni023C
Encoding: 572 572 397
Width: 478
GlyphClass: 2
Flags: W
AnchorPoint: "Anchor-18" 0 0 basechar 0
AnchorPoint: "Anchor-17" 0 0 basechar 0
AnchorPoint: "Anchor-16" 290 530 basechar 0
AnchorPoint: "Anchor-15" 0 0 basechar 0
AnchorPoint: "Anchor-14" 281 0 basechar 0
LayerCount: 2
Fore
SplineSet
351 106.5 m 128,-1,1
 374 115 374 115 405 135 c 1,2,-1
 467 46 l 1,3,4
 391 -16 391 -16 293 -16 c 0,5,6
 264 -16 264 -16 241 -12 c 1,7,-1
 225 -73 l 1,8,-1
 172 -60 l 1,9,-1
 189 3 l 1,10,11
 117 31 117 31 77.5 98 c 128,-1,12
 38 165 38 165 38 261 c 0,13,14
 38 345 38 345 69 409.5 c 128,-1,15
 100 474 100 474 157.5 510 c 128,-1,16
 215 546 215 546 291 546 c 0,17,18
 314 546 314 546 335 543 c 1,19,-1
 350 599 l 1,20,-1
 402 586 l 1,21,-1
 387 530 l 1,22,23
 429 514 429 514 467 482 c 1,24,-1
 405 398 l 1,25,26
 380 416 380 416 359 425 c 1,27,-1
 272 101 l 1,28,29
 286 98 286 98 300 98 c 0,30,0
 328 98 328 98 351 106.5 c 128,-1,1
223 129 m 1,32,-1
 306 436 l 1,33,-1
 301 436 l 2,34,35
 188 436 188 436 188 262 c 0,36,31
 188 169 188 169 223 129 c 1,32,-1
EndSplineSet
Substitution2: "'smcp' Lowercase to Small Capitals lookup 27 subtable" uni023C.sc
Substitution2: "'aalt' Access All Alternates lookup 0 subtable" uni023C.sc
EndChar

StartChar: d
Encoding: 100 100 398
Width: 599
GlyphClass: 2
Flags: W
AnchorPoint: "Anchor-18" 302 265 basechar 0
AnchorPoint: "Anchor-17" 539 741 basechar 0
AnchorPoint: "Anchor-16" 299 741 basechar 0
AnchorPoint: "Anchor-15" 0 0 basechar 0
AnchorPoint: "Anchor-14" 308 0 basechar 0
LayerCount: 2
Fore
SplineSet
529 741 m 1,0,-1
 529 0 l 1,1,-1
 404 0 l 1,2,-1
 396 65 l 1,3,4
 340 -16 340 -16 244 -16 c 0,5,6
 146 -16 146 -16 94.5 59.5 c 128,-1,7
 43 135 43 135 43 265 c 0,8,9
 43 347 43 347 69.5 410.5 c 128,-1,10
 96 474 96 474 145 510 c 128,-1,11
 194 546 194 546 258 546 c 0,12,13
 332 546 332 546 387 493 c 1,14,-1
 387 757 l 1,15,-1
 529 741 l 1,0,-1
341 105.5 m 128,-1,17
 365 121 365 121 387 154 c 1,18,-1
 387 391 l 1,19,20
 366 416 366 416 344.5 428.5 c 128,-1,21
 323 441 323 441 295 441 c 0,22,23
 246 441 246 441 218.5 398 c 128,-1,24
 191 355 191 355 191 265 c 0,25,26
 191 170 191 170 215.5 130 c 128,-1,27
 240 90 240 90 286 90 c 0,28,16
 317 90 317 90 341 105.5 c 128,-1,17
EndSplineSet
Substitution2: "'smcp' Lowercase to Small Capitals lookup 27 subtable" d.sc
Substitution2: "'aalt' Access All Alternates lookup 0 subtable" d.sc
EndChar

StartChar: eth
Encoding: 240 240 399
Width: 577
GlyphClass: 2
Flags: W
AnchorPoint: "Anchor-18" 0 0 basechar 0
AnchorPoint: "Anchor-17" 0 0 basechar 0
AnchorPoint: "Anchor-16" 304 741 basechar 0
AnchorPoint: "Anchor-15" 0 0 basechar 0
AnchorPoint: "Anchor-14" 282 0 basechar 0
LayerCount: 2
Fore
SplineSet
492 503.5 m 128,-1,1
 533 408 533 408 533 274 c 0,2,3
 533 191 533 191 503 125 c 128,-1,4
 473 59 473 59 416 21.5 c 128,-1,5
 359 -16 359 -16 282 -16 c 0,6,7
 213 -16 213 -16 157.5 14 c 128,-1,8
 102 44 102 44 70 100.5 c 128,-1,9
 38 157 38 157 38 234 c 0,10,11
 38 300 38 300 64 356 c 128,-1,12
 90 412 90 412 137 445 c 128,-1,13
 184 478 184 478 244 478 c 0,14,15
 286 478 286 478 319 465 c 128,-1,16
 352 452 352 452 380 427 c 1,17,18
 367 477 367 477 342 515.5 c 128,-1,19
 317 554 317 554 274 588 c 1,20,-1
 215 529 l 1,21,-1
 124 572 l 1,22,-1
 185 636 l 1,23,24
 144 650 144 650 89 661 c 1,25,-1
 117 756 l 1,26,27
 200 741 200 741 263 716 c 1,28,-1
 336 793 l 1,29,-1
 411 728 l 1,30,-1
 353 668 l 1,31,0
 451 599 451 599 492 503.5 c 128,-1,1
362 131.5 m 128,-1,33
 389 174 389 174 389 258 c 2,34,-1
 388 327 l 1,35,36
 346 377 346 377 280 377 c 0,37,38
 183 377 183 377 183 237 c 0,39,40
 183 163 183 163 209.5 126 c 128,-1,41
 236 89 236 89 283 89 c 0,42,32
 335 89 335 89 362 131.5 c 128,-1,33
EndSplineSet
Substitution2: "'smcp' Lowercase to Small Capitals lookup 27 subtable" eth.sc
Substitution2: "'aalt' Access All Alternates lookup 0 subtable" eth.sc
EndChar

StartChar: uni0238
Encoding: 568 568 400
Width: 874
GlyphClass: 2
Flags: W
AnchorPoint: "Anchor-18" 0 0 basechar 0
AnchorPoint: "Anchor-17" 0 0 basechar 0
AnchorPoint: "Anchor-16" 437 741 basechar 0
AnchorPoint: "Anchor-15" 0 0 basechar 0
AnchorPoint: "Anchor-14" 437 0 basechar 0
LayerCount: 2
Fore
SplineSet
782 471.5 m 128,-1,1
 831 397 831 397 831 265 c 0,2,3
 831 184 831 184 806 120 c 128,-1,4
 781 56 781 56 735.5 20 c 128,-1,5
 690 -16 690 -16 630 -16 c 0,6,7
 590 -16 590 -16 557 5 c 128,-1,8
 524 26 524 26 502 63 c 1,9,-1
 493 0 l 1,10,-1
 384 0 l 1,11,-1
 375 64 l 1,12,13
 349 28 349 28 313 6 c 128,-1,14
 277 -16 277 -16 234 -16 c 0,15,16
 143 -16 143 -16 93 60 c 128,-1,17
 43 136 43 136 43 265 c 0,18,19
 43 346 43 346 68.5 410 c 128,-1,20
 94 474 94 474 139.5 510 c 128,-1,21
 185 546 185 546 244 546 c 0,22,23
 279 546 279 546 311 529 c 128,-1,24
 343 512 343 512 367 480 c 1,25,-1
 367 741 l 1,26,-1
 509 757 l 1,27,-1
 509 472 l 1,28,29
 562 546 562 546 648 546 c 0,30,0
 733 546 733 546 782 471.5 c 128,-1,1
367 154 m 1,32,-1
 367 384 l 1,33,34
 328 441 328 441 281 441 c 0,35,36
 240 441 240 441 215.5 397.5 c 128,-1,37
 191 354 191 354 191 265 c 0,38,39
 191 90 191 90 277 90 c 0,40,31
 326 90 326 90 367 154 c 1,32,-1
658 132 m 128,-1,42
 683 175 683 175 683 265 c 0,43,44
 683 362 683 362 660.5 401.5 c 128,-1,45
 638 441 638 441 600 441 c 0,46,47
 572 441 572 441 550 424.5 c 128,-1,48
 528 408 528 408 509 379 c 1,49,-1
 509 157 l 1,50,51
 528 123 528 123 547.5 106 c 128,-1,52
 567 89 567 89 595 89 c 0,53,41
 633 89 633 89 658 132 c 128,-1,42
EndSplineSet
EndChar

StartChar: dcroat
Encoding: 273 273 403
Width: 607
GlyphClass: 2
Flags: W
AnchorPoint: "Anchor-18" 302 265 basechar 0
AnchorPoint: "Anchor-17" 539 741 basechar 0
AnchorPoint: "Anchor-16" 299 741 basechar 0
AnchorPoint: "Anchor-15" 0 0 basechar 0
AnchorPoint: "Anchor-14" 308 0 basechar 0
LayerCount: 2
Fore
SplineSet
596 685 m 1,0,-1
 596 598 l 1,1,-1
 529 598 l 1,2,-1
 529 0 l 1,3,-1
 404 0 l 1,4,-1
 396 65 l 1,5,6
 340 -16 340 -16 244 -16 c 0,7,8
 146 -16 146 -16 94.5 59.5 c 128,-1,9
 43 135 43 135 43 265 c 0,10,11
 43 347 43 347 69.5 410.5 c 128,-1,12
 96 474 96 474 145 510 c 128,-1,13
 194 546 194 546 258 546 c 0,14,15
 332 546 332 546 387 493 c 1,16,-1
 387 598 l 1,17,-1
 245 598 l 1,18,-1
 245 685 l 1,19,-1
 387 685 l 1,20,-1
 387 757 l 1,21,-1
 529 741 l 1,22,-1
 529 685 l 1,23,-1
 596 685 l 1,0,-1
341 105.5 m 128,-1,25
 365 121 365 121 387 154 c 1,26,-1
 387 391 l 1,27,28
 366 416 366 416 344.5 428.5 c 128,-1,29
 323 441 323 441 295 441 c 0,30,31
 246 441 246 441 218.5 398 c 128,-1,32
 191 355 191 355 191 265 c 0,33,34
 191 170 191 170 215.5 130 c 128,-1,35
 240 90 240 90 286 90 c 0,36,24
 317 90 317 90 341 105.5 c 128,-1,25
EndSplineSet
Substitution2: "'smcp' Lowercase to Small Capitals lookup 27 subtable" dcroat.sc
Substitution2: "'aalt' Access All Alternates lookup 0 subtable" dcroat.sc
EndChar

StartChar: uni0221
Encoding: 545 545 404
Width: 776
GlyphClass: 2
Flags: W
AnchorPoint: "Anchor-18" 0 0 basechar 0
AnchorPoint: "Anchor-17" 0 0 basechar 0
AnchorPoint: "Anchor-16" 388 741 basechar 0
AnchorPoint: "Anchor-15" 0 0 basechar 0
AnchorPoint: "Anchor-14" 388 -208 basechar 0
LayerCount: 2
Fore
SplineSet
753.5 210 m 128,-1,1
 787 180 787 180 787 129 c 0,2,3
 787 59 787 59 735 21.5 c 128,-1,4
 683 -16 683 -16 600 -16 c 0,5,6
 571 -16 571 -16 548 -12 c 1,7,-1
 516 -82 l 1,8,-1
 442 -53 l 1,9,-1
 474 14 l 1,10,11
 430 40 430 40 409 83 c 1,12,13
 348 -16 348 -16 244 -16 c 0,14,15
 146 -16 146 -16 94.5 59.5 c 128,-1,16
 43 135 43 135 43 265 c 0,17,18
 43 347 43 347 69.5 410.5 c 128,-1,19
 96 474 96 474 145 510 c 128,-1,20
 194 546 194 546 260 546 c 0,21,22
 297 546 297 546 329.5 531.5 c 128,-1,23
 362 517 362 517 387 493 c 1,24,-1
 387 757 l 1,25,-1
 529 741 l 1,26,-1
 529 178 l 2,27,28
 529 150 529 150 533 134 c 1,29,30
 558 189 558 189 589.5 214.5 c 128,-1,31
 621 240 621 240 669 240 c 0,32,0
 720 240 720 240 753.5 210 c 128,-1,1
342 106.5 m 128,-1,34
 366 123 366 123 388 156 c 1,35,36
 387 164 387 164 387 183 c 2,37,-1
 387 391 l 1,38,39
 366 416 366 416 345 428.5 c 128,-1,40
 324 441 324 441 296 441 c 0,41,42
 247 441 247 441 219 398 c 128,-1,43
 191 355 191 355 191 265 c 0,44,45
 191 170 191 170 215.5 130 c 128,-1,46
 240 90 240 90 287 90 c 0,47,33
 318 90 318 90 342 106.5 c 128,-1,34
684 130 m 0,49,50
 684 144 684 144 676.5 151.5 c 128,-1,51
 669 159 669 159 655 159 c 0,52,53
 637 159 637 159 623.5 144.5 c 128,-1,54
 610 130 610 130 592 90 c 1,55,56
 600 89 600 89 618 89 c 0,57,48
 684 89 684 89 684 130 c 0,49,50
EndSplineSet
EndChar

StartChar: uni018D
Encoding: 397 397 407
Width: 578
GlyphClass: 2
Flags: W
AnchorPoint: "Anchor-18" 0 0 basechar 0
AnchorPoint: "Anchor-17" 0 0 basechar 0
AnchorPoint: "Anchor-16" 289 530 basechar 0
AnchorPoint: "Anchor-15" 0 0 basechar 0
AnchorPoint: "Anchor-14" 289 -208 basechar 0
LayerCount: 2
Fore
SplineSet
464 7.5 m 128,-1,1
 485 -25 485 -25 485 -70 c 0,2,3
 485 -135 485 -135 432.5 -178 c 128,-1,4
 380 -221 380 -221 280 -221 c 0,5,6
 170 -221 170 -221 92 -162 c 1,7,-1
 158 -85 l 1,8,9
 186 -103 186 -103 212 -111.5 c 128,-1,10
 238 -120 238 -120 269 -120 c 0,11,12
 310 -120 310 -120 328.5 -105.5 c 128,-1,13
 347 -91 347 -91 347 -67 c 0,14,15
 347 -48 347 -48 339.5 -36 c 128,-1,16
 332 -24 332 -24 310 -11 c 128,-1,17
 288 2 288 2 242 21 c 0,18,19
 135 65 135 65 86.5 124.5 c 128,-1,20
 38 184 38 184 38 284 c 0,21,22
 38 360 38 360 68.5 419.5 c 128,-1,23
 99 479 99 479 156 512.5 c 128,-1,24
 213 546 213 546 289 546 c 0,25,26
 405 546 405 546 472 477.5 c 128,-1,27
 539 409 539 409 539 289 c 0,28,29
 539 216 539 216 500 161 c 128,-1,30
 461 106 461 106 387 71 c 1,31,0
 443 40 443 40 464 7.5 c 128,-1,1
196.5 204.5 m 128,-1,33
 207 175 207 175 233.5 152.5 c 128,-1,34
 260 130 260 130 312 106 c 1,35,36
 355 139 355 139 373.5 181.5 c 128,-1,37
 392 224 392 224 392 285 c 0,38,39
 392 363 392 363 367 401.5 c 128,-1,40
 342 440 342 440 290 440 c 0,41,42
 186 440 186 440 186 283 c 0,43,32
 186 234 186 234 196.5 204.5 c 128,-1,33
EndSplineSet
EndChar

StartChar: uni02A4
Encoding: 676 676 408
Width: 1003
GlyphClass: 2
Flags: W
AnchorPoint: "Anchor-18" 302 265 basechar 0
AnchorPoint: "Anchor-17" 539 741 basechar 0
AnchorPoint: "Anchor-16" 575 741 basechar 0
AnchorPoint: "Anchor-15" 0 0 basechar 0
AnchorPoint: "Anchor-14" 719 -208 basechar 0
LayerCount: 2
Fore
SplineSet
925 155.5 m 128,-1,1
 982 105 982 105 982 9 c 0,2,3
 982 -58 982 -58 950.5 -109.5 c 128,-1,4
 919 -161 919 -161 859.5 -190.5 c 128,-1,5
 800 -220 800 -220 720 -220 c 0,6,7
 576 -220 576 -220 491 -120 c 1,8,-1
 567 -47 l 1,9,10
 603 -80 603 -80 636.5 -95 c 128,-1,11
 670 -110 670 -110 713 -110 c 0,12,13
 770 -110 770 -110 802.5 -78 c 128,-1,14
 835 -46 835 -46 835 17 c 0,15,16
 835 74 835 74 802.5 99 c 128,-1,17
 770 124 770 124 702 124 c 2,18,-1
 612 124 l 1,19,-1
 612 210 l 1,20,-1
 791 422 l 1,21,-1
 529 422 l 1,22,-1
 529 0 l 1,23,-1
 404 0 l 1,24,-1
 396 65 l 1,25,26
 340 -16 340 -16 244 -16 c 0,27,28
 146 -16 146 -16 94.5 59.5 c 128,-1,29
 43 135 43 135 43 265 c 0,30,31
 43 347 43 347 69.5 410.5 c 128,-1,32
 96 474 96 474 145 510 c 128,-1,33
 194 546 194 546 258 546 c 0,34,35
 332 546 332 546 387 493 c 1,36,-1
 387 757 l 1,37,-1
 529 741 l 1,38,-1
 529 530 l 1,39,-1
 952 530 l 1,40,-1
 952 431 l 1,41,-1
 760 211 l 1,42,0
 868 206 868 206 925 155.5 c 128,-1,1
341 105.5 m 128,-1,44
 365 121 365 121 387 154 c 1,45,-1
 387 391 l 1,46,47
 366 416 366 416 344.5 428.5 c 128,-1,48
 323 441 323 441 295 441 c 0,49,50
 246 441 246 441 218.5 398 c 128,-1,51
 191 355 191 355 191 265 c 0,52,53
 191 170 191 170 215.5 130 c 128,-1,54
 240 90 240 90 286 90 c 0,55,43
 317 90 317 90 341 105.5 c 128,-1,44
EndSplineSet
EndChar

StartChar: uni0257
Encoding: 599 599 409
Width: 599
GlyphClass: 2
Flags: W
AnchorPoint: "Anchor-18" 0 0 basechar 0
AnchorPoint: "Anchor-17" 0 0 basechar 0
AnchorPoint: "Anchor-16" 315 741 basechar 0
AnchorPoint: "Anchor-15" 0 0 basechar 0
AnchorPoint: "Anchor-14" 300 0 basechar 0
LayerCount: 2
Fore
SplineSet
696 719 m 1,1,-1
 653 630 l 1,2,3
 634 641 634 641 618.5 646 c 128,-1,4
 603 651 603 651 584 651 c 0,5,6
 529 651 529 651 529 586 c 2,7,-1
 529 0 l 1,8,-1
 404 0 l 1,9,-1
 396 65 l 1,10,11
 340 -16 340 -16 244 -16 c 0,12,13
 146 -16 146 -16 94.5 59.5 c 128,-1,14
 43 135 43 135 43 265 c 0,15,16
 43 347 43 347 69.5 410.5 c 128,-1,17
 96 474 96 474 145 510 c 128,-1,18
 194 546 194 546 260 546 c 0,19,20
 297 546 297 546 329.5 531.5 c 128,-1,21
 362 517 362 517 387 493 c 1,22,-1
 387 580 l 2,23,24
 387 662 387 662 433.5 709.5 c 128,-1,25
 480 757 480 757 566 757 c 0,26,0
 641 757 641 757 696 719 c 1,1,-1
342 106 m 128,-1,28
 366 122 366 122 387 154 c 1,29,-1
 387 391 l 1,30,31
 366 416 366 416 345 428.5 c 128,-1,32
 324 441 324 441 296 441 c 0,33,34
 247 441 247 441 219 398 c 128,-1,35
 191 355 191 355 191 265 c 0,36,37
 191 170 191 170 215.5 130 c 128,-1,38
 240 90 240 90 287 90 c 0,39,27
 318 90 318 90 342 106 c 128,-1,28
EndSplineSet
Substitution2: "'smcp' Lowercase to Small Capitals lookup 27 subtable" uni0257.sc
Substitution2: "'aalt' Access All Alternates lookup 0 subtable" uni0257.sc
EndChar

StartChar: uni0256
Encoding: 598 598 411
Width: 599
GlyphClass: 2
Flags: W
AnchorPoint: "Anchor-18" 0 0 basechar 0
AnchorPoint: "Anchor-17" 0 0 basechar 0
AnchorPoint: "Anchor-16" 461 741 basechar 0
AnchorPoint: "Anchor-15" 0 0 basechar 0
AnchorPoint: "Anchor-14" 300 -208 basechar 0
LayerCount: 2
Fore
SplineSet
708 -178 m 1,0,1
 653 -220 653 -220 572 -220 c 0,2,3
 487 -220 487 -220 437 -173 c 128,-1,4
 387 -126 387 -126 387 -38 c 2,5,-1
 387 53 l 1,6,7
 332 -16 332 -16 244 -16 c 0,8,9
 146 -16 146 -16 94.5 59.5 c 128,-1,10
 43 135 43 135 43 265 c 0,11,12
 43 347 43 347 69.5 410.5 c 128,-1,13
 96 474 96 474 145 510 c 128,-1,14
 194 546 194 546 260 546 c 0,15,16
 297 546 297 546 329.5 531.5 c 128,-1,17
 362 517 362 517 387 493 c 1,18,-1
 387 757 l 1,19,-1
 529 741 l 1,20,-1
 529 -50 l 2,21,22
 529 -114 529 -114 587 -114 c 0,23,24
 608 -114 608 -114 622.5 -109.5 c 128,-1,25
 637 -105 637 -105 659 -94 c 1,26,-1
 708 -178 l 1,0,1
342 106 m 128,-1,28
 366 122 366 122 387 154 c 1,29,-1
 387 391 l 1,30,31
 366 416 366 416 345 428.5 c 128,-1,32
 324 441 324 441 296 441 c 0,33,34
 247 441 247 441 219 398 c 128,-1,35
 191 355 191 355 191 265 c 0,36,37
 191 170 191 170 215.5 130 c 128,-1,38
 240 90 240 90 287 90 c 0,39,27
 318 90 318 90 342 106 c 128,-1,28
EndSplineSet
Substitution2: "'smcp' Lowercase to Small Capitals lookup 27 subtable" uni0256.sc
Substitution2: "'aalt' Access All Alternates lookup 0 subtable" uni0256.sc
EndChar

StartChar: uni018C
Encoding: 396 396 412
Width: 599
GlyphClass: 2
Flags: W
AnchorPoint: "Anchor-18" 0 0 basechar 0
AnchorPoint: "Anchor-17" 0 0 basechar 0
AnchorPoint: "Anchor-16" 300 741 basechar 0
AnchorPoint: "Anchor-15" 0 0 basechar 0
AnchorPoint: "Anchor-14" 300 0 basechar 0
LayerCount: 2
Fore
SplineSet
529 0 m 1,0,-1
 404 0 l 1,1,-1
 396 65 l 1,2,3
 340 -16 340 -16 244 -16 c 0,4,5
 147 -16 147 -16 95 59 c 128,-1,6
 43 134 43 134 43 261 c 0,7,8
 43 340 43 340 69.5 403 c 128,-1,9
 96 466 96 466 145 501.5 c 128,-1,10
 194 537 194 537 260 537 c 0,11,12
 297 537 297 537 329.5 522.5 c 128,-1,13
 362 508 362 508 387 483 c 1,14,-1
 387 639 l 1,15,-1
 176 639 l 1,16,-1
 176 741 l 1,17,-1
 529 741 l 1,18,-1
 529 0 l 1,0,-1
342 106 m 128,-1,20
 366 122 366 122 387 154 c 1,21,-1
 387 382 l 1,22,23
 366 407 366 407 345 419.5 c 128,-1,24
 324 432 324 432 296 432 c 0,25,26
 247 432 247 432 219 389.5 c 128,-1,27
 191 347 191 347 191 261 c 0,28,29
 191 169 191 169 216 129.5 c 128,-1,30
 241 90 241 90 287 90 c 0,31,19
 318 90 318 90 342 106 c 128,-1,20
EndSplineSet
Substitution2: "'smcp' Lowercase to Small Capitals lookup 27 subtable" uni018C.sc
Substitution2: "'aalt' Access All Alternates lookup 0 subtable" uni018C.sc
EndChar

StartChar: uni02A3
Encoding: 675 675 414
Width: 965
GlyphClass: 2
Flags: W
AnchorPoint: "Anchor-18" 302 265 basechar 0
AnchorPoint: "Anchor-17" 539 741 basechar 0
AnchorPoint: "Anchor-16" 483 741 basechar 0
AnchorPoint: "Anchor-15" 0 0 basechar 0
AnchorPoint: "Anchor-14" 483 0 basechar 0
LayerCount: 2
Fore
SplineSet
945 110 m 1,0,-1
 931 0 l 1,1,-1
 404 0 l 1,2,-1
 396 65 l 1,3,4
 340 -16 340 -16 244 -16 c 0,5,6
 146 -16 146 -16 94.5 59.5 c 128,-1,7
 43 135 43 135 43 265 c 0,8,9
 43 347 43 347 69.5 410.5 c 128,-1,10
 96 474 96 474 145 510 c 128,-1,11
 194 546 194 546 258 546 c 0,12,13
 332 546 332 546 387 493 c 1,14,-1
 387 757 l 1,15,-1
 529 741 l 1,16,-1
 529 530 l 1,17,-1
 940 530 l 1,18,-1
 940 429 l 1,19,-1
 684 110 l 1,20,-1
 945 110 l 1,0,-1
341 105.5 m 128,-1,22
 365 121 365 121 387 154 c 1,23,-1
 387 391 l 1,24,25
 366 416 366 416 344.5 428.5 c 128,-1,26
 323 441 323 441 295 441 c 0,27,28
 246 441 246 441 218.5 398 c 128,-1,29
 191 355 191 355 191 265 c 0,30,31
 191 170 191 170 215.5 130 c 128,-1,32
 240 90 240 90 286 90 c 0,33,21
 317 90 317 90 341 105.5 c 128,-1,22
529 421 m 1,34,-1
 529 100 l 1,35,-1
 784 421 l 1,36,-1
 529 421 l 1,34,-1
EndSplineSet
EndChar

StartChar: uni02A5
Encoding: 677 677 416
Width: 1033
GlyphClass: 2
Flags: W
AnchorPoint: "Anchor-18" 302 265 basechar 0
AnchorPoint: "Anchor-17" 539 741 basechar 0
AnchorPoint: "Anchor-16" 516 741 basechar 0
AnchorPoint: "Anchor-15" 0 0 basechar 0
AnchorPoint: "Anchor-14" 516 -208 basechar 0
LayerCount: 2
Fore
SplineSet
847 0 m 1,1,2
 841 -38 841 -38 841 -127 c 1,3,-1
 756 -127 l 1,4,5
 756 -48 756 -48 761 0 c 1,6,-1
 404 0 l 1,7,-1
 396 65 l 1,8,9
 340 -16 340 -16 244 -16 c 0,10,11
 146 -16 146 -16 94.5 59.5 c 128,-1,12
 43 135 43 135 43 265 c 0,13,14
 43 347 43 347 69.5 410.5 c 128,-1,15
 96 474 96 474 145 510 c 128,-1,16
 194 546 194 546 258 546 c 0,17,18
 332 546 332 546 387 493 c 1,19,-1
 387 757 l 1,20,-1
 529 741 l 1,21,-1
 529 530 l 1,22,-1
 939 530 l 1,23,-1
 939 433 l 1,24,-1
 681 110 l 1,25,-1
 778 110 l 1,26,27
 811 253 811 253 931 253 c 0,28,29
 984 253 984 253 1017 223.5 c 128,-1,30
 1050 194 1050 194 1050 141 c 0,31,0
 1050 1 1050 1 847 0 c 1,1,2
341 105.5 m 128,-1,33
 365 121 365 121 387 154 c 1,34,-1
 387 391 l 1,35,36
 366 416 366 416 344.5 428.5 c 128,-1,37
 323 441 323 441 295 441 c 0,38,39
 246 441 246 441 218.5 398 c 128,-1,40
 191 355 191 355 191 265 c 0,41,42
 191 170 191 170 215.5 130 c 128,-1,43
 240 90 240 90 286 90 c 0,44,32
 317 90 317 90 341 105.5 c 128,-1,33
529 421 m 1,45,-1
 529 105 l 1,46,-1
 781 421 l 1,47,-1
 529 421 l 1,45,-1
929.5 118 m 128,-1,49
 949 126 949 126 949 147 c 0,50,51
 949 161 949 161 941.5 168.5 c 128,-1,52
 934 176 934 176 921 176 c 0,53,54
 878 176 878 176 863 110 c 1,55,48
 910 110 910 110 929.5 118 c 128,-1,49
EndSplineSet
EndChar

StartChar: e
Encoding: 101 101 417
Width: 551
GlyphClass: 2
Flags: W
AnchorPoint: "Anchor-18" 0 0 basechar 0
AnchorPoint: "Anchor-17" 0 0 basechar 0
AnchorPoint: "Anchor-16" 282 530 basechar 0
AnchorPoint: "Anchor-15" 425 8 basechar 0
AnchorPoint: "Anchor-14" 293 0 basechar 0
LayerCount: 2
Fore
SplineSet
515 222 m 1,1,-1
 184 222 l 1,2,3
 191 150 191 150 223 120 c 128,-1,4
 255 90 255 90 310 90 c 0,5,6
 344 90 344 90 374 101 c 128,-1,7
 404 112 404 112 439 136 c 1,8,-1
 498 56 l 1,9,10
 409 -16 409 -16 297 -16 c 0,11,12
 172 -16 172 -16 105 59 c 128,-1,13
 38 134 38 134 38 262 c 0,14,15
 38 343 38 343 66.5 407.5 c 128,-1,16
 95 472 95 472 149.5 509 c 128,-1,17
 204 546 204 546 279 546 c 0,18,19
 392 546 392 546 455 475 c 128,-1,20
 518 404 518 404 518 277 c 0,21,0
 518 267 518 267 515 222 c 1,1,-1
377 317 m 2,22,23
 377 449 377 449 282 449 c 0,24,25
 238 449 238 449 213.5 416.5 c 128,-1,26
 189 384 189 384 184 311 c 1,27,-1
 377 311 l 1,28,-1
 377 317 l 2,22,23
EndSplineSet
Substitution2: "'smcp' Lowercase to Small Capitals lookup 27 subtable" e.sc
Substitution2: "'aalt' Access All Alternates lookup 0 subtable" e.sc
EndChar

